<?xml version="1.0" encoding="UTF-8" standalone="no"?>
<!-- Created with Inkscape (http://www.inkscape.org/) -->

<svg
   width="100mm"
   height="100mm"
   viewBox="0 0 100 100"
   version="1.1"
   id="svg5"
   xml:space="preserve"
   inkscape:version="1.2.2 (b0a8486541, 2022-12-01)"
   sodipodi:docname="dog animation"
   xmlns:inkscape="http://www.inkscape.org/namespaces/inkscape"
   xmlns:sodipodi="http://sodipodi.sourceforge.net/DTD/sodipodi-0.dtd"
   xmlns="http://www.w3.org/2000/svg"
   xmlns:svg="http://www.w3.org/2000/svg"><sodipodi:namedview
     id="namedview7"
     pagecolor="#ffffff"
     bordercolor="#666666"
     borderopacity="1.0"
     inkscape:showpageshadow="2"
     inkscape:pageopacity="0.0"
     inkscape:pagecheckerboard="0"
     inkscape:deskcolor="#d1d1d1"
     inkscape:document-units="mm"
     showgrid="false"
     inkscape:zoom="1.5354513"
     inkscape:cx="465.33551"
     inkscape:cy="255.29954"
     inkscape:window-width="2478"
     inkscape:window-height="1522"
     inkscape:window-x="82"
     inkscape:window-y="41"
     inkscape:window-maximized="1"
     inkscape:current-layer="layer1"><inkscape:page
       x="0"
       y="0"
       width="100"
       height="100"
       id="page1650" /><inkscape:page
       x="110"
       y="0"
       width="100"
       height="100"
       id="page1652" /><inkscape:page
       x="220"
       y="0"
       width="100"
       height="100"
       id="page1654" /><inkscape:page
       x="330"
       y="0"
       width="100"
       height="100"
       id="page1656" /><inkscape:page
       x="440"
       y="0"
       width="100"
       height="100"
       id="page1658" /></sodipodi:namedview><defs
     id="defs2" /><g
     inkscape:label="Layer 1"
     inkscape:groupmode="layer"
     id="layer1"><path
       style="fill:#000000;stroke-width:0.264583"
       d="m 490.83836,99.781812 c -0.76766,-0.45678 -0.91746,-0.76814 -0.92199,-1.91637 -0.007,-1.77301 1.29294,-3.33623 2.90637,-3.49503 0.3638,-0.0358 1.43536,-0.20276 2.38125,-0.37101 0.94588,-0.16825 2.15909,-0.23719 2.69601,-0.1532 0.53692,0.084 1.03108,0.0631 1.09814,-0.0463 0.11743,-0.19168 -1.93261,-3.20349 -3.45212,-5.07167 -1.04744,-1.28779 -2.86003,-4.252726 -4.08486,-6.681826 -1.38771,-2.7521 -1.91265,-5.25689 -1.70276,-8.12485 0.10923,-1.49245 0.0638,-2.33541 -0.1389,-2.57969 -0.88889,-1.07104 -0.97637,-0.32011 -1.15981,9.9559 -0.0844,4.72943 -0.20277,9.134736 -0.26297,9.789576 -0.0602,0.65485 -0.25141,2.81621 -0.42489,4.80304 l -0.31543,3.61243 -0.80441,0.16088 c -0.85308,0.17062 -1.97263,0.0461 -3.83012,-0.42582 -2.1009,-0.53382 -2.5089,-2.59751 -0.98611,-4.98779 0.5056,-0.79362 0.92493,-1.68107 0.93185,-1.97211 0.007,-0.29104 0.24076,-1.03181 0.51964,-1.64614 0.78267,-1.72411 1.1649,-7.546146 0.9602,-14.625736 -0.0947,-3.27422 -0.22105,-6.31031 -0.28086,-6.74687 -0.32461,-2.36953 -0.68828,-7.59177 -0.55739,-8.00415 0.25013,-0.78812 -0.31689,-5.60422 -0.92667,-7.87085 -0.3132,-1.16417 -0.72063,-3.00964 -0.90542,-4.101053 -0.47137,-2.78406 -1.38388,-7.46468 -1.88274,-9.65729 -0.23177,-1.01864 -0.57973,-2.64687 -0.77326,-3.61829 -0.19353,-0.97141 -0.53588,-2.12202 -0.76076,-2.5569 -0.22489,-0.43488 -0.48921,-1.48555 -0.58739,-2.33483 -0.0982,-0.84928 -0.4098,-2.07993 -0.69249,-2.73477 -1.07318,-2.48605 -1.27395,-3.53869 -1.25995,-6.60613 0.008,-1.66884 0.11798,-3.13838 0.24525,-3.26565 0.34907,-0.34907 1.32107,0.27734 1.4737,0.94973 0.0734,0.32322 0.26012,1.18106 0.41499,1.90631 0.15487,0.72525 0.51296,1.84171 0.79576,2.48103 0.2828,0.63932 0.51797,1.29609 0.5226,1.45949 0.005,0.1634 0.18765,0.53426 0.40671,0.82414 0.36397,0.48161 0.38292,0.39039 0.21995,-1.05834 -0.0981,-0.87195 -0.29009,-1.80267 -0.42665,-2.06825 -0.22246,-0.43263 -0.53277,-2.47612 -0.91698,-6.03866 -0.0891,-0.82652 -0.005,-1.43394 0.25785,-1.85209 0.21477,-0.34221 0.39603,-1.00757 0.4028,-1.47857 0.007,-0.471 0.0874,-0.97786 0.17918,-1.126362 0.2882,-0.466323 1.54853,-1.001723 2.79973,-1.189353 1.20325,-0.180438 1.20458,-0.179752 1.62487,0.834287 4.0769,9.836398 5.53972,12.771558 7.26594,14.579178 0.40415,0.42322 2.69715,2.17841 2.84589,2.17841 0.587,0 3.66401,2.2805 5.02817,3.72658 1.70636,1.80883 2.21261,2.87031 2.89726,6.07484 0.0791,0.37031 0.65373,1.43023 1.27692,2.35538 2.27795,3.38172 2.90888,4.42054 3.92484,6.46223 0.56996,1.14542 0.97162,2.18722 0.89259,2.31511 -0.27649,0.447373 -1.99325,0.226903 -3.26963,-0.41989 -1.59752,-0.80952 -4.05139,-1.75224 -4.19284,-1.61079 -0.058,0.058 0.0441,0.79933 0.2269,1.64736 0.49293,2.286643 1.69178,4.555483 4.10013,7.759593 0.60159,0.80037 1.2908,1.8124 1.53157,2.24896 0.78234,1.41855 3.00209,4.39921 5.05476,6.78749 1.10423,1.28478 2.08411,2.54538 2.17751,2.80132 0.0934,0.25595 0.56555,1.09153 1.0492,1.85686 2.03161,3.21475 3.81171,7.50218 4.20684,10.13235 0.0753,0.50136 0.25021,2.16172 0.38862,3.68969 0.28001,3.090996 0.54112,4.284236 0.96869,4.426756 0.3837,0.1279 3.44666,-2.49214 4.77097,-4.081066 1.84666,-2.21565 2.44943,-3.83958 2.97635,-8.01861 0.25682,-2.03683 1.70465,-9.46219 2.42473,-12.43541 0.59806,-2.46943 1.0929,-4.92228 1.14761,-5.68854 0.0355,-0.49706 0.22033,-0.82573 0.49451,-0.8793 0.24082,-0.047 0.43785,0.0337 0.43785,0.17954 0,0.1458 0.15054,0.42242 0.33453,0.61471 0.75085,0.78472 2.04807,2.56251 2.30274,3.15582 0.14954,0.34837 0.38557,0.81199 0.52453,1.03027 0.6472,1.01666 1.20611,2.70194 3.07112,9.26041 0.39312,1.38245 0.81204,2.8112 0.93093,3.175 0.61981,1.89659 0.75594,4.433 0.38826,7.23417 -0.33519,2.55363 -0.49994,3.07007 -1.61068,5.048916 -2.07376,3.6945 -4.15523,6.05215 -6.60289,7.47896 -4.13858,2.41251 -9.22827,3.27055 -12.31643,2.07634 -0.28658,-0.11081 -0.54347,0.12087 -0.85244,0.76879 -0.67558,1.41672 -1.68089,1.72144 -4.71107,1.42799 -1.37114,-0.13278 -3.8622,-0.36186 -5.53569,-0.50907 -1.67349,-0.14721 -3.96026,-0.36758 -5.08171,-0.48972 -2.12709,-0.23168 -3.8914,0.001 -6.82454,0.90109 -1.90774,0.58524 -4.73592,0.776828 -5.42396,0.36743 z m 5.82084,-1.43816 c 2.76729,-0.82049 4.55421,-0.89918 9.525,-0.41947 1.89177,0.18257 4.33255,0.38302 5.42396,0.44543 1.09141,0.0624 2.59433,0.17511 3.33984,0.25043 1.83015,0.1849 2.74558,-0.4805 2.74558,-1.99567 0,-0.84015 0.0951,-1.03913 0.49677,-1.03913 0.27322,0 0.63956,0.17205 0.81408,0.38234 0.51333,0.61853 3.09355,1.02204 5.27268,0.82458 2.33248,-0.21137 4.56391,-0.93964 6.76293,-2.20721 2.08655,-1.20274 2.81002,-1.87924 4.67415,-4.37066 2.18751,-2.92363 3.00633,-4.827076 3.38041,-7.858206 0.3419,-2.77035 0.0558,-5.19898 -1.04422,-8.86355 -0.30578,-1.01864 -0.73231,-2.50692 -0.94787,-3.30729 -0.74094,-2.75115 -1.63613,-5.21408 -2.55778,-7.03716 -0.8792,-1.73911 -2.17511,-3.52894 -2.36777,-3.27021 -0.1819,0.24429 -1.29676,4.65906 -1.50047,5.94175 -0.11556,0.7276 -0.58426,2.94816 -1.04156,4.93457 -0.4573,1.98641 -0.89835,4.36766 -0.98011,5.29167 -0.26044,2.94339 -1.27282,6.77372 -2.11201,7.9908 -1.71262,2.483806 -7.01887,7.134776 -7.54255,6.611096 -0.12758,-0.12758 -0.41173,-2.25375 -0.63145,-4.724836 -0.56419,-6.34518 -1.49695,-9.32071 -4.47724,-14.28247 -0.87407,-1.45521 -1.68588,-2.68552 -1.80402,-2.73403 -0.11814,-0.0485 -0.21481,-0.23841 -0.21481,-0.42201 0,-0.18361 -0.78335,-1.21548 -1.74077,-2.29306 -0.95743,-1.07758 -2.14532,-2.55455 -2.63976,-3.28215 -0.49444,-0.7276 -1.12131,-1.62057 -1.39304,-1.98437 -0.27175,-0.36381 -0.95909,-1.35434 -1.52744,-2.20118 -0.56835,-0.84685 -1.4312,-2.09701 -1.91744,-2.77813 -1.34986,-1.89088 -2.90352,-5.36845 -3.10849,-6.957783 -0.10103,-0.7834 -0.28668,-1.70225 -0.41256,-2.04189 -0.37604,-1.01458 0.005,-1.14498 1.23605,-0.42335 1.33783,0.78401 5.3648,2.49608 5.87107,2.49608 0.18739,0 0.34071,-0.0795 0.34071,-0.1767 0,-0.40462 -2.50832,-4.79953 -3.2968,-5.77643 -1.47678,-1.82968 -2.19041,-3.15549 -2.4998,-4.64424 -0.64746,-3.11542 -2.4979,-5.63835 -5.58048,-7.60857 -6.32459,-4.04232 -6.73125,-4.57524 -10.33533,-13.54407 -0.66384,-1.65198 -1.01548,-2.27525 -1.0259,-1.81833 -0.018,0.78871 -0.62403,1.41699 -1.16617,1.20896 -0.20428,-0.0784 -0.42428,-0.68048 -0.50263,-1.37553 -0.22766,-2.01981 -0.77423,-2.14606 -2.15112,-0.49689 -0.56911,0.68165 -0.76338,1.19362 -0.76936,2.02758 -0.0115,1.60389 0.37541,5.0123 0.62426,5.4992 0.25922,0.50722 1.08261,4.9605 1.21969,6.59668 0.0549,0.65485 0.1259,1.48828 0.15784,1.85208 0.0433,0.49327 -0.0694,0.66146 -0.44325,0.66146 -0.3957,0 -0.63933,-0.44599 -1.15628,-2.11666 -0.36021,-1.16417 -1.05131,-3.24776 -1.53576,-4.63021 -0.48445,-1.38245 -0.95327,-3.07632 -1.04182,-3.76415 -0.25599,-1.98848 -0.65514,-1.77444 -0.69949,0.37509 -0.059,2.86034 0.008,3.27395 0.95287,5.88983 0.47565,1.31671 0.95139,3.09274 1.05721,3.94673 0.10582,0.85398 0.41975,1.92555 0.69762,2.38125 0.27787,0.45569 0.50567,1.14161 0.50621,1.52426 5.3e-4,0.38264 0.34341,2.10905 0.76193,3.83646 0.41852,1.7274 0.88232,3.85511 1.03066,4.72824 0.56583,3.33045 1.35538,7.171723 1.61299,7.847423 0.74281,1.94833 1.12229,5.09128 1.23805,10.25393 0.0672,2.99561 0.16435,5.80375 0.21594,6.24031 0.9577,8.10299 0.7447,20.766116 -0.38556,22.922486 -0.27735,0.52913 -0.50427,1.14432 -0.50427,1.36709 0,0.22276 -0.41672,1.19052 -0.92604,2.15058 -0.99626,1.87793 -1.1673,3.06045 -0.52034,3.59738 0.22314,0.18519 1.24401,0.41356 2.26861,0.50747 2.15287,0.19733 2.18042,0.17378 2.45849,-2.1023 0.0978,-0.80036 0.27526,-2.16958 0.39438,-3.0427 0.11913,-0.87313 0.23086,-4.6236 0.24828,-8.334376 0.0174,-3.71078 0.15279,-8.41375 0.30079,-10.45104 0.14801,-2.03729 0.27015,-4.09112 0.27142,-4.56406 0.003,-1.03366 0.58608,-1.14943 1.49394,-0.29654 l 0.59967,0.56337 0.76459,-0.64336 c 0.83887,-0.70586 3.45574,-1.45 4.15522,-1.18158 0.76401,0.29318 0.28933,0.7639 -1.13891,1.12941 -2.22856,0.57033 -2.55958,0.90762 -3.08643,3.14484 -0.79018,3.35535 -0.23638,6.00137 2.14546,10.25084 2.00185,3.571536 2.59391,4.483106 4.3407,6.683136 1.8151,2.28607 3.22987,4.59998 3.06894,5.01936 -0.0905,0.23581 -0.5802,0.25363 -1.93156,0.0703 -1.26673,-0.17188 -2.4062,-0.14752 -3.79471,0.0811 -3.16827,0.52171 -3.96875,1.12419 -3.96875,2.98708 0,1.67512 1.6435,1.82665 5.95313,0.54888 z m -3.97214,-59.912149 c -0.28618,-0.31623 -0.67032,-0.47322 -0.94478,-0.38611 -0.68482,0.21735 -0.87723,-0.33346 -0.25272,-0.72347 0.74365,-0.46443 0.67501,-0.73712 -0.18818,-0.74756 l -0.7276,-0.009 0.66146,-0.52027 c 1.35707,-1.0674 1.38056,-1.09781 1.0803,-1.39807 -0.54841,-0.54841 -0.33393,-1.04372 0.37491,-0.86582 0.38143,0.0957 0.66145,0.0519 0.66145,-0.10361 0,-0.14828 -0.11906,-0.26961 -0.26458,-0.26961 -0.14552,0 -0.26458,-0.11184 -0.26458,-0.24853 0,-0.13669 0.50601,-0.22599 1.12448,-0.19844 0.9897,0.0441 1.11419,-0.0133 1.03871,-0.47907 -0.0763,-0.4708 -0.007,-0.45195 0.62793,0.17092 0.75544,0.74104 0.68915,1.28428 -0.15673,1.28428 -0.28016,0 -0.89821,0.3477 -1.37345,0.77265 -0.81127,0.72544 -0.86376,0.87902 -0.85898,2.51354 0.003,0.9575 -0.008,1.7409 -0.0251,1.7409 -0.0166,0 -0.24725,-0.23981 -0.5125,-0.53291 z"
       id="path302"
       sodipodi:nodetypes="ssssscssscssscscssssssssssssscsssscssssccssssssssssssssssscssssssscsssssssssssssscssssssssssssssssssssssssssssssssssssssssscsssssssssssssscsssscssssssssssscsssssssccsscssccsscssssscsssscc" /><path
       style="fill:#000000;stroke:none;stroke-width:0.245665;-inkscape-stroke:none;stop-color:#000000"
       d="m 33.644182,30.235002 c 0.004,0.08643 0.10087,0.06563 0.2928,-0.01092 0.37979,-0.151495 0.46423,-0.04372 0.70484,0.899124 0.15035,0.58919 0.36967,1.05201 0.48736,1.028489 0.11769,-0.02352 0.1805,-0.155292 0.13954,-0.292813 -0.041,-0.137495 0.0301,-0.270932 0.1578,-0.29645 0.1339,-0.02676 0.25019,0.230372 0.27515,0.6073 0.0463,0.700469 0.53328,0.817665 0.85119,0.204996 0.17402,-0.335418 0.2067,-0.31817 1.50771,0.780579 l 0.63423,0.535531 -0.19722,-0.68911 c -0.23396,-0.817515 -0.0183,-0.929271 0.59089,-0.306431 0.51159,0.523045 0.9317,0.246447 0.5518,-0.363303 -0.15213,-0.244456 -0.12538,-0.634753 0.0664,-0.959617 0.17771,-0.301102 0.31927,-0.559943 0.3146,-0.575633 -0.005,-0.01624 -0.96491,-1.11195 -2.28527,-1.305118 -1.32036,-0.193168 -2.59977,0.301383 -2.67863,0.03664 -0.23807,-0.799363 -0.72433,-0.768397 -1.14976,0.07302 -0.1788,0.353606 -0.26747,0.54726 -0.26337,0.633698 z"
       id="path596"
       sodipodi:nodetypes="cssscscsccsscccccscc" /><path
       style="fill:#000000;stroke:none;stroke-width:0.245665;-inkscape-stroke:none;stop-color:#000000"
       d="m 39.462902,24.129594 c -1.24227,0.0022 -2.11751,0.287118 -3.40135,0.954464 -1.564,0.812999 -4.29281,2.969439 -4.45916,3.523816 -0.0422,0.140474 -2.12108,1.728888 -2.5802,1.971456 -1.96096,1.036081 -4.76576,1.453271 -13.9299,2.070158 -0.70856,0.04769 -0.88591,0.06022 -1.01234,0.567924 h 5.2e-4 c -0.0422,0.169236 -0.0786,0.393026 -0.12713,0.691947 -0.20181,1.243344 -0.12334,2.61 0.17467,3.035474 0.0949,0.135496 0.48511,0.378063 0.86661,0.539502 0.38157,0.161213 0.87158,0.55077 1.08934,0.866097 0.26596,0.385697 0.73685,0.665114 1.43506,0.852661 2.30017,0.07599 5.18184,0.405976 6.27972,0.883667 0.30496,0.132694 -0.12822,0.884768 -0.42323,1.049548 -0.38101,0.212807 -1.19865,0.260036 -2.44378,0.08113 -0.63439,-0.09214 -1.38571,-0.197682 -1.66967,-0.234611 -0.59071,-0.07689 -1.37643,0.635103 -1.19114,1.079521 0.0676,0.162033 1.23302,0.749207 2.58951,1.305347 2.49353,1.021558 3.40728,1.177654 5.73556,0.981335 0.61328,-0.05172 1.7038,0.05851 2.42311,0.244946 0.71931,0.186453 1.64925,0.282335 2.06706,0.212907 0.41781,-0.06944 1.45176,-0.01459 2.29753,0.121957 0.84577,0.136551 2.26937,0.349392 3.16518,0.459403 1.03285,0.12684 2.06614,1.349406 2.92763,2.219872 0.72245,0.729983 1.31134,1.591425 1.83605,2.47431 0.50812,0.854973 0.8685,1.612314 1.25484,2.707006 l 1.06368,0.08157 c -0.15152,-0.359727 -0.80691,-2.183805 -1.41153,-3.169823 -0.60387,-0.984785 -1.32008,-1.92337 -2.18233,-2.692126 -1.15596,-1.03062 -2.39479,-2.32156 -3.91983,-2.494133 -1.52506,-0.172586 -3.02764,-0.416287 -3.33934,-0.541569 -0.3117,-0.125275 -0.93463,-0.135894 -1.38441,-0.02325 -0.44978,0.112629 -1.41101,0.05727 -2.1363,-0.123507 -0.72531,-0.180786 -2.30661,-0.31559 -3.51348,-0.299206 -2.39761,0.03246 -2.75317,-0.04013 -5.06533,-1.036113 -1.73756,-0.748483 -1.79852,-1.195825 -0.10697,-0.783931 2.03992,0.290167 1.54395,0.07909 2.70475,0.09767 0.88317,-0.392787 0.97823,-0.430881 1.09037,-0.804602 0.10595,-0.353073 0.24634,-1.221814 -0.16743,-1.34307 -0.30526,-0.08941 -1.06513,-0.292372 -1.61386,-0.455786 -3.21168,-0.632689 -1.72288,0.121962 -4.73459,-0.895553 -0.67731,-0.279799 -1.03875,-0.631641 -1.43247,-1.393197 -0.95254,-1.842498 -0.69515,-2.317568 1.01389,-1.868619 0.58811,0.154482 1.14074,0.144938 1.26246,-0.02222 0.32303,-0.443627 -0.0167,-1.222868 -0.65371,-1.499134 -0.36907,-0.16004 0.23778,-0.287131 1.77095,-0.371036 8.32376,-0.455523 8.87318,-0.663909 13.95677,-5.308203 2.47774,-2.263613 5.05621,-3.181969 7.77627,-2.76934 0.47365,0.07185 0.94538,0.08466 1.44539,0.03514 v -0.866101 c -0.43473,0.08446 -0.79358,0.125692 -0.9617,0.101285 -0.96358,-0.139837 -1.71504,-0.216142 -2.36574,-0.214974 z"
       id="rect519"
       sodipodi:nodetypes="ssccscccscccssccccsssssaaccaasssscsccscccssssssscccss" /><path
       id="path521"
       style="fill:#000000;stroke-width:0.264583"
       d="m 52.432652,31.259491 c -0.53408,-0.814138 -1.48351,-1.3732 -1.99854,-2.130343 -0.39983,-0.587818 -0.70539,-1.126468 -0.70723,-1.242656 l -1.01186,-1.109636 c -0.70534,0.0603 -0.78831,0.339656 -0.2791,0.872725 0.21568,0.225839 0.66178,0.903154 0.99108,1.504849 0.35902,0.65604 1.63782,1.537722 2.24104,2.472191 4.14352,6.418849 6.44558,14.139006 9.13722,21.020097 0.558,1.209876 1.22451,2.424259 1.84898,3.299023 0.48624,0.68112 1.34937,1.931276 1.91772,2.778125 0.56835,0.846839 1.25581,1.83709 1.52755,2.200899 0.27173,0.3638 0.89824,1.256776 1.39268,1.984375 0.49443,0.7276 1.68272,2.204908 2.64015,3.282487 0.95742,1.077579 1.74046,2.109274 1.74046,2.292884 0,0.1836 0.0968,0.373696 0.21498,0.422196 0.11814,0.04851 0.92995,1.278475 1.80402,2.733683 2.98029,4.961755 3.91306,7.937159 4.47725,14.282333 0.21972,2.471086 0.5039,4.597716 0.63148,4.725296 0.52368,0.52368 5.83008,-4.127678 7.542699,-6.611486 0.83918,-1.217079 1.85105,-5.04734 2.11149,-7.990727 0.0818,-0.924009 0.52301,-3.305258 0.98031,-5.291666 0.457299,-1.986408 0.926229,-4.206984 1.041789,-4.934583 0.20371,-1.282689 1.31827,-5.697466 1.50017,-5.941756 0.19266,-0.25873 1.48862,1.530976 2.36781,3.270085 0.92165,1.823078 1.81705,4.286149 2.55799,7.037296 0.21556,0.800369 0.64196,2.288653 0.94774,3.307292 1.10002,3.664566 1.38628,6.093194 1.04438,8.863541 -0.37408,3.031127 -1.19316,4.934804 -3.38067,7.858434 -1.86413,2.49142 -2.58758,3.16806 -4.67413,4.37079 -2.199019,1.26757 -4.430419,1.99574 -6.762898,2.20711 -2.17912,0.19745 -4.75921,-0.20623 -5.27254,-0.82476 -0.17452,-0.21029 -0.54069,-0.38241 -0.81391,-0.38241 -0.40167,0 -0.49712,0.19907 -0.49712,1.03922 0,1.51517 -0.91542,2.18064 -2.74557,1.99574 -0.74551,-0.0753 -2.24844,-0.18823 -3.33985,-0.25063 -1.09141,-0.0624 -3.53219,-0.26288 -5.42396,-0.44545 -4.97078,-0.47971 -6.75771,-0.40087 -9.525,0.41961 -4.30961,1.27777 -5.95312,1.12631 -5.95312,-0.5488 0,-1.86289 0.80048,-2.46519 3.96875,-2.9869 1.38851,-0.22862 2.52788,-0.25301 3.7946,-0.0811 1.35137,0.18333 1.84116,0.16553 1.93166,-0.0703 0.16093,-0.41938 -1.25396,-2.73378 -3.06906,-5.01985 -1.74678,-2.20003 -2.33845,-3.111259 -4.3403,-6.682795 -2.38183,-4.249466 -2.93579,-6.895707 -2.14561,-10.251054 0.52685,-2.237218 0.85808,-2.574182 3.08663,-3.144511 1.42824,-0.36551 1.90244,-0.836467 1.13843,-1.129647 -0.69947,-0.26842 -3.31591,0.475981 -4.15478,1.18184 l -0.76481,0.643372 -0.59945,-0.56379 c -0.90786,-0.852889 -1.49096,-0.737036 -1.49396,0.296623 -10e-4,0.472939 -0.12381,2.526774 -0.27182,4.564062 -0.148,2.037288 -0.28336,6.740265 -0.30076,10.451042 -0.0174,3.710778 -0.12893,7.461248 -0.24805,8.334378 -0.11913,0.87312 -0.29649,2.24235 -0.39429,3.04271 -0.27808,2.27607 -0.30588,2.29952 -2.45876,2.10219 -1.0246,-0.0939 -2.04546,-0.32227 -2.2686,-0.50746 -0.64696,-0.53693 -0.47587,-1.71927 0.52038,-3.5972 0.50932,-0.96006 0.92605,-1.92801 0.92605,-2.15077 0,-0.22277 0.22701,-0.83771 0.50436,-1.36684 1.13026,-2.15637 1.34319,-14.819651 0.3855,-22.922633 -0.0516,-0.43656 -0.1488,-3.244839 -0.216,-6.240446 -0.0944,-4.211366 -0.36456,-7.077758 -0.86403,-9.04906 l -1.07642,-3e-6 c 0.0636,0.258191 0.12804,0.51802 0.18707,0.737422 0.60978,2.266628 1.17669,7.082719 0.92655,7.870838 -0.13089,0.412379 0.23247,5.634635 0.55708,8.004162 0.0598,0.43656 0.18642,3.472659 0.28112,6.746875 0.20469,7.079583 -0.17747,12.901875 -0.96015,14.625985 -0.27888,0.61433 -0.51287,1.35485 -0.51987,1.64589 -0.007,0.29104 -0.42612,1.17835 -0.93172,1.97197 -1.52279,2.39028 -1.11491,4.45399 0.98598,4.98781 1.85749,0.47192 2.97718,0.59643 3.83026,0.42581 l 0.8046,-0.16071 0.31523,-3.61218 c 0.17348,-1.98683 0.36458,-4.14847 0.42478,-4.80332 0.0602,-0.65484 0.17863,-5.060163 0.26303,-9.789588 0.18345,-10.276 0.27125,-11.02702 1.16014,-9.955981 0.2027,0.244279 0.24772,1.087239 0.13849,2.579687 -0.20989,2.867957 0.31503,5.372988 1.70274,8.125086 1.22484,2.429097 3.03757,5.393976 4.08502,6.681766 1.5195,1.86817 3.56942,4.87984 3.45199,5.07152 -0.067,0.1094 -0.56121,0.13051 -1.09813,0.0465 -0.53692,-0.084 -1.75007,-0.0153 -2.69596,0.15296 -0.94589,0.16825 -2.01745,0.33524 -2.38125,0.37104 -1.61343,0.1588 -2.91328,1.72239 -2.90628,3.49539 0.005,1.14823 0.15424,1.45938 0.92191,1.91616 0.68804,0.409401 3.51622,0.21782 5.42396,-0.36742 2.93313,-0.90009 4.6973,-1.1329 6.82439,-0.90123 1.12145,0.12214 3.40837,0.34268 5.08186,0.48989 1.67348,0.14721 4.16444,0.37623 5.53558,0.50901 3.03017,0.29345 4.03576,-0.0111 4.71134,-1.42781 0.30897,-0.64792 0.56556,-0.87976 0.85214,-0.76895 3.08816,1.1942 8.177989,0.33615 12.316558,-2.07636 2.44766,-1.42681 4.52946,-3.78463 6.60322,-7.47913 1.11073,-1.978847 1.27504,-2.495159 1.61023,-5.048786 0.36768,-2.801168 0.23172,-5.337596 -0.38809,-7.234184 -0.11889,-0.3638 -0.53757,-1.792552 -0.93069,-3.175 -1.86501,-6.558464 -2.42393,-8.243758 -3.07113,-9.260417 -0.13896,-0.21828 -0.37498,-0.681542 -0.52451,-1.029911 -0.25467,-0.59331 -1.55186,-2.371161 -2.30271,-3.15588 -0.18399,-0.19229 -0.33486,-0.46915 -0.33486,-0.614949 0,-0.14584 -0.19688,-0.226318 -0.4377,-0.179318 -0.27418,0.05357 -0.45904,0.381957 -0.49454,0.879016 -0.0547,0.76626 -0.54968,3.219115 -1.14774,5.688542 -0.720079,2.973217 -2.167829,10.398589 -2.424649,12.435417 -0.52692,4.179026 -1.12991,5.802984 -2.976569,8.018632 -1.32431,1.588928 -4.38707,4.209308 -4.77077,4.081408 -0.42756,-0.14252 -0.6884,-1.33613 -0.96841,-4.427124 -0.13841,-1.527968 -0.31331,-3.188337 -0.38861,-3.689697 -0.39513,-2.630167 -2.17537,-6.917451 -4.20698,-10.132198 -0.48365,-0.765329 -0.95615,-1.600784 -1.04955,-1.856734 -0.0934,-0.25594 -1.07289,-1.516601 -2.17712,-2.80138 -2.05267,-2.388277 -4.27264,-5.36915 -5.05499,-6.787699 -0.24077,-0.436559 -0.9301,-1.448589 -1.53169,-2.248958 -1.31759,-1.752933 -2.27109,-3.22475 -2.94711,-4.573881 -3.00393,-7.076209 -4.97716,-14.894149 -9.23664,-21.387227 z"
       sodipodi:nodetypes="ascccsacssssssssssscssssssssssssssssssscssssssccccssscssssssccccsscsssccccscsssssssscscsssscssssssssscsssssscsssssca" /><path
       style="fill:#000000;stroke:#000000;stroke-width:0.264583px;stroke-linecap:butt;stroke-linejoin:miter;stroke-opacity:1"
       d="m 22.348022,40.791919 c -0.51349,-0.174781 -1.08525,0.0064 -1.61152,-0.106259 -0.49456,-0.105918 -0.97895,-0.200197 -1.48269,-0.229973 -0.73947,-0.04371 -0.98873,-0.0985 -1.70351,0.21886 -0.55531,0.246556 -0.90402,0.62472 -1.19356,1.156924 -0.11903,0.21878 -0.25578,1.029209 0.0681,0.713262 0.37783,-0.368568 0.72284,-0.863762 1.18429,-1.116154 0.65108,-0.35611 0.93592,-0.418048 1.57968,-0.434425 0.74764,-0.01902 0.72588,0.04879 1.29763,0.152386 0.47737,0.08649 1.559,0.009 2.00779,0.195646 0.4187,0.174159 0.92328,0.09529 1.25187,-0.213839 0.26392,-0.248299 0.26301,-0.01304 0.3533,-0.5066 0.0723,-0.39533 -0.1927,-0.655849 -0.69257,-0.168085 -0.35807,0.349405 -0.51336,0.523914 -1.05881,0.338257 z"
       id="path591"
       sodipodi:nodetypes="ssssssssssssss" /><path
       id="path652"
       style="fill:#000000;stroke:none;stroke-width:0.245665;-inkscape-stroke:none;stop-color:#000000"
       d="m 46.802832,16.625355 c -0.25937,0.301842 -0.6273,0.818742 -0.99115,1.406504 -1.03765,1.676275 -1.50423,2.623217 -2.90218,5.891183 -0.18396,0.43002 -0.39761,0.861607 -0.59767,1.219959 l 0.66183,0.558666 c 0.49656,-0.722172 0.90239,-1.634882 1.29947,-2.886938 0.33354,-1.051748 2.39381,-4.925524 2.70795,-5.091471 0.0754,-0.03984 0.21951,0.05362 0.32051,0.208338 0.27282,0.418048 1.48565,8.794427 1.5979,10.220673 0.0216,0.274989 0.0529,0.501207 0.0931,0.684491 l 0.96866,-1.14754 c -0.006,9.22e-4 -0.0122,0.0011 -0.0161,-1.07e-4 -0.18605,-0.05877 -1.1484,-6.820703 -1.38077,-8.471854 -0.18566,-1.319231 -0.94008,-2.827206 -1.43641,-2.872039 -0.0532,-0.0048 -0.16943,0.09903 -0.32506,0.280135 z"
       sodipodi:nodetypes="ccsccsscccccsscc" /><g
       id="g1665"
       transform="translate(-22.497049,-11.573261)"><path
         style="fill:#000000;stroke:none;stroke-width:0.245665;-inkscape-stroke:none;stop-color:#000000"
         d="m 169.84542,43.395771 c 0.004,0.0864 0.10087,0.0656 0.2928,-0.0109 0.37979,-0.1515 0.46423,-0.0437 0.70484,0.89912 0.15035,0.58919 0.36967,1.05201 0.48736,1.02849 0.11769,-0.0235 0.1805,-0.15529 0.13954,-0.29281 -0.041,-0.1375 0.0301,-0.27094 0.1578,-0.29645 0.1339,-0.0268 0.25019,0.23037 0.27515,0.6073 0.0463,0.70047 0.53328,0.81766 0.85119,0.20499 0.17402,-0.33542 0.2067,-0.31817 1.50771,0.78058 l 0.63423,0.53553 -0.19722,-0.68911 c -0.23396,-0.81751 -0.0183,-0.92927 0.59089,-0.30643 0.51159,0.52305 0.9317,0.24645 0.5518,-0.3633 -0.15213,-0.24446 -0.12538,-0.63475 0.0664,-0.95962 0.17771,-0.3011 0.31927,-0.55994 0.3146,-0.57563 -0.005,-0.0162 -0.96491,-1.11195 -2.28527,-1.30512 -1.32036,-0.19317 -2.59977,0.30138 -2.67863,0.0366 -0.23807,-0.79936 -0.72433,-0.7684 -1.14976,0.073 -0.1788,0.35361 -0.26747,0.54726 -0.26337,0.6337 z"
         id="path596-5"
         sodipodi:nodetypes="cssscscsccsscccccscc" /><path
         style="fill:#000000;stroke:none;stroke-width:0.245665;-inkscape-stroke:none;stop-color:#000000"
         d="m 177.35242,38.620995 c -1.1383,-0.497512 -2.05432,-0.588252 -3.49813,-0.49325 -1.75888,0.115763 -5.12433,0.993449 -5.49949,1.434205 -0.0951,0.111659 -2.63713,0.73048 -3.15503,0.768033 -2.21203,0.160475 -5.71241,-1.203782 -14.35158,-4.322554 -0.66797,-0.241136 -0.83539,-0.300978 -1.15524,0.113109 l 4.7e-4,2.09e-4 c -0.10666,0.137994 -0.22994,0.328277 -0.39454,0.582478 -0.68456,1.057363 -1.16205,2.340287 -1.0602,2.849669 0.0324,0.162209 0.29223,0.541169 0.57666,0.84234 0.28459,0.300989 0.57668,0.854657 0.64932,1.230922 0.0885,0.460066 0.40736,0.905198 0.97129,1.357582 2.07562,0.994167 5.34606,3.073466 6.15932,3.95217 0.2259,0.24409 -0.47304,0.758607 -0.80941,0.790907 -0.43441,0.04171 -1.96653,-0.862545 -3.03471,-1.526886 -0.54386,-0.339331 -1.18938,-0.738007 -1.43454,-0.885963 -0.50998,-0.307856 -1.51562,0.02826 -1.5246,0.509679 -0.003,0.175545 0.82787,1.181644 1.8464,2.236133 1.87259,1.937699 3.41098,3.066758 5.6218,3.822872 0.58234,0.199175 1.53658,0.738426 2.12028,1.198285 0.5837,0.459858 1.39666,0.92146 1.80714,1.025829 0.41046,0.104396 1.33518,0.570181 2.05472,1.035189 0.71955,0.464999 1.93753,1.232119 2.71356,1.69293 0.89475,0.531307 2.55206,1.644508 3.75881,2.562893 1.53619,1.169103 3.30909,2.163528 4.41967,3.74254 0.61072,0.868314 1.16162,1.816407 1.11523,2.983089 l 0.86296,-0.679453 c -0.10126,-0.436913 -0.29995,-1.666438 -0.81137,-2.380492 -1.22268,-1.707142 -3.14909,-2.831275 -4.83226,-4.111957 -1.46054,-1.111286 -3.23003,-2.318675 -4.55707,-3.089705 -1.32706,-0.771038 -2.60495,-1.598161 -2.84001,-1.838166 -0.23505,-0.240004 -0.80117,-0.500122 -1.25832,-0.577721 -0.45711,-0.07767 -1.31503,-0.514703 -1.90647,-0.971801 -0.59146,-0.457087 -1.98521,-1.216138 -3.09687,-1.686254 -2.20845,-0.933985 -3.26929,-1.762225 -4.98608,-3.603625 -1.29015,-1.383782 -1.16615,-1.817904 0.21716,-0.760809 1.75123,1.085654 2.14638,1.311877 3.2018,1.795504 0.96657,-0.0047 1.06892,-0.0013 1.32182,-0.298452 0.23894,-0.280712 0.71669,-1.019749 0.38656,-1.297092 -0.24358,-0.204562 -0.85777,-0.695859 -1.29454,-1.066055 -2.68648,-1.870295 -2.39104,-1.199698 -4.73973,-3.341976 -0.50772,-0.528453 -0.69725,-0.995902 -0.75164,-1.85149 -0.13159,-2.069981 0.29505,-2.401522 1.67949,-1.303471 0.47641,0.377847 0.98626,0.591247 1.1649,0.487131 0.47411,-0.276368 0.47625,-1.126442 0.004,-1.635454 -0.27361,-0.294894 0.33314,-0.167335 1.77072,0.372106 7.80481,2.928722 9.15611,3.577595 15.67775,1.368421 3.17865,-1.076746 5.90878,-0.881197 8.23357,0.589987 0.4048,0.256224 0.83159,0.457561 1.30937,0.613129 l 0.34814,-0.793051 c -0.43203,-0.09737 -0.77717,-0.203898 -0.9213,-0.293827 -0.8261,-0.515358 -1.48351,-0.887289 -2.0798,-1.147773 z"
         id="rect519-62"
         sodipodi:nodetypes="ssccscccscccssccccsssssaaccsasssscsccscccssssssscccss" /><path
         id="path521-9"
         style="fill:#000000;stroke-width:0.264583"
         d="m 185.08697,44.698774 c 3.57705,6.099229 5.73014,13.167863 8.21534,19.521206 0.558,1.20988 1.22451,2.42426 1.84898,3.29903 0.48624,0.68112 1.34937,1.93127 1.91772,2.77812 0.56835,0.84684 1.25581,1.83709 1.52755,2.2009 0.27173,0.3638 0.89824,1.25678 1.39268,1.98438 0.49443,0.7276 1.68272,2.2049 2.64015,3.28248 0.95742,1.07758 1.74046,2.10928 1.74046,2.29289 0,0.1836 0.0968,0.37369 0.21498,0.42219 0.11814,0.0485 0.92995,1.27848 1.80402,2.73369 2.98029,4.96175 3.91306,7.93715 4.47725,14.28233 0.21972,2.47108 0.5039,4.59771 0.63148,4.72529 0.52368,0.52368 5.83008,-4.12767 7.5427,-6.61148 0.83918,-1.21708 1.85105,-5.04734 2.11149,-7.99073 0.0818,-0.92401 0.52301,-3.30526 0.98031,-5.29167 0.4573,-1.9864 0.92623,-4.20698 1.04179,-4.93458 0.20371,-1.28269 1.31827,-5.69746 1.50017,-5.94175 0.19266,-0.25873 1.48862,1.53097 2.36781,3.27008 0.92165,1.82308 1.81705,4.28615 2.55799,7.0373 0.21556,0.80037 0.64196,2.28865 0.94774,3.30729 1.10002,3.66456 1.38628,6.09319 1.04438,8.86354 -0.37408,3.03113 -1.19316,4.9348 -3.38067,7.85843 -1.86413,2.49142 -2.58758,3.16806 -4.67413,4.37079 -2.19902,1.26757 -4.43042,1.99574 -6.7629,2.20711 -2.17912,0.19745 -4.75921,-0.20623 -5.27254,-0.82476 -0.17452,-0.21029 -0.54069,-0.38241 -0.81391,-0.38241 -0.40167,0 -0.49712,0.19907 -0.49712,1.03922 0,1.51517 -0.91542,2.18064 -2.74557,1.99574 -0.74551,-0.0753 -2.24844,-0.18823 -3.33985,-0.25063 -1.09141,-0.0624 -3.53219,-0.26288 -5.42396,-0.44545 -4.97078,-0.47971 -6.75771,-0.40087 -9.525,0.41961 -4.30961,1.27777 -5.95312,1.12631 -5.95312,-0.5488 0,-1.86289 0.80048,-2.46519 3.96875,-2.9869 1.38851,-0.22862 2.52788,-0.25301 3.7946,-0.0811 1.35137,0.18333 1.84116,0.16553 1.93166,-0.0703 0.16093,-0.41938 -1.25396,-2.73378 -3.06906,-5.01985 -1.74678,-2.20003 -2.33845,-3.11125 -4.3403,-6.68279 -2.38183,-4.24947 -2.93579,-6.89571 -2.14561,-10.25105 0.52685,-2.23722 0.85808,-2.57419 3.08663,-3.14452 1.42824,-0.36551 1.90244,-0.83646 1.13843,-1.12964 -0.69947,-0.26842 -3.31591,0.47598 -4.15478,1.18184 l -0.76481,0.64337 -0.59945,-0.56379 c -0.90786,-0.85289 -1.49096,-0.73704 -1.49396,0.29662 -0.001,0.47294 -0.12381,2.52678 -0.27182,4.56406 -0.148,2.03729 -0.28336,6.74027 -0.30076,10.45105 -0.0174,3.71077 -0.12893,7.46124 -0.24805,8.33437 -0.11913,0.87312 -0.29649,2.24235 -0.39429,3.04271 -0.27808,2.27607 -0.30588,2.29952 -2.45876,2.10219 -1.0246,-0.0939 -2.04546,-0.32227 -2.2686,-0.50746 -0.64696,-0.53693 -0.47587,-1.71927 0.52038,-3.5972 0.50932,-0.96006 0.92605,-1.92801 0.92605,-2.15077 0,-0.22277 0.22701,-0.83771 0.50436,-1.36684 1.13026,-2.15637 1.34319,-14.81965 0.3855,-22.92263 -0.0516,-0.43656 -0.1488,-3.24484 -0.216,-6.24045 -0.0944,-4.21136 -0.36456,-7.07775 -0.86403,-9.04906 h -1.07642 c 0.0636,0.25819 0.12804,0.51802 0.18707,0.73742 0.60978,2.26663 1.17669,7.08272 0.92655,7.87084 -0.13089,0.41238 0.23247,5.63464 0.55708,8.00416 0.0598,0.43656 0.18642,3.47266 0.28112,6.74688 0.20469,7.07958 -0.17747,12.90187 -0.96015,14.62598 -0.27888,0.61433 -0.51287,1.35485 -0.51987,1.64589 -0.007,0.29104 -0.42612,1.17835 -0.93172,1.97197 -1.52279,2.39028 -1.11491,4.45399 0.98598,4.98781 1.85749,0.47192 2.97718,0.59643 3.83026,0.42581 l 0.8046,-0.16071 0.31523,-3.61218 c 0.17348,-1.98683 0.36458,-4.14847 0.42478,-4.80332 0.0602,-0.65484 0.17863,-5.06016 0.26303,-9.78958 0.18345,-10.276 0.27125,-11.02702 1.16014,-9.95599 0.2027,0.24428 0.24772,1.08724 0.13849,2.57969 -0.20989,2.86796 0.31503,5.37299 1.70274,8.12509 1.22484,2.42909 3.03757,5.39397 4.08502,6.68176 1.5195,1.86817 3.56942,4.87984 3.45199,5.07152 -0.067,0.1094 -0.56121,0.13051 -1.09813,0.0465 -0.53692,-0.084 -1.75007,-0.0153 -2.69596,0.15296 -0.94589,0.16825 -2.01745,0.33524 -2.38125,0.37104 -1.61343,0.1588 -2.91328,1.72239 -2.90628,3.49539 0.005,1.14823 0.15424,1.45938 0.92191,1.91616 0.68804,0.4094 3.51622,0.21782 5.42396,-0.36742 2.93313,-0.90009 4.6973,-1.1329 6.82439,-0.90123 1.12145,0.12214 3.40837,0.34268 5.08186,0.48989 1.67348,0.14721 4.16444,0.37623 5.53558,0.50901 3.03017,0.29345 4.03576,-0.0111 4.71134,-1.42781 0.30897,-0.64792 0.56556,-0.87976 0.85214,-0.76895 3.08816,1.1942 8.17799,0.33615 12.31656,-2.07636 2.44766,-1.42681 4.52946,-3.78463 6.60322,-7.47913 1.11073,-1.97884 1.27504,-2.49516 1.61023,-5.04878 0.36768,-2.80117 0.23172,-5.3376 -0.38809,-7.23419 -0.11889,-0.3638 -0.53757,-1.79255 -0.93069,-3.175 -1.86501,-6.55846 -2.42393,-8.24375 -3.07113,-9.26041 -0.13896,-0.21828 -0.37498,-0.68154 -0.52451,-1.02991 -0.25467,-0.59331 -1.55186,-2.37117 -2.30271,-3.15588 -0.18399,-0.19229 -0.33486,-0.46915 -0.33486,-0.61495 0,-0.14584 -0.19688,-0.22632 -0.4377,-0.17932 -0.27418,0.0536 -0.45904,0.38196 -0.49454,0.87902 -0.0547,0.76626 -0.54968,3.21911 -1.14774,5.68854 -0.72008,2.97321 -2.16783,10.39859 -2.42465,12.43541 -0.52692,4.17903 -1.12991,5.80299 -2.97657,8.01864 -1.32431,1.58892 -4.38707,4.2093 -4.77077,4.0814 -0.42756,-0.14252 -0.6884,-1.33613 -0.96841,-4.42712 -0.13841,-1.52797 -0.31331,-3.18834 -0.38861,-3.6897 -0.39513,-2.63016 -2.17537,-6.91745 -4.20698,-10.1322 -0.48365,-0.76532 -0.95615,-1.60078 -1.04955,-1.85673 -0.0934,-0.25594 -1.07289,-1.5166 -2.17712,-2.80138 -2.05267,-2.38828 -4.27264,-5.36915 -5.05499,-6.7877 -0.24077,-0.43656 -0.9301,-1.44859 -1.53169,-2.24896 -1.31759,-1.75293 -2.27109,-3.22475 -2.94711,-4.57388 -2.89049,-6.808982 -4.82666,-14.304731 -8.76368,-20.646046 z"
         sodipodi:nodetypes="ccssssssssssscssssssssssssssssssscssssssccccssscssssssccccsscsssccccscsssssssscscsssscssssssssscsssssscsssssccc" /><path
         style="fill:#000000;stroke:#000000;stroke-width:0.264583px;stroke-linecap:butt;stroke-linejoin:miter;stroke-opacity:1"
         d="m 154.92561,47.270614 c -0.43113,-0.329157 -1.03069,-0.339803 -1.49384,-0.613761 -0.43512,-0.257844 -0.86429,-0.501425 -1.33234,-0.690022 -0.68709,-0.276838 -0.90593,-0.881371 -1.68456,-0.808073 -0.60491,0.05695 -1.05587,0.304421 -1.49977,0.716766 -0.18249,0.169505 -0.57012,0.894226 -0.16251,0.697831 0.47551,-0.229111 0.96021,-0.588704 1.478,-0.681069 0.73058,-0.13031 1.02031,0.374892 1.6358,0.564312 0.71479,0.220001 0.67257,0.277346 1.1816,0.557554 0.425,0.233971 1.47503,0.504842 1.84105,0.824654 0.34147,0.298393 0.8449,0.384269 1.25481,0.19582 0.32924,-0.151362 0.25347,0.07141 0.4962,-0.36777 0.19439,-0.351745 0.0261,-0.683074 -0.60303,-0.379815 -0.45067,0.217229 -0.65344,0.333223 -1.11141,-0.01642 z"
         id="path591-1"
         sodipodi:nodetypes="sssssssssssssss" /><path
         id="path652-2"
         style="fill:#000000;stroke:none;stroke-width:0.245665;-inkscape-stroke:none;stop-color:#000000"
         d="m 187.3477,33.667312 c -0.35495,0.179962 -0.89235,0.517251 -1.45303,0.92159 -1.59899,1.153186 -2.39174,1.850283 -4.9314,4.337056 -0.33419,0.327222 -0.69642,0.644551 -1.01813,0.899394 l 0.39843,0.769009 c 0.73464,-0.477906 1.45817,-1.166558 2.30317,-2.172198 0.70979,-0.84475 4.09288,-3.638601 4.44658,-3.672056 0.0849,-0.008 0.18242,0.133341 0.21669,0.314919 0.0926,0.490539 -1.98424,8.695512 -2.42498,10.056582 -0.085,0.262409 -0.14245,0.483444 -0.17526,0.66819 l 1.33338,-0.69083 c -0.006,-0.0014 -0.0117,-0.0037 -0.0148,-0.0062 -0.14951,-0.125373 1.54246,-6.742521 1.95804,-8.357333 0.33203,-1.290191 0.21043,-2.971957 -0.23119,-3.202871 -0.0473,-0.02493 -0.19439,0.02682 -0.40738,0.134818 z"
         sodipodi:nodetypes="ccsccsscccccsscc" /></g><g
       id="g1673"
       transform="translate(-19.283068,-6.573481)"><path
         style="fill:#000000;stroke:none;stroke-width:0.245665;-inkscape-stroke:none;stop-color:#000000"
         d="m 280.0392,36.168981 c -0.0487,0.0715 0.0412,0.113062 0.24065,0.167156 0.39463,0.107025 0.3974,0.243912 0.0234,1.142224 -0.23373,0.561357 -0.33641,1.063115 -0.22819,1.115007 0.10822,0.05189 0.23759,-0.01573 0.28745,-0.150273 0.0498,-0.134553 0.18682,-0.198522 0.30424,-0.142213 0.12312,0.05904 0.0616,0.334466 -0.14483,0.650803 -0.38376,0.587818 -0.0648,0.974043 0.55736,0.675202 0.34061,-0.163623 0.35637,-0.130203 0.73647,1.529737 l 0.18535,0.809127 0.25628,-0.669395 c 0.30404,-0.794121 0.54359,-0.753919 0.65648,0.109967 0.0948,0.725474 0.59682,0.756703 0.65938,0.04102 0.0252,-0.286821 0.28106,-0.582783 0.62953,-0.7273 0.32295,-0.133971 0.59161,-0.255872 0.5973,-0.271221 0.006,-0.01599 -0.50459,-1.131613 -1.44414,-2.07919 -0.93955,-0.947578 -1.85836,-1.65773 -1.76237,-1.916756 0.28985,-0.782077 -0.11751,-1.049419 -0.96307,-0.632287 -0.35536,0.175292 -0.54257,0.276848 -0.59122,0.348416 z"
         id="path596-3"
         sodipodi:nodetypes="cssscscsccsscccccscc" /><path
         style="fill:#000000;stroke:none;stroke-width:0.245665;-inkscape-stroke:none;stop-color:#000000"
         d="m 290.33825,34.888131 c -1.01148,-0.721208 -1.88904,-0.998903 -3.32144,-1.203414 -1.74499,-0.24912 -5.21908,-0.08368 -5.677,0.270317 -0.11607,0.08967 -2.73105,0.171454 -3.24558,0.101501 -2.19763,-0.298741 -6.30877,-3.179371 -14.11999,-8.011227 -0.60395,-0.373598 -0.75546,-0.466626 -1.15376,-0.127348 l 4.3e-4,3.03e-4 c -0.13281,0.113061 -0.29266,0.27386 -0.5061,0.488696 -0.88773,0.893623 -1.61931,2.050644 -1.62459,2.570077 -0.002,0.165415 0.17445,0.58977 0.39073,0.943082 0.21646,0.35317 0.38821,0.955139 0.38177,1.338295 -0.008,0.468433 0.21211,0.969709 0.67074,1.528577 1.82625,1.400487 5.56504,4.933452 6.17982,5.960869 0.17076,0.285391 -0.6192,0.644861 -0.95501,0.607164 -0.43368,-0.04869 -2.71357,-2.073652 -3.62197,-2.943799 -0.46226,-0.44414 -1.0118,-0.967232 -1.22122,-1.162526 -0.43561,-0.406318 -1.48893,-0.284618 -1.5969,0.184616 -0.0393,0.171107 0.56664,1.326863 1.34606,2.568584 1.43317,2.281949 3.67287,4.528184 5.68047,5.723592 0.52881,0.314868 1.35146,1.039186 1.82789,1.60943 0.47642,0.570258 1.17684,1.189451 1.557,1.376157 0.38018,0.186696 1.18905,0.833056 1.79735,1.43633 0.6083,0.603278 3.22959,1.604889 3.89403,2.215708 0.76608,0.704261 1.97244,2.217304 2.67626,3.509052 0.52231,0.958605 0.75825,2.047675 1.11133,3.080662 0.33215,0.971747 0.76123,1.844147 0.94714,2.931625 l 1.00401,-0.197751 c 0.0861,-0.380711 -0.59746,-1.681033 -0.91113,-2.516035 -0.43516,-1.158371 -0.73591,-2.383191 -1.34675,-3.459322 -0.89854,-1.582975 -2.21387,-3.281633 -3.35358,-4.309536 -1.13972,-1.027926 -3.77718,-2.100599 -3.95774,-2.383885 -0.18056,-0.283281 -0.68094,-0.65446 -1.11226,-0.824629 -0.43131,-0.170182 -1.18075,-0.774633 -1.66534,-1.343755 -0.4846,-0.569142 -1.69204,-1.599076 -2.68299,-2.288147 -1.96861,-1.369006 -3.803,-3.22247 -5.10357,-5.378065 -0.97735,-1.619914 -0.76657,-2.019167 0.36926,-0.699742 1.48997,1.423189 2.797,2.55039 3.73014,3.241081 0.94678,0.194592 1.04625,0.218939 1.35495,-0.0197 0.29165,-0.225453 0.91141,-0.850198 0.64551,-1.189616 -0.1962,-0.250367 -0.69599,-0.857656 -1.04711,-1.309902 -2.24349,-2.383686 -3.05951,-2.491033 -4.91642,-5.071273 -0.38794,-0.621723 -0.47708,-1.118195 -0.35403,-1.966629 0.29773,-2.052678 0.78353,-2.2892 1.91202,-0.929463 0.38833,0.467902 0.84328,0.78177 1.03955,0.716679 0.52087,-0.172751 0.69812,-1.004144 0.3409,-1.599539 -0.20698,-0.344941 0.36047,-0.0951 1.65606,0.728964 7.03392,4.473977 9.18948,6.21178 16.02638,5.393717 3.33229,-0.398712 5.96356,0.355151 7.93534,2.273764 0.34335,0.334091 0.7195,0.619053 1.15492,0.869788 l 0.50407,-0.704305 c -0.40267,-0.18433 -0.71848,-0.35965 -0.84099,-0.477343 -0.70219,-0.674515 -1.26886,-1.173913 -1.79868,-1.551668 z"
         id="rect519-6"
         sodipodi:nodetypes="ssccscccscccssccccsssssaaccaasssscsccscccssssssscccss" /><path
         id="path521-7"
         style="fill:#000000;stroke-width:0.264583"
         d="m 294.01776,43.787886 c 2.38204,5.043414 4.12448,10.457177 6.07058,15.432316 0.558,1.209876 1.22451,2.424259 1.84898,3.299023 0.48624,0.68112 1.34937,1.931276 1.91772,2.778125 0.56835,0.846839 1.25581,1.83709 1.52755,2.200899 0.27173,0.3638 0.89824,1.256776 1.39268,1.984375 0.49443,0.7276 1.68272,2.204908 2.64015,3.282487 0.95742,1.077579 1.74046,2.109274 1.74046,2.292884 0,0.1836 0.0968,0.373696 0.21498,0.422196 0.11814,0.04851 0.92995,1.278475 1.80402,2.733683 2.98029,4.961755 3.91306,7.937159 4.47725,14.282333 0.21972,2.471086 0.5039,4.597716 0.63148,4.725296 0.52368,0.52368 5.83008,-4.127678 7.54269,-6.611486 0.83918,-1.217079 1.85105,-5.04734 2.11149,-7.990727 0.0818,-0.924009 0.52301,-3.305258 0.98031,-5.291666 0.4573,-1.986408 0.92623,-4.206984 1.0418,-4.934583 0.20371,-1.282689 1.31826,-5.697466 1.50016,-5.941756 0.19266,-0.25873 1.48862,1.530976 2.36781,3.270085 0.92165,1.823078 1.81705,4.286149 2.558,7.037296 0.21555,0.800369 0.64195,2.288653 0.94773,3.307292 1.10002,3.664566 1.38628,6.093194 1.04439,8.863541 -0.37409,3.031127 -1.19317,4.934804 -3.38068,7.858434 -1.86412,2.49142 -2.58758,3.16806 -4.67412,4.370787 -2.19903,1.26757 -4.43043,1.99574 -6.7629,2.20711 -2.17912,0.19745 -4.75921,-0.20623 -5.27254,-0.82476 -0.17452,-0.21029 -0.54069,-0.38241 -0.81391,-0.38241 -0.40167,0 -0.49712,0.19907 -0.49712,1.03922 0,1.51517 -0.91542,2.18064 -2.74557,1.99574 -0.74551,-0.0753 -2.24844,-0.18823 -3.33985,-0.25063 -1.09141,-0.0624 -3.53219,-0.26288 -5.42396,-0.44545 -4.97078,-0.47971 -6.75771,-0.40087 -9.525,0.41961 -4.30961,1.27777 -5.95312,1.12631 -5.95312,-0.5488 0,-1.86289 0.80048,-2.46519 3.96875,-2.9869 1.38851,-0.22862 2.52788,-0.25301 3.7946,-0.0811 1.35137,0.18333 1.84116,0.16553 1.93166,-0.0703 0.16093,-0.41938 -1.25396,-2.733777 -3.06906,-5.019847 -1.74678,-2.20003 -2.33845,-3.111259 -4.3403,-6.682795 -2.38183,-4.249466 -2.93579,-6.895707 -2.14561,-10.251054 0.52685,-2.237218 0.85808,-2.574182 3.08663,-3.144511 1.42824,-0.36551 1.90244,-0.836467 1.13843,-1.129647 -0.69947,-0.26842 -3.31591,0.475981 -4.15478,1.18184 l -0.76481,0.643372 -0.59945,-0.56379 c -0.90786,-0.852889 -1.49096,-0.737036 -1.49396,0.296623 -10e-4,0.472939 -0.12381,2.526774 -0.27182,4.564062 -0.148,2.037288 -0.28336,6.740265 -0.30076,10.451042 -0.0174,3.710778 -0.12893,7.461248 -0.24805,8.334378 -0.11913,0.873117 -0.29649,2.242347 -0.39429,3.042707 -0.27808,2.27607 -0.30588,2.29952 -2.45876,2.10219 -1.0246,-0.0939 -2.04546,-0.32227 -2.2686,-0.50746 -0.64696,-0.53693 -0.47587,-1.71927 0.52038,-3.5972 0.50932,-0.960057 0.92605,-1.928007 0.92605,-2.150767 0,-0.22277 0.22701,-0.83771 0.50436,-1.36684 1.13026,-2.15637 1.34319,-14.819651 0.3855,-22.922633 -0.0516,-0.43656 -0.1488,-3.244839 -0.216,-6.240446 -0.0944,-4.211366 -0.36456,-7.077758 -0.86403,-9.04906 l -1.07642,-3e-6 c 0.0636,0.258191 0.12804,0.51802 0.18707,0.737422 0.60978,2.266628 1.17669,7.082719 0.92655,7.870838 -0.13089,0.412379 0.23247,5.634635 0.55708,8.004162 0.0598,0.43656 0.18642,3.472659 0.28112,6.746875 0.20469,7.079583 -0.17747,12.901875 -0.96015,14.625985 -0.27888,0.61433 -0.51287,1.35485 -0.51987,1.64589 -0.007,0.29104 -0.42612,1.178347 -0.93172,1.971967 -1.52279,2.39028 -1.11491,4.45399 0.98598,4.98781 1.85749,0.47192 2.97718,0.59643 3.83026,0.42581 l 0.8046,-0.16071 0.31523,-3.61218 c 0.17348,-1.98683 0.36458,-4.148467 0.42478,-4.803317 0.0602,-0.65484 0.17863,-5.060163 0.26303,-9.789588 0.18345,-10.276 0.27125,-11.02702 1.16014,-9.955981 0.2027,0.244279 0.24772,1.087239 0.13849,2.579687 -0.20989,2.867957 0.31503,5.372988 1.70274,8.125086 1.22484,2.429097 3.03757,5.393976 4.08502,6.681766 1.5195,1.86817 3.56942,4.879837 3.45199,5.071517 -0.067,0.1094 -0.56121,0.13051 -1.09813,0.0465 -0.53692,-0.084 -1.75007,-0.0153 -2.69596,0.15296 -0.94589,0.16825 -2.01745,0.33524 -2.38125,0.37104 -1.61343,0.1588 -2.91328,1.72239 -2.90628,3.49539 0.005,1.14823 0.15424,1.45938 0.92191,1.91616 0.68804,0.4094 3.51622,0.21782 5.42396,-0.36742 2.93313,-0.90009 4.6973,-1.1329 6.82439,-0.90123 1.12145,0.12214 3.40837,0.34268 5.08186,0.48989 1.67348,0.14721 4.16444,0.37623 5.53558,0.50901 3.03017,0.29345 4.03576,-0.0111 4.71134,-1.42781 0.30897,-0.64792 0.56556,-0.87976 0.85214,-0.76895 3.08816,1.1942 8.17798,0.33615 12.31656,-2.07636 2.44765,-1.42681 4.52945,-3.784627 6.60321,-7.479127 1.11073,-1.978847 1.27504,-2.495159 1.61023,-5.048786 0.36768,-2.801168 0.23172,-5.337596 -0.38809,-7.234184 -0.11889,-0.3638 -0.53757,-1.792552 -0.93069,-3.175 -1.86501,-6.558464 -2.42393,-8.243758 -3.07113,-9.260417 -0.13896,-0.21828 -0.37498,-0.681542 -0.52451,-1.029911 -0.25467,-0.59331 -1.55186,-2.371161 -2.30271,-3.15588 -0.18399,-0.19229 -0.33486,-0.46915 -0.33486,-0.614949 0,-0.14584 -0.19688,-0.226318 -0.4377,-0.179318 -0.27418,0.05357 -0.45904,0.381957 -0.49454,0.879016 -0.0547,0.76626 -0.54968,3.219115 -1.14774,5.688542 -0.72008,2.973217 -2.16783,10.398589 -2.42465,12.435417 -0.52692,4.179026 -1.12991,5.802984 -2.97656,8.018632 -1.32431,1.588928 -4.38707,4.209308 -4.77077,4.081408 -0.42756,-0.14252 -0.6884,-1.33613 -0.96841,-4.427124 -0.13841,-1.527968 -0.31331,-3.188337 -0.38861,-3.689697 -0.39513,-2.630167 -2.17537,-6.917451 -4.20698,-10.132198 -0.48365,-0.765329 -0.95615,-1.600784 -1.04955,-1.856734 -0.0934,-0.25594 -1.07289,-1.516601 -2.17712,-2.80138 -2.05267,-2.388277 -4.27264,-5.36915 -5.05499,-6.787699 -0.24077,-0.436559 -0.9301,-1.448589 -1.53169,-2.248958 -1.31759,-1.752933 -2.27109,-3.22475 -2.94711,-4.573881 -2.10823,-4.966259 -3.70879,-10.297863 -5.94829,-15.280413 z"
         sodipodi:nodetypes="ccssssssssssscssssssssssssssssssscssssssccccssscssssssccccsscsssccccscsssssssscscsssscssssssssscsssssscsssssccc" /><path
         style="fill:#000000;stroke:#000000;stroke-width:0.264583px;stroke-linecap:butt;stroke-linejoin:miter;stroke-opacity:1"
         d="m 266.56818,38.443686 c -0.2904,-0.458132 -0.8494,-0.675513 -1.18871,-1.093267 -0.31885,-0.39262 -0.63706,-0.769796 -1.01079,-1.108857 -0.54862,-0.49773 -0.85683,-1.047923 -1.46424,-1.426855 -0.5155,-0.321594 -1.09595,-0.609376 -1.65521,-0.376356 -0.22991,0.09579 -0.84461,0.641353 -0.3942,0.598322 0.52543,-0.05019 1.1047,0.309562 1.62242,0.402301 0.73048,0.130856 0.99121,0.790379 1.50295,1.181287 0.59433,0.453987 0.53486,0.493165 0.91528,0.932377 0.31763,0.366707 1.20879,0.984572 1.44136,1.411378 0.21696,0.398211 0.65947,0.653166 1.10927,0.618399 0.36129,-0.02794 0.21306,0.154762 0.59287,-0.173098 0.30421,-0.26262 0.26114,-0.631726 -0.4341,-0.565207 -0.49802,0.04765 -0.72842,0.08622 -1.0369,-0.400424 z"
         id="path591-5"
         sodipodi:nodetypes="ssssssssssssss" /><path
         id="path652-3"
         style="fill:#000000;stroke:none;stroke-width:0.245665;-inkscape-stroke:none;stop-color:#000000"
         d="m 301.65784,34.654028 c -0.39788,-0.0084 -1.03079,0.03606 -1.71582,0.128719 -1.95366,0.264277 -2.98128,0.505904 -6.39279,1.503643 -0.44891,0.131282 -0.91791,0.240638 -1.32172,0.313941 l -0.0107,0.866032 c 0.87315,-0.07562 1.83573,-0.342395 3.05475,-0.8316 1.02398,-0.410951 5.32415,-1.282384 5.65193,-1.145325 0.0787,0.03289 0.0981,0.203551 0.0429,0.379861 -0.14936,0.476328 -5.84546,6.736453 -6.87524,7.729593 -0.19857,0.19145 -0.35333,0.359393 -0.46928,0.506918 l 1.5016,0.01851 c -0.005,-0.004 -0.009,-0.0087 -0.0102,-0.0125 -0.0729,-0.180991 4.53599,-5.221643 5.66307,-6.450464 0.9005,-0.9818 1.58524,-2.522667 1.3044,-2.934351 -0.0301,-0.04412 -0.18414,-0.06787 -0.42287,-0.07291 z"
         sodipodi:nodetypes="ccsccsscccccsscc" /><path
         style="fill:#000000;stroke:none;stroke-width:0.245665;-inkscape-stroke:none;stop-color:#000000"
         d="m 290.33825,34.888131 c -1.01148,-0.721208 -1.88904,-0.998903 -3.32144,-1.203414 -1.74499,-0.24912 -5.21908,-0.08368 -5.677,0.270317 -0.11607,0.08967 -2.73105,0.171454 -3.24558,0.101501 -2.19763,-0.298741 -6.30877,-3.179371 -14.11999,-8.011227 -0.60395,-0.373598 -0.75546,-0.466626 -1.15376,-0.127348 l 4.3e-4,3.03e-4 c -0.13281,0.113061 -0.29266,0.27386 -0.5061,0.488696 -0.88773,0.893623 -1.61931,2.050644 -1.62459,2.570077 -0.002,0.165415 0.17445,0.58977 0.39073,0.943082 0.21646,0.35317 0.38821,0.955139 0.38177,1.338295 -0.008,0.468433 0.21211,0.969709 0.67074,1.528577 1.82625,1.400487 5.56504,4.933452 6.17982,5.960869 0.17076,0.285391 -0.6192,0.644861 -0.95501,0.607164 -0.43368,-0.04869 -2.71357,-2.073652 -3.62197,-2.943799 -0.46226,-0.44414 -1.0118,-0.967232 -1.22122,-1.162526 -0.43561,-0.406318 -1.48893,-0.284618 -1.5969,0.184616 -0.0393,0.171107 0.56664,1.326863 1.34606,2.568584 1.43317,2.281949 3.67287,4.528184 5.68047,5.723592 0.52881,0.314868 1.35146,1.039186 1.82789,1.60943 0.47642,0.570258 1.17684,1.189451 1.557,1.376157 0.38018,0.186696 1.18905,0.833056 1.79735,1.43633 0.6083,0.603278 3.22959,1.604889 3.89403,2.215708 0.76608,0.704261 1.97244,2.217304 2.67626,3.509052 0.52231,0.958605 0.75825,2.047675 1.11133,3.080662 0.33215,0.971747 0.76123,1.844147 0.94714,2.931625 l 1.00401,-0.197751 c 0.0861,-0.380711 -0.59746,-1.681033 -0.91113,-2.516035 -0.43516,-1.158371 -0.73591,-2.383191 -1.34675,-3.459322 -0.89854,-1.582975 -2.21387,-3.281633 -3.35358,-4.309536 -1.13972,-1.027926 -3.77718,-2.100599 -3.95774,-2.383885 -0.18056,-0.283281 -0.68094,-0.65446 -1.11226,-0.824629 -0.43131,-0.170182 -1.18075,-0.774633 -1.66534,-1.343755 -0.4846,-0.569142 -1.69204,-1.599076 -2.68299,-2.288147 -1.96861,-1.369006 -3.803,-3.22247 -5.10357,-5.378065 -0.97735,-1.619914 -0.76657,-2.019167 0.36926,-0.699742 1.48997,1.423189 2.797,2.55039 3.73014,3.241081 0.94678,0.194592 1.04625,0.218939 1.35495,-0.0197 0.29165,-0.225453 0.91141,-0.850198 0.64551,-1.189616 -0.1962,-0.250367 -0.69599,-0.857656 -1.04711,-1.309902 -2.24349,-2.383686 -3.05951,-2.491033 -4.91642,-5.071273 -0.38794,-0.621723 -0.47708,-1.118195 -0.35403,-1.966629 0.29773,-2.052678 0.78353,-2.2892 1.91202,-0.929463 0.38833,0.467902 0.84328,0.78177 1.03955,0.716679 0.52087,-0.172751 0.69812,-1.004144 0.3409,-1.599539 -0.20698,-0.344941 0.36047,-0.0951 1.65606,0.728964 7.03392,4.473977 9.18948,6.21178 16.02638,5.393717 3.33229,-0.398712 5.96356,0.355151 7.93534,2.273764 0.34335,0.334091 0.7195,0.619053 1.15492,0.869788 l 0.50407,-0.704305 c -0.40267,-0.18433 -0.71848,-0.35965 -0.84099,-0.477343 -0.70219,-0.674515 -1.26886,-1.173913 -1.79868,-1.551668 z"
         id="path1087"
         sodipodi:nodetypes="ssccscccscccssccccsssssaaccaasssscsccscccssssssscccss" /></g><g
       id="g1685"
       transform="translate(-26.304947,-7.225581)"><path
         id="path1115"
         style="fill:#cccccc;stroke-width:0.264583"
         d="m 411.03964,44.439994 c 2.38204,5.04341 4.12448,10.45717 6.07058,15.43231 0.558,1.20988 1.22451,2.42426 1.84898,3.29903 0.48624,0.68112 1.34937,1.93127 1.91772,2.77812 0.56835,0.84684 1.25581,1.83709 1.52755,2.2009 0.27173,0.3638 0.89824,1.25678 1.39268,1.98438 0.49443,0.7276 1.68272,2.2049 2.64015,3.28248 0.95742,1.07758 1.74046,2.10928 1.74046,2.29289 0,0.1836 0.0968,0.37369 0.21498,0.42219 0.11814,0.0485 0.92995,1.27848 1.80402,2.73369 2.98029,4.96175 3.91306,7.93715 4.47725,14.28233 0.21972,2.47108 0.5039,4.59771 0.63148,4.72529 0.52368,0.52368 5.83008,-4.12767 7.54269,-6.61148 0.83918,-1.21708 1.85105,-5.04734 2.11149,-7.99073 0.0818,-0.92401 0.52301,-3.30526 0.98031,-5.29166 0.4573,-1.98641 0.92623,-4.20699 1.0418,-4.93459 0.20371,-1.28269 1.31826,-5.69746 1.50016,-5.94175 0.19266,-0.25873 1.48862,1.53097 2.36781,3.27008 0.92165,1.82308 1.81705,4.28615 2.558,7.0373 0.21555,0.80037 0.64195,2.28865 0.94773,3.30729 1.10002,3.66457 1.38628,6.09319 1.04439,8.86354 -0.37409,3.03113 -1.19317,4.9348 -3.38068,7.85843 -1.86412,2.49142 -2.58758,3.168056 -4.67412,4.370786 -2.19903,1.26757 -4.43043,1.99574 -6.7629,2.20711 -2.17912,0.19745 -4.75921,-0.20623 -5.27254,-0.82476 -0.17452,-0.21029 -0.54069,-0.38241 -0.81391,-0.38241 -0.40167,0 -0.49712,0.19907 -0.49712,1.03922 0,1.51517 -0.91542,2.18064 -2.74557,1.99574 -0.74551,-0.0753 -2.24844,-0.18823 -3.33985,-0.25063 -1.09141,-0.0624 -3.53219,-0.26288 -5.42396,-0.44545 -4.97078,-0.47971 -6.75771,-0.40087 -9.525,0.41961 -4.30961,1.27777 -5.95312,1.12631 -5.95312,-0.5488 0,-1.86289 0.80048,-2.46519 3.96875,-2.9869 1.38851,-0.22862 2.52788,-0.25301 3.7946,-0.0811 1.35137,0.18333 1.84116,0.16553 1.93166,-0.0703 0.16093,-0.41938 -1.25396,-2.733776 -3.06906,-5.019846 -1.74678,-2.20003 -2.33845,-3.11125 -4.3403,-6.68279 -2.38183,-4.24947 -2.93579,-6.89571 -2.14561,-10.25105 0.52685,-2.23722 0.85808,-2.57419 3.08663,-3.14452 1.42824,-0.36551 1.90244,-0.83646 1.13843,-1.12964 -0.69947,-0.26842 -3.31591,0.47598 -4.15478,1.18184 l -0.76481,0.64337 -0.59945,-0.56379 c -0.90786,-0.85289 -1.49096,-0.73704 -1.49396,0.29662 -0.001,0.47294 -0.12381,2.52678 -0.27182,4.56406 -0.148,2.03729 -0.28336,6.74027 -0.30076,10.45105 -0.0174,3.71077 -0.12893,7.46124 -0.24805,8.334376 -0.11913,0.87311 -0.29649,2.24234 -0.39429,3.0427 -0.27808,2.27607 -0.30588,2.29952 -2.45876,2.10219 -1.0246,-0.0939 -2.04546,-0.32227 -2.2686,-0.50746 -0.64696,-0.53693 -0.47587,-1.71927 0.52038,-3.5972 0.50932,-0.96006 0.92605,-1.928006 0.92605,-2.150766 0,-0.22277 0.22701,-0.83771 0.50436,-1.36684 1.13026,-2.15637 1.34319,-14.81965 0.3855,-22.92263 -0.0516,-0.43656 -0.1488,-3.24484 -0.216,-6.24044 -0.0944,-4.21137 -0.36456,-7.07776 -0.86403,-9.04906 l -1.07642,-10e-6 c 0.0636,0.25819 0.12804,0.51802 0.18707,0.73742 0.60978,2.26663 1.17669,7.08272 0.92655,7.87084 -0.13089,0.41238 0.23247,5.63464 0.55708,8.00416 0.0598,0.43656 0.18642,3.47266 0.28112,6.74688 0.20469,7.07958 -0.17747,12.90187 -0.96015,14.62598 -0.27888,0.61433 -0.51287,1.35485 -0.51987,1.64589 -0.007,0.29104 -0.42612,1.178346 -0.93172,1.971966 -1.52279,2.39028 -1.11491,4.45399 0.98598,4.98781 1.85749,0.47192 2.97718,0.59643 3.83026,0.42581 l 0.8046,-0.16071 0.31523,-3.61218 c 0.17348,-1.98683 0.36458,-4.148456 0.42478,-4.803316 0.0602,-0.65483 0.17863,-5.06016 0.26303,-9.78958 0.18345,-10.276 0.27125,-11.02702 1.16014,-9.95598 0.2027,0.24428 0.24772,1.08724 0.13849,2.57968 -0.20989,2.86796 0.31503,5.37299 1.70274,8.12509 1.22484,2.4291 3.03757,5.39397 4.08502,6.68176 1.5195,1.86817 3.56942,4.879836 3.45199,5.071516 -0.067,0.1094 -0.56121,0.13051 -1.09813,0.0465 -0.53692,-0.084 -1.75007,-0.0153 -2.69596,0.15296 -0.94589,0.16825 -2.01745,0.33524 -2.38125,0.37104 -1.61343,0.1588 -2.91328,1.72239 -2.90628,3.49539 0.005,1.14823 0.15424,1.45938 0.92191,1.91616 0.68804,0.4094 3.51622,0.21782 5.42396,-0.36742 2.93313,-0.90009 4.6973,-1.1329 6.82439,-0.90123 1.12145,0.12214 3.40837,0.34268 5.08186,0.48989 1.67348,0.14721 4.16444,0.37623 5.53558,0.50901 3.03017,0.29345 4.03576,-0.0111 4.71134,-1.42781 0.30897,-0.64792 0.56556,-0.87976 0.85214,-0.76895 3.08816,1.1942 8.17798,0.33615 12.31656,-2.07636 2.44765,-1.42681 4.52945,-3.784616 6.60321,-7.479116 1.11073,-1.97885 1.27504,-2.49516 1.61023,-5.04879 0.36768,-2.80117 0.23172,-5.3376 -0.38809,-7.23418 -0.11889,-0.3638 -0.53757,-1.79256 -0.93069,-3.175 -1.86501,-6.55847 -2.42393,-8.24376 -3.07113,-9.26042 -0.13896,-0.21828 -0.37498,-0.68154 -0.52451,-1.02991 -0.25467,-0.59331 -1.55186,-2.37116 -2.30271,-3.15588 -0.18399,-0.19229 -0.33486,-0.46915 -0.33486,-0.61495 0,-0.14584 -0.19688,-0.22632 -0.4377,-0.17932 -0.27418,0.0536 -0.45904,0.38196 -0.49454,0.87902 -0.0547,0.76626 -0.54968,3.21911 -1.14774,5.68854 -0.72008,2.97322 -2.16783,10.39859 -2.42465,12.43542 -0.52692,4.17902 -1.12991,5.80298 -2.97656,8.01863 -1.32431,1.58893 -4.38707,4.20931 -4.77077,4.08141 -0.42756,-0.14252 -0.6884,-1.33613 -0.96841,-4.42713 -0.13841,-1.52797 -0.31331,-3.18834 -0.38861,-3.6897 -0.39513,-2.63016 -2.17537,-6.91745 -4.20698,-10.13219 -0.48365,-0.76533 -0.95615,-1.60079 -1.04955,-1.85674 -0.0934,-0.25594 -1.07289,-1.5166 -2.17712,-2.80138 -2.05267,-2.38827 -4.27264,-5.36915 -5.05499,-6.7877 -0.24077,-0.43656 -0.9301,-1.44859 -1.53169,-2.24895 -1.31759,-1.75294 -2.27109,-3.22475 -2.94711,-4.57389 -2.10823,-4.96625 -3.70879,-10.29786 -5.94829,-15.28041 z"
         sodipodi:nodetypes="ccssssssssssscssssssssssssssssssscssssssccccssscssssssccccsscsssccccscsssssssscscsssscssssssssscsssssscsssssccc" /><path
         id="path1119"
         style="fill:#cccccc;stroke:none;stroke-width:0.245665;-inkscape-stroke:none;stop-color:#000000"
         d="m 418.67972,35.306134 c -0.39788,-0.008 -1.03079,0.0361 -1.71582,0.12872 -1.95366,0.26428 -2.98128,0.5059 -6.39279,1.50364 -0.44891,0.13128 -0.91791,0.24064 -1.32172,0.31394 l -0.0107,0.86603 c 0.87315,-0.0756 1.83573,-0.34239 3.05475,-0.8316 1.02398,-0.41095 5.32415,-1.28238 5.65193,-1.14532 0.0787,0.0329 0.0981,0.20355 0.0429,0.37986 -0.14936,0.47633 -5.84546,6.73645 -6.87524,7.72959 -0.19857,0.19145 -0.35333,0.3594 -0.46928,0.50692 l 1.5016,0.0185 c -0.005,-0.004 -0.009,-0.009 -0.0102,-0.0125 -0.0729,-0.18099 4.53599,-5.22164 5.66307,-6.45046 0.9005,-0.9818 1.58524,-2.52267 1.3044,-2.93435 -0.0301,-0.0441 -0.18414,-0.0679 -0.42287,-0.0729 z"
         sodipodi:nodetypes="ccsccsscccccsscc" /><path
         id="path1125"
         style="fill:#cccccc;stroke-width:0.264583"
         d="m 411.03964,44.439994 c 2.38204,5.04341 4.12448,10.45717 6.07058,15.43231 0.558,1.20988 1.22451,2.42426 1.84898,3.29903 0.48624,0.68112 1.34937,1.93127 1.91772,2.77812 0.56835,0.84684 1.25581,1.83709 1.52755,2.2009 0.27173,0.3638 0.89824,1.25678 1.39268,1.98438 0.49443,0.7276 1.68272,2.2049 2.64015,3.28248 0.95742,1.07758 1.74046,2.10928 1.74046,2.29289 0,0.1836 0.0968,0.37369 0.21498,0.42219 0.11814,0.0485 0.92995,1.27848 1.80402,2.73369 2.98029,4.96175 3.91306,7.93715 4.47725,14.28233 0.21972,2.47108 0.5039,4.59771 0.63148,4.72529 0.52368,0.52368 5.83008,-4.12767 7.54269,-6.61148 0.83918,-1.21708 1.85105,-5.04734 2.11149,-7.99073 0.0818,-0.92401 0.52301,-3.30526 0.98031,-5.29166 0.4573,-1.98641 0.92623,-4.20699 1.0418,-4.93459 0.20371,-1.28269 1.31826,-5.69746 1.50016,-5.94175 0.19266,-0.25873 1.48862,1.53097 2.36781,3.27008 0.92165,1.82308 1.81705,4.28615 2.558,7.0373 0.21555,0.80037 0.64195,2.28865 0.94773,3.30729 1.10002,3.66457 1.38628,6.09319 1.04439,8.86354 -0.37409,3.03113 -1.19317,4.9348 -3.38068,7.85843 -1.86412,2.49142 -2.58758,3.168056 -4.67412,4.370786 -2.19903,1.26757 -4.43043,1.99574 -6.7629,2.20711 -2.17912,0.19745 -4.75921,-0.20623 -5.27254,-0.82476 -0.17452,-0.21029 -0.54069,-0.38241 -0.81391,-0.38241 -0.40167,0 -0.49712,0.19907 -0.49712,1.03922 0,1.51517 -0.91542,2.18064 -2.74557,1.99574 -0.74551,-0.0753 -2.24844,-0.18823 -3.33985,-0.25063 -1.09141,-0.0624 -3.53219,-0.26288 -5.42396,-0.44545 -4.97078,-0.47971 -6.75771,-0.40087 -9.525,0.41961 -4.30961,1.27777 -5.95312,1.12631 -5.95312,-0.5488 0,-1.86289 0.80048,-2.46519 3.96875,-2.9869 1.38851,-0.22862 2.52788,-0.25301 3.7946,-0.0811 1.35137,0.18333 1.84116,0.16553 1.93166,-0.0703 0.16093,-0.41938 -1.25396,-2.733776 -3.06906,-5.019846 -1.74678,-2.20003 -2.33845,-3.11125 -4.3403,-6.68279 -2.38183,-4.24947 -2.93579,-6.89571 -2.14561,-10.25105 0.52685,-2.23722 0.85808,-2.57419 3.08663,-3.14452 1.42824,-0.36551 1.90244,-0.83646 1.13843,-1.12964 -0.69947,-0.26842 -3.31591,0.47598 -4.15478,1.18184 l -0.76481,0.64337 -0.59945,-0.56379 c -0.90786,-0.85289 -1.49096,-0.73704 -1.49396,0.29662 -0.001,0.47294 -0.12381,2.52678 -0.27182,4.56406 -0.148,2.03729 -0.28336,6.74027 -0.30076,10.45105 -0.0174,3.71077 -0.12893,7.46124 -0.24805,8.334376 -0.11913,0.87311 -0.29649,2.24234 -0.39429,3.0427 -0.27808,2.27607 -0.30588,2.29952 -2.45876,2.10219 -1.0246,-0.0939 -2.04546,-0.32227 -2.2686,-0.50746 -0.64696,-0.53693 -0.47587,-1.71927 0.52038,-3.5972 0.50932,-0.96006 0.92605,-1.928006 0.92605,-2.150766 0,-0.22277 0.22701,-0.83771 0.50436,-1.36684 1.13026,-2.15637 1.34319,-14.81965 0.3855,-22.92263 -0.0516,-0.43656 -0.1488,-3.24484 -0.216,-6.24044 -0.0944,-4.21137 -0.36456,-7.07776 -0.86403,-9.04906 l -1.07642,-10e-6 c 0.0636,0.25819 0.12804,0.51802 0.18707,0.73742 0.60978,2.26663 1.17669,7.08272 0.92655,7.87084 -0.13089,0.41238 0.23247,5.63464 0.55708,8.00416 0.0598,0.43656 0.18642,3.47266 0.28112,6.74688 0.20469,7.07958 -0.17747,12.90187 -0.96015,14.62598 -0.27888,0.61433 -0.51287,1.35485 -0.51987,1.64589 -0.007,0.29104 -0.42612,1.178346 -0.93172,1.971966 -1.52279,2.39028 -1.11491,4.45399 0.98598,4.98781 1.85749,0.47192 2.97718,0.59643 3.83026,0.42581 l 0.8046,-0.16071 0.31523,-3.61218 c 0.17348,-1.98683 0.36458,-4.148456 0.42478,-4.803316 0.0602,-0.65483 0.17863,-5.06016 0.26303,-9.78958 0.18345,-10.276 0.27125,-11.02702 1.16014,-9.95598 0.2027,0.24428 0.24772,1.08724 0.13849,2.57968 -0.20989,2.86796 0.31503,5.37299 1.70274,8.12509 1.22484,2.4291 3.03757,5.39397 4.08502,6.68176 1.5195,1.86817 3.56942,4.879836 3.45199,5.071516 -0.067,0.1094 -0.56121,0.13051 -1.09813,0.0465 -0.53692,-0.084 -1.75007,-0.0153 -2.69596,0.15296 -0.94589,0.16825 -2.01745,0.33524 -2.38125,0.37104 -1.61343,0.1588 -2.91328,1.72239 -2.90628,3.49539 0.005,1.14823 0.15424,1.45938 0.92191,1.91616 0.68804,0.4094 3.51622,0.21782 5.42396,-0.36742 2.93313,-0.90009 4.6973,-1.1329 6.82439,-0.90123 1.12145,0.12214 3.40837,0.34268 5.08186,0.48989 1.67348,0.14721 4.16444,0.37623 5.53558,0.50901 3.03017,0.29345 4.03576,-0.0111 4.71134,-1.42781 0.30897,-0.64792 0.56556,-0.87976 0.85214,-0.76895 3.08816,1.1942 8.17798,0.33615 12.31656,-2.07636 2.44765,-1.42681 4.52945,-3.784616 6.60321,-7.479116 1.11073,-1.97885 1.27504,-2.49516 1.61023,-5.04879 0.36768,-2.80117 0.23172,-5.3376 -0.38809,-7.23418 -0.11889,-0.3638 -0.53757,-1.79256 -0.93069,-3.175 -1.86501,-6.55847 -2.42393,-8.24376 -3.07113,-9.26042 -0.13896,-0.21828 -0.37498,-0.68154 -0.52451,-1.02991 -0.25467,-0.59331 -1.55186,-2.37116 -2.30271,-3.15588 -0.18399,-0.19229 -0.33486,-0.46915 -0.33486,-0.61495 0,-0.14584 -0.19688,-0.22632 -0.4377,-0.17932 -0.27418,0.0536 -0.45904,0.38196 -0.49454,0.87902 -0.0547,0.76626 -0.54968,3.21911 -1.14774,5.68854 -0.72008,2.97322 -2.16783,10.39859 -2.42465,12.43542 -0.52692,4.17902 -1.12991,5.80298 -2.97656,8.01863 -1.32431,1.58893 -4.38707,4.20931 -4.77077,4.08141 -0.42756,-0.14252 -0.6884,-1.33613 -0.96841,-4.42713 -0.13841,-1.52797 -0.31331,-3.18834 -0.38861,-3.6897 -0.39513,-2.63016 -2.17537,-6.91745 -4.20698,-10.13219 -0.48365,-0.76533 -0.95615,-1.60079 -1.04955,-1.85674 -0.0934,-0.25594 -1.07289,-1.5166 -2.17712,-2.80138 -2.05267,-2.38827 -4.27264,-5.36915 -5.05499,-6.7877 -0.24077,-0.43656 -0.9301,-1.44859 -1.53169,-2.24895 -1.31759,-1.75294 -2.27109,-3.22475 -2.94711,-4.57389 -2.10823,-4.96625 -3.70879,-10.29786 -5.94829,-15.28041 z"
         sodipodi:nodetypes="ccssssssssssscssssssssssssssssssscssssssccccssscssssssccccsscsssccccscsssssssscscsssscssssssssscsssssscsssssccc" /><path
         id="path1129"
         style="fill:#cccccc;stroke:none;stroke-width:0.245665;-inkscape-stroke:none;stop-color:#000000"
         d="m 418.67972,35.306134 c -0.39788,-0.008 -1.03079,0.0361 -1.71582,0.12872 -1.95366,0.26428 -2.98128,0.5059 -6.39279,1.50364 -0.44891,0.13128 -0.91791,0.24064 -1.32172,0.31394 l -0.0107,0.86603 c 0.87315,-0.0756 1.83573,-0.34239 3.05475,-0.8316 1.02398,-0.41095 5.32415,-1.28238 5.65193,-1.14532 0.0787,0.0329 0.0981,0.20355 0.0429,0.37986 -0.14936,0.47633 -5.84546,6.73645 -6.87524,7.72959 -0.19857,0.19145 -0.35333,0.3594 -0.46928,0.50692 l 1.5016,0.0185 c -0.005,-0.004 -0.009,-0.009 -0.0102,-0.0125 -0.0729,-0.18099 4.53599,-5.22164 5.66307,-6.45046 0.9005,-0.9818 1.58524,-2.52267 1.3044,-2.93435 -0.0301,-0.0441 -0.18414,-0.0679 -0.42287,-0.0729 z"
         sodipodi:nodetypes="ccsccsscccccsscc" /><path
         id="path521-7-9"
         style="fill:#000000;stroke-width:0.264583"
         d="m 411.03964,44.439994 c 2.38204,5.04341 4.12448,10.45717 6.07058,15.43231 0.558,1.20988 1.22451,2.42426 1.84898,3.29903 0.48624,0.68112 1.34937,1.93127 1.91772,2.77812 0.56835,0.84684 1.25581,1.83709 1.52755,2.2009 0.27173,0.3638 0.89824,1.25678 1.39268,1.98438 0.49443,0.7276 1.68272,2.2049 2.64015,3.28248 0.95742,1.07758 1.74046,2.10928 1.74046,2.29289 0,0.1836 0.0968,0.37369 0.21498,0.42219 0.11814,0.0485 0.92995,1.27848 1.80402,2.73369 2.98029,4.96175 3.91306,7.93715 4.47725,14.28233 0.21972,2.47108 0.5039,4.59771 0.63148,4.72529 0.52368,0.52368 5.83008,-4.12767 7.54269,-6.61148 0.83918,-1.21708 1.85105,-5.04734 2.11149,-7.99073 0.0818,-0.92401 0.52301,-3.30526 0.98031,-5.29166 0.4573,-1.98641 0.92623,-4.20699 1.0418,-4.93459 0.20371,-1.28269 1.31826,-5.69746 1.50016,-5.94175 0.19266,-0.25873 1.48862,1.53097 2.36781,3.27008 0.92165,1.82308 1.81705,4.28615 2.558,7.0373 0.21555,0.80037 0.64195,2.28865 0.94773,3.30729 1.10002,3.66457 1.38628,6.09319 1.04439,8.86354 -0.37409,3.03113 -1.19317,4.9348 -3.38068,7.85843 -1.86412,2.49142 -2.58758,3.168056 -4.67412,4.370786 -2.19903,1.26757 -4.43043,1.99574 -6.7629,2.20711 -2.17912,0.19745 -4.75921,-0.20623 -5.27254,-0.82476 -0.17452,-0.21029 -0.54069,-0.38241 -0.81391,-0.38241 -0.40167,0 -0.49712,0.19907 -0.49712,1.03922 0,1.51517 -0.91542,2.18064 -2.74557,1.99574 -0.74551,-0.0753 -2.24844,-0.18823 -3.33985,-0.25063 -1.09141,-0.0624 -3.53219,-0.26288 -5.42396,-0.44545 -4.97078,-0.47971 -6.75771,-0.40087 -9.525,0.41961 -4.30961,1.27777 -5.95312,1.12631 -5.95312,-0.5488 0,-1.86289 0.80048,-2.46519 3.96875,-2.9869 1.38851,-0.22862 2.52788,-0.25301 3.7946,-0.0811 1.35137,0.18333 1.84116,0.16553 1.93166,-0.0703 0.16093,-0.41938 -1.25396,-2.733776 -3.06906,-5.019846 -1.74678,-2.20003 -2.33845,-3.11125 -4.3403,-6.68279 -2.38183,-4.24947 -2.93579,-6.89571 -2.14561,-10.25105 0.52685,-2.23722 0.85808,-2.57419 3.08663,-3.14452 1.42824,-0.36551 1.90244,-0.83646 1.13843,-1.12964 -0.69947,-0.26842 -3.31591,0.47598 -4.15478,1.18184 l -0.76481,0.64337 -0.59945,-0.56379 c -0.90786,-0.85289 -1.49096,-0.73704 -1.49396,0.29662 -0.001,0.47294 -0.12381,2.52678 -0.27182,4.56406 -0.148,2.03729 -0.28336,6.74027 -0.30076,10.45105 -0.0174,3.71077 -0.12893,7.46124 -0.24805,8.334376 -0.11913,0.87311 -0.29649,2.24234 -0.39429,3.0427 -0.27808,2.27607 -0.30588,2.29952 -2.45876,2.10219 -1.0246,-0.0939 -2.04546,-0.32227 -2.2686,-0.50746 -0.64696,-0.53693 -0.47587,-1.71927 0.52038,-3.5972 0.50932,-0.96006 0.92605,-1.928006 0.92605,-2.150766 0,-0.22277 0.22701,-0.83771 0.50436,-1.36684 1.13026,-2.15637 1.34319,-14.81965 0.3855,-22.92263 -0.0516,-0.43656 -0.1488,-3.24484 -0.216,-6.24044 -0.0944,-4.21137 -0.36456,-7.07776 -0.86403,-9.04906 l -1.07642,-10e-6 c 0.0636,0.25819 0.12804,0.51802 0.18707,0.73742 0.60978,2.26663 1.17669,7.08272 0.92655,7.87084 -0.13089,0.41238 0.23247,5.63464 0.55708,8.00416 0.0598,0.43656 0.18642,3.47266 0.28112,6.74688 0.20469,7.07958 -0.17747,12.90187 -0.96015,14.62598 -0.27888,0.61433 -0.51287,1.35485 -0.51987,1.64589 -0.007,0.29104 -0.42612,1.178346 -0.93172,1.971966 -1.52279,2.39028 -1.11491,4.45399 0.98598,4.98781 1.85749,0.47192 2.97718,0.59643 3.83026,0.42581 l 0.8046,-0.16071 0.31523,-3.61218 c 0.17348,-1.98683 0.36458,-4.148456 0.42478,-4.803316 0.0602,-0.65483 0.17863,-5.06016 0.26303,-9.78958 0.18345,-10.276 0.27125,-11.02702 1.16014,-9.95598 0.2027,0.24428 0.24772,1.08724 0.13849,2.57968 -0.20989,2.86796 0.31503,5.37299 1.70274,8.12509 1.22484,2.4291 3.03757,5.39397 4.08502,6.68176 1.5195,1.86817 3.56942,4.879836 3.45199,5.071516 -0.067,0.1094 -0.56121,0.13051 -1.09813,0.0465 -0.53692,-0.084 -1.75007,-0.0153 -2.69596,0.15296 -0.94589,0.16825 -2.01745,0.33524 -2.38125,0.37104 -1.61343,0.1588 -2.91328,1.72239 -2.90628,3.49539 0.005,1.14823 0.15424,1.45938 0.92191,1.91616 0.68804,0.4094 3.51622,0.21782 5.42396,-0.36742 2.93313,-0.90009 4.6973,-1.1329 6.82439,-0.90123 1.12145,0.12214 3.40837,0.34268 5.08186,0.48989 1.67348,0.14721 4.16444,0.37623 5.53558,0.50901 3.03017,0.29345 4.03576,-0.0111 4.71134,-1.42781 0.30897,-0.64792 0.56556,-0.87976 0.85214,-0.76895 3.08816,1.1942 8.17798,0.33615 12.31656,-2.07636 2.44765,-1.42681 4.52945,-3.784616 6.60321,-7.479116 1.11073,-1.97885 1.27504,-2.49516 1.61023,-5.04879 0.36768,-2.80117 0.23172,-5.3376 -0.38809,-7.23418 -0.11889,-0.3638 -0.53757,-1.79256 -0.93069,-3.175 -1.86501,-6.55847 -2.42393,-8.24376 -3.07113,-9.26042 -0.13896,-0.21828 -0.37498,-0.68154 -0.52451,-1.02991 -0.25467,-0.59331 -1.55186,-2.37116 -2.30271,-3.15588 -0.18399,-0.19229 -0.33486,-0.46915 -0.33486,-0.61495 0,-0.14584 -0.19688,-0.22632 -0.4377,-0.17932 -0.27418,0.0536 -0.45904,0.38196 -0.49454,0.87902 -0.0547,0.76626 -0.54968,3.21911 -1.14774,5.68854 -0.72008,2.97322 -2.16783,10.39859 -2.42465,12.43542 -0.52692,4.17902 -1.12991,5.80298 -2.97656,8.01863 -1.32431,1.58893 -4.38707,4.20931 -4.77077,4.08141 -0.42756,-0.14252 -0.6884,-1.33613 -0.96841,-4.42713 -0.13841,-1.52797 -0.31331,-3.18834 -0.38861,-3.6897 -0.39513,-2.63016 -2.17537,-6.91745 -4.20698,-10.13219 -0.48365,-0.76533 -0.95615,-1.60079 -1.04955,-1.85674 -0.0934,-0.25594 -1.07289,-1.5166 -2.17712,-2.80138 -2.05267,-2.38827 -4.27264,-5.36915 -5.05499,-6.7877 -0.24077,-0.43656 -0.9301,-1.44859 -1.53169,-2.24895 -1.31759,-1.75294 -2.27109,-3.22475 -2.94711,-4.57389 -2.10823,-4.96625 -3.70879,-10.29786 -5.94829,-15.28041 z"
         sodipodi:nodetypes="ccssssssssssscssssssssssssssssssscssssssccccssscssssssccccsscsssccccscsssssssscscsssscssssssssscsssssscsssssccc" /><path
         id="path652-3-6"
         style="fill:#000000;stroke:none;stroke-width:0.245665;-inkscape-stroke:none;stop-color:#000000"
         d="m 418.67972,35.306134 c -0.39788,-0.008 -1.03079,0.0361 -1.71582,0.12872 -1.95366,0.26428 -2.98128,0.5059 -6.39279,1.50364 -0.44891,0.13128 -0.91791,0.24064 -1.32172,0.31394 l -0.0107,0.86603 c 0.87315,-0.0756 1.83573,-0.34239 3.05475,-0.8316 1.02398,-0.41095 5.32415,-1.28238 5.65193,-1.14532 0.0787,0.0329 0.0981,0.20355 0.0429,0.37986 -0.14936,0.47633 -5.84546,6.73645 -6.87524,7.72959 -0.19857,0.19145 -0.35333,0.3594 -0.46928,0.50692 l 1.5016,0.0185 c -0.005,-0.004 -0.009,-0.009 -0.0102,-0.0125 -0.0729,-0.18099 4.53599,-5.22164 5.66307,-6.45046 0.9005,-0.9818 1.58524,-2.52267 1.3044,-2.93435 -0.0301,-0.0441 -0.18414,-0.0679 -0.42287,-0.0729 z"
         sodipodi:nodetypes="ccsccsscccccsscc" /><path
         style="fill:#000000;stroke:none;stroke-width:0.245665;-inkscape-stroke:none;stop-color:#000000"
         d="m 403.23373,36.845465 c -0.0795,0.03405 -0.0265,0.117364 0.11293,0.270368 0.27511,0.302507 0.20378,0.419397 -0.59472,0.975464 -0.499,0.347487 -0.85546,0.71523 -0.79215,0.817191 0.0633,0.101967 0.20874,0.114551 0.32315,0.02795 0.11443,-0.08662 0.26427,-0.06686 0.33297,0.04378 0.072,0.115987 -0.12796,0.315104 -0.47218,0.470708 -0.63971,0.289088 -0.57861,0.786231 0.10664,0.869007 0.37514,0.0453 0.37046,0.08194 -0.20206,1.685724 l -0.27896,0.781801 0.57613,-0.42643 c 0.68348,-0.50588 0.86379,-0.343132 0.49425,0.445839 -0.31035,0.662566 0.0961,0.958945 0.53378,0.389283 0.17556,-0.228219 0.55042,-0.340089 0.92193,-0.274463 0.34431,0.06078 0.63636,0.102553 0.64941,0.09267 0.0134,-0.01036 0.008,-0.86776 -0.2746,-2.171974 -0.28229,-1.304212 -0.49916,-2.754727 -0.27891,-2.921449 0.66504,-0.503361 0.46545,-0.947855 -0.47171,-1.051081 -0.39385,-0.04339 -0.6063,-0.05848 -0.68582,-0.02433 z"
         id="path1101"
         sodipodi:nodetypes="cssscscsccsscccccscc" /><path
         style="fill:#000000;stroke:none;stroke-width:0.245665;-inkscape-stroke:none;stop-color:#000000"
         d="m 412.38745,39.606014 c -0.69451,-1.030002 -1.41905,-1.597681 -2.68888,-2.29131 -1.54696,-0.84498 -4.85861,-1.907817 -5.41156,-1.736772 -0.14015,0.04333 -2.61788,-0.796733 -3.07524,-1.042602 -1.95348,-1.050113 -5.2743,-5.969444 -10.89622,-13.232777 -0.43467,-0.561597 -0.54396,-0.701832 -1.03591,-0.523694 l 3e-4,4.32e-4 c -0.16402,0.05934 -0.3701,0.153899 -0.6453,0.280292 -1.14464,0.525749 -2.23537,1.352931 -2.4224,1.837553 -0.0599,0.154215 -0.0434,0.6135 0.0354,1.020206 0.0789,0.406636 0.0288,1.030617 -0.11155,1.3872 -0.17169,0.435914 -0.14131,0.982531 0.0924,1.666708 1.21947,1.951782 3.9629,7.351536 4.17853,8.529265 0.0599,0.327138 -0.80595,0.3869 -1.10724,0.233881 -0.3891,-0.197626 -2.29479,-3.673666 -2.84054,-4.807016 -0.27725,-0.577995 -0.60856,-1.260535 -0.73624,-1.516841 -0.26554,-0.533232 -1.2947,-0.788471 -1.5603,-0.386849 -0.0968,0.146467 0.0656,1.441296 0.36031,2.87744 0.54235,2.63953 2.33283,6.308723 3.79404,8.132006 0.38488,0.480253 0.90144,1.446978 1.14776,2.148039 0.2463,0.701077 0.68524,1.526497 0.97584,1.834617 0.29061,0.308108 0.82159,1.196988 1.17984,1.975218 0.35823,0.778228 2.35407,2.635121 2.76225,3.440091 0.4706,0.928107 1.30317,2.80425 1.91366,4.224511 0.54063,1.257737 1.07048,2.521078 1.5485,3.803918 0.31319,0.840497 0.40887,1.294936 0.86376,2.548458 l 1.00963,0.16672 c -0.0633,-0.565577 -0.60358,-2.200264 -0.97849,-3.276756 -0.47949,-1.37676 -1.02075,-2.733639 -1.62262,-4.061467 -0.65806,-1.451786 -1.46307,-2.898905 -2.17017,-4.261086 -0.70709,-1.362204 -2.80121,-3.291325 -2.87102,-3.619923 -0.0698,-0.328598 -0.40833,-0.851624 -0.75263,-1.162186 -0.3443,-0.310569 -0.83431,-1.139376 -1.08865,-1.842249 -0.25436,-0.702894 -1.02418,-2.090718 -1.71072,-3.083423 -1.36383,-1.9722 -2.91239,-5.13147 -3.37485,-7.606188 -0.34751,-1.859719 -0.0102,-2.159763 0.59111,-0.525908 0.89657,1.855166 2.20581,4.149403 2.83764,5.123361 0.8185,0.514115 0.90312,0.571787 1.27589,0.456496 0.35217,-0.108915 1.1516,-0.476784 1.02154,-0.887874 -0.096,-0.303248 -0.3512,-1.047197 -0.52152,-1.59383 -1.2656,-3.018845 -2.47247,-4.185826 -3.30712,-7.253253 -0.1454,-0.718258 -0.0549,-1.214483 0.35778,-1.96595 0.99837,-1.818081 1.53625,-1.869308 2.11652,-0.200274 0.19967,0.574332 0.51574,1.027761 0.72237,1.035598 0.54838,0.02083 1.00582,-0.69573 0.87996,-1.378559 -0.0729,-0.395605 0.37094,0.03728 1.29547,1.263203 5.01938,6.655695 6.90928,9.819222 13.59915,11.449582 3.26062,0.794643 5.4607,2.423003 6.63485,4.911043 0.20446,0.433247 0.45686,0.831977 0.77676,1.219435 l 0.71897,-0.482933 c -0.31251,-0.313782 -0.54683,-0.588678 -0.62031,-0.741844 -0.42121,-0.87785 -0.77687,-1.544197 -1.14066,-2.083706 z"
         id="path1103"
         sodipodi:nodetypes="ssccscccscccssccccsssssaaccaasssscsccscccssssssscccss" /><path
         id="path1105"
         style="fill:#000000;stroke-width:0.264583"
         d="m 411.03964,44.439994 c 2.38204,5.04341 4.12448,10.45717 6.07058,15.43231 0.558,1.20988 1.22451,2.42426 1.84898,3.29903 0.48624,0.68112 1.34937,1.93127 1.91772,2.77812 0.56835,0.84684 1.25581,1.83709 1.52755,2.2009 0.27173,0.3638 0.89824,1.25678 1.39268,1.98438 0.49443,0.7276 1.68272,2.2049 2.64015,3.28248 0.95742,1.07758 1.74046,2.10928 1.74046,2.29289 0,0.1836 0.0968,0.37369 0.21498,0.42219 0.11814,0.0485 0.92995,1.27848 1.80402,2.73369 2.98029,4.96175 3.91306,7.93715 4.47725,14.28233 0.21972,2.47108 0.5039,4.59771 0.63148,4.72529 0.52368,0.52368 5.83008,-4.12767 7.54269,-6.61148 0.83918,-1.21708 1.85105,-5.04734 2.11149,-7.99073 0.0818,-0.92401 0.52301,-3.30526 0.98031,-5.29166 0.4573,-1.98641 0.92623,-4.20699 1.0418,-4.93459 0.20371,-1.28269 1.31826,-5.69746 1.50016,-5.94175 0.19266,-0.25873 1.48862,1.53097 2.36781,3.27008 0.92165,1.82308 1.81705,4.28615 2.558,7.0373 0.21555,0.80037 0.64195,2.28865 0.94773,3.30729 1.10002,3.66457 1.38628,6.09319 1.04439,8.86354 -0.37409,3.03113 -1.19317,4.9348 -3.38068,7.85843 -1.86412,2.49142 -2.58758,3.168056 -4.67412,4.370786 -2.19903,1.26757 -4.43043,1.99574 -6.7629,2.20711 -2.17912,0.19745 -4.75921,-0.20623 -5.27254,-0.82476 -0.17452,-0.21029 -0.54069,-0.38241 -0.81391,-0.38241 -0.40167,0 -0.49712,0.19907 -0.49712,1.03922 0,1.51517 -0.91542,2.18064 -2.74557,1.99574 -0.74551,-0.0753 -2.24844,-0.18823 -3.33985,-0.25063 -1.09141,-0.0624 -3.53219,-0.26288 -5.42396,-0.44545 -4.97078,-0.47971 -6.75771,-0.40087 -9.525,0.41961 -4.30961,1.27777 -5.95312,1.12631 -5.95312,-0.5488 0,-1.86289 0.80048,-2.46519 3.96875,-2.9869 1.38851,-0.22862 2.52788,-0.25301 3.7946,-0.0811 1.35137,0.18333 1.84116,0.16553 1.93166,-0.0703 0.16093,-0.41938 -1.25396,-2.733776 -3.06906,-5.019846 -1.74678,-2.20003 -2.33845,-3.11125 -4.3403,-6.68279 -2.38183,-4.24947 -2.93579,-6.89571 -2.14561,-10.25105 0.52685,-2.23722 0.85808,-2.57419 3.08663,-3.14452 1.42824,-0.36551 1.90244,-0.83646 1.13843,-1.12964 -0.69947,-0.26842 -3.31591,0.47598 -4.15478,1.18184 l -0.76481,0.64337 -0.59945,-0.56379 c -0.90786,-0.85289 -1.49096,-0.73704 -1.49396,0.29662 -0.001,0.47294 -0.12381,2.52678 -0.27182,4.56406 -0.148,2.03729 -0.28336,6.74027 -0.30076,10.45105 -0.0174,3.71077 -0.12893,7.46124 -0.24805,8.334376 -0.11913,0.87311 -0.29649,2.24234 -0.39429,3.0427 -0.27808,2.27607 -0.30588,2.29952 -2.45876,2.10219 -1.0246,-0.0939 -2.04546,-0.32227 -2.2686,-0.50746 -0.64696,-0.53693 -0.47587,-1.71927 0.52038,-3.5972 0.50932,-0.96006 0.92605,-1.928006 0.92605,-2.150766 0,-0.22277 0.22701,-0.83771 0.50436,-1.36684 1.13026,-2.15637 1.34319,-14.81965 0.3855,-22.92263 -0.0516,-0.43656 -0.1488,-3.24484 -0.216,-6.24044 -0.0944,-4.21137 -0.36456,-7.07776 -0.86403,-9.04906 l -1.07642,-10e-6 c 0.0636,0.25819 0.12804,0.51802 0.18707,0.73742 0.60978,2.26663 1.17669,7.08272 0.92655,7.87084 -0.13089,0.41238 0.23247,5.63464 0.55708,8.00416 0.0598,0.43656 0.18642,3.47266 0.28112,6.74688 0.20469,7.07958 -0.17747,12.90187 -0.96015,14.62598 -0.27888,0.61433 -0.51287,1.35485 -0.51987,1.64589 -0.007,0.29104 -0.42612,1.178346 -0.93172,1.971966 -1.52279,2.39028 -1.11491,4.45399 0.98598,4.98781 1.85749,0.47192 2.97718,0.59643 3.83026,0.42581 l 0.8046,-0.16071 0.31523,-3.61218 c 0.17348,-1.98683 0.36458,-4.148456 0.42478,-4.803316 0.0602,-0.65483 0.17863,-5.06016 0.26303,-9.78958 0.18345,-10.276 0.27125,-11.02702 1.16014,-9.95598 0.2027,0.24428 0.24772,1.08724 0.13849,2.57968 -0.20989,2.86796 0.31503,5.37299 1.70274,8.12509 1.22484,2.4291 3.03757,5.39397 4.08502,6.68176 1.5195,1.86817 3.56942,4.879836 3.45199,5.071516 -0.067,0.1094 -0.56121,0.13051 -1.09813,0.0465 -0.53692,-0.084 -1.75007,-0.0153 -2.69596,0.15296 -0.94589,0.16825 -2.01745,0.33524 -2.38125,0.37104 -1.61343,0.1588 -2.91328,1.72239 -2.90628,3.49539 0.005,1.14823 0.15424,1.45938 0.92191,1.91616 0.68804,0.4094 3.51622,0.21782 5.42396,-0.36742 2.93313,-0.90009 4.6973,-1.1329 6.82439,-0.90123 1.12145,0.12214 3.40837,0.34268 5.08186,0.48989 1.67348,0.14721 4.16444,0.37623 5.53558,0.50901 3.03017,0.29345 4.03576,-0.0111 4.71134,-1.42781 0.30897,-0.64792 0.56556,-0.87976 0.85214,-0.76895 3.08816,1.1942 8.17798,0.33615 12.31656,-2.07636 2.44765,-1.42681 4.52945,-3.784616 6.60321,-7.479116 1.11073,-1.97885 1.27504,-2.49516 1.61023,-5.04879 0.36768,-2.80117 0.23172,-5.3376 -0.38809,-7.23418 -0.11889,-0.3638 -0.53757,-1.79256 -0.93069,-3.175 -1.86501,-6.55847 -2.42393,-8.24376 -3.07113,-9.26042 -0.13896,-0.21828 -0.37498,-0.68154 -0.52451,-1.02991 -0.25467,-0.59331 -1.55186,-2.37116 -2.30271,-3.15588 -0.18399,-0.19229 -0.33486,-0.46915 -0.33486,-0.61495 0,-0.14584 -0.19688,-0.22632 -0.4377,-0.17932 -0.27418,0.0536 -0.45904,0.38196 -0.49454,0.87902 -0.0547,0.76626 -0.54968,3.21911 -1.14774,5.68854 -0.72008,2.97322 -2.16783,10.39859 -2.42465,12.43542 -0.52692,4.17902 -1.12991,5.80298 -2.97656,8.01863 -1.32431,1.58893 -4.38707,4.20931 -4.77077,4.08141 -0.42756,-0.14252 -0.6884,-1.33613 -0.96841,-4.42713 -0.13841,-1.52797 -0.31331,-3.18834 -0.38861,-3.6897 -0.39513,-2.63016 -2.17537,-6.91745 -4.20698,-10.13219 -0.48365,-0.76533 -0.95615,-1.60079 -1.04955,-1.85674 -0.0934,-0.25594 -1.07289,-1.5166 -2.17712,-2.80138 -2.05267,-2.38827 -4.27264,-5.36915 -5.05499,-6.7877 -0.24077,-0.43656 -0.9301,-1.44859 -1.53169,-2.24895 -1.31759,-1.75294 -2.27109,-3.22475 -2.94711,-4.57389 -2.10823,-4.96625 -3.70879,-10.29786 -5.94829,-15.28041 z"
         sodipodi:nodetypes="ccssssssssssscssssssssssssssssssscssssssccccssscssssssccccsscsssccccscsssssssscscsssscssssssssscsssssscsssssccc" /><path
         id="path1109"
         style="fill:#000000;stroke:none;stroke-width:0.245665;-inkscape-stroke:none;stop-color:#000000"
         d="m 421.89052,47.002727 c -0.28221,-0.280588 -0.77037,-0.685826 -1.32973,-1.091972 -1.59537,-1.158207 -2.5054,-1.693216 -5.66162,-3.327891 -0.41531,-0.215109 -0.83001,-0.459945 -1.17266,-0.685834 l -0.60587,0.6189 c 0.68365,0.548383 1.56403,1.020269 2.78347,1.508421 1.02435,0.41004 4.73598,2.749827 4.87836,3.075331 0.0342,0.07815 -0.0696,0.214957 -0.23133,0.304335 -0.437,0.241311 -5.70492,0.305195 -7.13556,0.312174 -0.27583,0.0013 -0.50374,0.01588 -0.68948,0.04248 l 1.07314,1.050483 c -8.6e-4,-0.0063 -3e-4,-0.01272 10e-4,-0.01608 0.0723,-0.181237 3.71172,-0.114131 5.3755,-0.224346 1.32932,-0.08807 2.88873,-0.729457 2.96997,-1.22114 0.009,-0.05268 -0.0863,-0.176283 -0.25546,-0.344781 z"
         sodipodi:nodetypes="ccsccsscccccsscc" /></g></g></svg>
