<?xml version="1.0" encoding="UTF-8" standalone="no"?>
<!-- Created with Inkscape (http://www.inkscape.org/) -->

<svg
   width="100mm"
   height="100mm"
   viewBox="0 0 100 100"
   version="1.1"
   id="svg5"
   xml:space="preserve"
   inkscape:version="1.2.2 (b0a8486541, 2022-12-01)"
   sodipodi:docname="dog animation flattened.svg"
   xmlns:inkscape="http://www.inkscape.org/namespaces/inkscape"
   xmlns:sodipodi="http://sodipodi.sourceforge.net/DTD/sodipodi-0.dtd"
   xmlns="http://www.w3.org/2000/svg"
   xmlns:svg="http://www.w3.org/2000/svg"><sodipodi:namedview
     id="namedview7"
     pagecolor="#d3d3d3"
     bordercolor="#666666"
     borderopacity="1.0"
     inkscape:showpageshadow="2"
     inkscape:pageopacity="0"
     inkscape:pagecheckerboard="0"
     inkscape:deskcolor="#d1d1d1"
     inkscape:document-units="mm"
     showgrid="false"
     inkscape:zoom="1"
     inkscape:cx="1071"
     inkscape:cy="367"
     inkscape:window-width="2478"
     inkscape:window-height="1522"
     inkscape:window-x="82"
     inkscape:window-y="41"
     inkscape:window-maximized="1"
     inkscape:current-layer="layer1"><inkscape:page
       x="0"
       y="0"
       width="100"
       height="100"
       id="page1650"
       inkscape:export-filename="dog animation frame 1.png"
       inkscape:export-xdpi="50.799999"
       inkscape:export-ydpi="50.799999" /><inkscape:page
       x="110"
       y="0"
       width="100"
       height="100"
       id="page1652"
       inkscape:export-filename="dog animation frame 2.png"
       inkscape:export-xdpi="50.799999"
       inkscape:export-ydpi="50.799999" /><inkscape:page
       x="220"
       y="0"
       width="100"
       height="100"
       id="page1654"
       inkscape:export-filename="dog animation frame 3.png"
       inkscape:export-xdpi="50.799999"
       inkscape:export-ydpi="50.799999" /><inkscape:page
       x="330"
       y="0"
       width="100"
       height="100"
       id="page1656"
       inkscape:export-filename="dog animation frame 4.png"
       inkscape:export-xdpi="50.799999"
       inkscape:export-ydpi="50.799999" /><inkscape:page
       x="440"
       y="0"
       width="100"
       height="100"
       id="page1658"
       inkscape:export-filename="dog animation frame 5.png"
       inkscape:export-xdpi="50.799999"
       inkscape:export-ydpi="50.799999" /></sodipodi:namedview><defs
     id="defs2" /><g
     inkscape:label="Layer 1"
     inkscape:groupmode="layer"
     id="layer1"><path
       style="fill:#ffffff;stroke-width:0.264583"
       d="m 490.83836,99.781812 c -0.76766,-0.45678 -0.91746,-0.76814 -0.92199,-1.91637 -0.007,-1.77301 1.29294,-3.33623 2.90637,-3.49503 0.3638,-0.0358 1.43536,-0.20276 2.38125,-0.37101 0.94588,-0.16825 2.15909,-0.23719 2.69601,-0.1532 0.53692,0.084 1.03108,0.0631 1.09814,-0.0463 0.11743,-0.19168 -1.93261,-3.20349 -3.45212,-5.07167 -1.04744,-1.28779 -2.86003,-4.252726 -4.08486,-6.681826 -1.38771,-2.7521 -1.91265,-5.25689 -1.70276,-8.12485 0.10923,-1.49245 0.0638,-2.33541 -0.1389,-2.57969 -0.88889,-1.07104 -0.97637,-0.32011 -1.15981,9.9559 -0.0844,4.72943 -0.20277,9.134736 -0.26297,9.789576 -0.0602,0.65485 -0.25141,2.81621 -0.42489,4.80304 l -0.31543,3.61243 -0.80441,0.16088 c -0.85308,0.17062 -1.97263,0.0461 -3.83012,-0.42582 -2.1009,-0.53382 -2.5089,-2.59751 -0.98611,-4.98779 0.5056,-0.79362 0.92493,-1.68107 0.93185,-1.97211 0.007,-0.29104 0.24076,-1.03181 0.51964,-1.64614 0.78267,-1.72411 1.1649,-7.546146 0.9602,-14.625736 -0.0947,-3.27422 -0.22105,-6.31031 -0.28086,-6.74687 -0.32461,-2.36953 -0.68828,-7.59177 -0.55739,-8.00415 0.25013,-0.78812 -0.31689,-5.60422 -0.92667,-7.87085 -0.3132,-1.16417 -0.72063,-3.00964 -0.90542,-4.101053 -0.47137,-2.78406 -1.38388,-7.46468 -1.88274,-9.65729 -0.23177,-1.01864 -0.57973,-2.64687 -0.77326,-3.61829 -0.19353,-0.97141 -0.53588,-2.12202 -0.76076,-2.5569 -0.22489,-0.43488 -0.48921,-1.48555 -0.58739,-2.33483 -0.0982,-0.84928 -0.4098,-2.07993 -0.69249,-2.73477 -1.07318,-2.48605 -1.27395,-3.53869 -1.25995,-6.60613 0.008,-1.66884 0.11798,-3.13838 0.24525,-3.26565 0.34907,-0.34907 1.32107,0.27734 1.4737,0.94973 0.0734,0.32322 0.26012,1.18106 0.41499,1.90631 0.15487,0.72525 0.51296,1.84171 0.79576,2.48103 0.2828,0.63932 0.51797,1.29609 0.5226,1.45949 0.005,0.1634 0.18765,0.53426 0.40671,0.82414 0.36397,0.48161 0.38292,0.39039 0.21995,-1.05834 -0.0981,-0.87195 -0.29009,-1.80267 -0.42665,-2.06825 -0.22246,-0.43263 -0.53277,-2.47612 -0.91698,-6.03866 -0.0891,-0.82652 -0.005,-1.43394 0.25785,-1.85209 0.21477,-0.34221 0.39603,-1.00757 0.4028,-1.47857 0.007,-0.471 0.0874,-0.97786 0.17918,-1.126362 0.2882,-0.466323 1.54853,-1.001723 2.79973,-1.189353 1.20325,-0.180438 1.20458,-0.179752 1.62487,0.834287 4.0769,9.836398 5.53972,12.771558 7.26594,14.579178 0.40415,0.42322 2.69715,2.17841 2.84589,2.17841 0.587,0 3.66401,2.2805 5.02817,3.72658 1.70636,1.80883 2.21261,2.87031 2.89726,6.07484 0.0791,0.37031 0.65373,1.43023 1.27692,2.35538 2.27795,3.38172 2.90888,4.42054 3.92484,6.46223 0.56996,1.14542 0.97162,2.18722 0.89259,2.31511 -0.27649,0.447373 -1.99325,0.226903 -3.26963,-0.41989 -1.59752,-0.80952 -4.05139,-1.75224 -4.19284,-1.61079 -0.058,0.058 0.0441,0.79933 0.2269,1.64736 0.49293,2.286643 1.69178,4.555483 4.10013,7.759593 0.60159,0.80037 1.2908,1.8124 1.53157,2.24896 0.78234,1.41855 3.00209,4.39921 5.05476,6.78749 1.10423,1.28478 2.08411,2.54538 2.17751,2.80132 0.0934,0.25595 0.56555,1.09153 1.0492,1.85686 2.03161,3.21475 3.81171,7.50218 4.20684,10.13235 0.0753,0.50136 0.25021,2.16172 0.38862,3.68969 0.28001,3.090996 0.54112,4.284236 0.96869,4.426756 0.3837,0.1279 3.44666,-2.49214 4.77097,-4.081066 1.84666,-2.21565 2.44943,-3.83958 2.97635,-8.01861 0.25682,-2.03683 1.70465,-9.46219 2.42473,-12.43541 0.59806,-2.46943 1.0929,-4.92228 1.14761,-5.68854 0.0355,-0.49706 0.22033,-0.82573 0.49451,-0.8793 0.24082,-0.047 0.43785,0.0337 0.43785,0.17954 0,0.1458 0.15054,0.42242 0.33453,0.61471 0.75085,0.78472 2.04807,2.56251 2.30274,3.15582 0.14954,0.34837 0.38557,0.81199 0.52453,1.03027 0.6472,1.01666 1.20611,2.70194 3.07112,9.26041 0.39312,1.38245 0.81204,2.8112 0.93093,3.175 0.61981,1.89659 0.75594,4.433 0.38826,7.23417 -0.33519,2.55363 -0.49994,3.07007 -1.61068,5.048916 -2.07376,3.6945 -4.15523,6.05215 -6.60289,7.47896 -4.13858,2.41251 -9.22827,3.27055 -12.31643,2.07634 -0.28658,-0.11081 -0.54347,0.12087 -0.85244,0.76879 -0.67558,1.41672 -1.68089,1.72144 -4.71107,1.42799 -1.37114,-0.13278 -3.8622,-0.36186 -5.53569,-0.50907 -1.67349,-0.14721 -3.96026,-0.36758 -5.08171,-0.48972 -2.12709,-0.23168 -3.8914,0.001 -6.82454,0.90109 -1.90774,0.58524 -4.73592,0.776828 -5.42396,0.36743 z"
       id="path1992"
       sodipodi:nodetypes="ssssscssscssscscssssssssssssscsssscssssccssssssssssssssssscssssssscsssssssssssssscss" /><path
       id="path1990"
       style="fill:#ffffff;stroke-width:0.264583"
       d="m 363.28274,13.480831 c -0.0862,0.0031 -0.18501,0.02781 -0.308,0.07235 v 5.17e-4 c -0.16402,0.05934 -0.36972,0.153693 -0.64492,0.280086 -1.14464,0.525748 -2.23556,1.352992 -2.42259,1.837614 -0.0599,0.154215 -0.0431,0.613904 0.0357,1.020609 0.0789,0.406636 0.0287,1.030413 -0.11162,1.386996 -0.17169,0.435913 -0.14121,0.982388 0.0925,1.666565 1.21947,1.95178 3.96292,7.351467 4.17855,8.529195 0.0599,0.327138 -0.80613,0.387113 -1.10742,0.234094 -0.3891,-0.197626 -2.29491,-3.673593 -2.84066,-4.806942 -0.27725,-0.577994 -0.60871,-1.260397 -0.73639,-1.516703 -0.26553,-0.533231 -1.29451,-0.788678 -1.56011,-0.387056 -0.0968,0.146467 0.0655,1.441201 0.36019,2.877343 0.54235,2.639528 2.33287,6.308523 3.79408,8.131804 0.38488,0.480252 0.90142,1.447129 1.14774,2.148189 0.2463,0.701076 0.68556,1.526394 0.97616,1.834513 0.29061,0.308108 0.82153,1.197361 1.17978,1.97559 0.35823,0.778228 2.35392,2.635131 2.7621,3.440101 0.4706,0.928106 1.30309,2.804288 1.91358,4.224548 0.54063,1.257736 1.07072,2.521063 1.54874,3.803902 0.30008,0.805301 0.40799,1.273871 0.81597,2.412773 h -0.0605 c 0.0636,0.258189 0.12804,0.518023 0.18707,0.737422 0.60978,2.266628 1.1767,7.082719 0.92656,7.870838 -0.13089,0.412379 0.23246,5.634645 0.55707,8.004162 0.0598,0.43656 0.18642,3.472659 0.28112,6.746875 0.20469,7.079573 -0.17747,12.901873 -0.96015,14.625981 -0.27888,0.614329 -0.51286,1.354855 -0.51986,1.645894 -0.007,0.29104 -0.42613,1.178354 -0.93173,1.971973 -1.52279,2.390278 -1.1149,4.45399 0.98599,4.987809 1.85749,0.47192 2.97718,0.596434 3.83025,0.425814 l 0.80461,-0.160714 0.31522,-3.612182 c 0.17348,-1.986828 0.36458,-4.148465 0.42478,-4.803325 0.0602,-0.654829 0.17864,-5.060168 0.26304,-9.789583 0.18345,-10.27599 0.27124,-11.02702 1.16013,-9.955981 0.2027,0.244279 0.24773,1.087249 0.1385,2.579687 -0.20989,2.867957 0.31503,5.372988 1.70273,8.125086 1.22484,2.429097 3.03758,5.393974 4.08503,6.681762 1.51949,1.868168 3.56941,4.879846 3.45198,5.071525 -0.067,0.1094 -0.5612,0.130519 -1.09812,0.04651 -0.53692,-0.084 -1.75007,-0.0153 -2.69596,0.152962 -0.94589,0.16825 -2.01745,0.335237 -2.38125,0.371037 -1.61343,0.1588 -2.91328,1.722396 -2.90628,3.495394 0.005,1.148229 0.15423,1.459383 0.9219,1.916162 0.68804,0.409397 3.51622,0.21782 5.42396,-0.367419 2.93313,-0.900089 4.6973,-1.132907 6.82439,-0.901237 1.12145,0.12214 3.40837,0.342682 5.08186,0.489892 1.67348,0.14721 4.16444,0.376233 5.53558,0.509013 3.03017,0.29345 4.03576,-0.01111 4.71134,-1.42782 0.30897,-0.647919 0.56557,-0.879755 0.85215,-0.768945 3.08815,1.194199 8.17798,0.336149 12.31656,-2.076359 2.44764,-1.426809 4.52945,-3.784634 6.60321,-7.47913 1.11073,-1.978848 1.27505,-2.49516 1.61024,-5.048788 0.36768,-2.801167 0.23172,-5.337605 -0.38809,-7.234183 -0.11889,-0.3638 -0.53757,-1.792562 -0.93069,-3.175 -1.86501,-6.558464 -2.42394,-8.243758 -3.07113,-9.260417 -0.13896,-0.21828 -0.37499,-0.681542 -0.52452,-1.029911 -0.25467,-0.59331 -1.55185,-2.371161 -2.3027,-3.15588 -0.18399,-0.19229 -0.33487,-0.46915 -0.33487,-0.61495 0,-0.145839 -0.19688,-0.226317 -0.43769,-0.179317 -0.27418,0.0536 -0.45905,0.381957 -0.49455,0.879016 -0.0547,0.76626 -0.54967,3.219115 -1.14773,5.688542 -0.72008,2.973217 -2.16784,10.398589 -2.42466,12.435417 -0.52692,4.179016 -1.12991,5.802984 -2.97656,8.018632 -1.32431,1.588928 -4.38707,4.209304 -4.77077,4.081404 -0.42756,-0.14252 -0.68841,-1.336123 -0.96842,-4.42712 -0.13841,-1.527968 -0.3133,-3.188337 -0.3886,-3.689697 -0.39513,-2.630157 -2.17537,-6.917461 -4.20698,-10.132198 -0.48365,-0.765329 -0.95615,-1.600784 -1.04955,-1.856734 -0.0934,-0.25594 -1.0729,-1.516601 -2.17713,-2.80138 -2.05267,-2.388267 -4.27264,-5.36915 -5.05499,-6.787699 -0.24077,-0.43656 -0.9301,-1.448599 -1.53169,-2.248958 -1.31759,-1.752939 -2.27108,-3.224743 -2.9471,-4.573881 -1.52992,-3.603949 -2.79425,-7.399346 -4.22765,-11.115084 l 0.0527,0.05168 c -8.6e-4,-0.0063 -2.7e-4,-0.01266 0.001,-0.01602 0.0723,-0.181237 3.7116,-0.114061 5.37538,-0.224276 1.32932,-0.08807 2.88912,-0.729432 2.97036,-1.221114 0.009,-0.05268 -0.0866,-0.176184 -0.25579,-0.344682 l 5.1e-4,-5.17e-4 c -0.28221,-0.280587 -0.77027,-0.685777 -1.32963,-1.091923 -1.59537,-1.158206 -2.50545,-1.692772 -5.66167,-3.327445 -0.41531,-0.215109 -0.83041,-0.460375 -1.17306,-0.686263 l -0.0326,0.03359 c -0.0755,-0.09484 -0.13599,-0.179582 -0.16537,-0.240812 -0.42121,-0.877849 -0.77722,-1.544085 -1.14101,-2.083594 -0.69451,-1.03 -1.4189,-1.597704 -2.68873,-2.291333 -1.54696,-0.844979 -4.8586,-1.907889 -5.41155,-1.736844 -0.14015,0.04333 -2.61791,-0.796445 -3.07527,-1.042314 -1.95348,-1.050112 -5.27406,-5.969458 -10.89597,-13.232784 -0.32601,-0.421197 -0.46947,-0.605732 -0.72812,-0.596346 z"
       sodipodi:nodetypes="sccsccccssccscsssssssccsssssssscccsssssssssscscsssscssssssssscsssssscsssssccccsccccsccsssssss" /><path
       id="path1873"
       style="fill:#ffffff;stroke:none;stroke-width:0.245665;-inkscape-stroke:none;stop-color:#000000"
       d="m 243.97684,19.134749 c -0.13834,-0.0044 -0.26499,0.06137 -0.43925,0.209807 -0.13281,0.113061 -0.29247,0.274023 -0.50591,0.488859 -0.88773,0.893622 -1.61943,2.050953 -1.62471,2.570385 -0.002,0.165415 0.17439,0.589784 0.39067,0.943095 0.21646,0.35317 0.38833,0.954748 0.38189,1.337903 -0.008,0.468433 0.21213,0.969722 0.67076,1.528589 1.82625,1.400486 5.56521,4.933461 6.17999,5.960877 0.0107,0.01784 0.0177,0.03596 0.0212,0.05426 0.004,0.0183 0.003,0.03676 5.2e-4,0.05529 -0.009,0.0556 -0.0451,0.111801 -0.0997,0.165364 -0.007,0.0069 -0.0157,0.0134 -0.0233,0.02015 -0.0366,-0.138475 -0.22186,-0.235823 -0.6072,-0.198954 -0.49802,0.04765 -0.72815,0.08667 -1.03663,-0.399976 -0.2904,-0.458131 -0.84924,-0.67572 -1.18855,-1.093473 -0.31885,-0.39262 -0.63706,-0.769916 -1.01079,-1.108976 -0.54862,-0.49773 -0.85711,-1.047855 -1.46451,-1.426787 -0.5155,-0.321593 -1.09594,-0.609224 -1.6552,-0.376204 -0.22991,0.09579 -0.8447,0.641444 -0.39429,0.598413 0.14876,-0.01421 0.30205,0.0047 0.45682,0.04082 -0.2017,0.07141 -0.35607,0.191678 -0.39378,0.355534 -0.0393,0.171107 0.56676,1.327116 1.34617,2.568836 1.43317,2.281946 3.6732,4.528274 5.68079,5.723681 0.52881,0.314868 1.35137,1.038961 1.8278,1.609204 0.47642,0.570258 1.17685,1.189438 1.55701,1.376144 0.38018,0.186696 1.18901,0.832814 1.79731,1.436088 0.6083,0.603277 3.22938,1.605067 3.89382,2.215885 0.76608,0.70426 1.9725,2.2176 2.67632,3.509347 0.52231,0.958604 0.75848,2.047446 1.11156,3.080432 0.26175,0.765774 0.58167,1.471305 0.79737,2.267562 h -0.0274 c 0.0636,0.25819 0.12804,0.518021 0.18707,0.737422 0.60978,2.266626 1.17669,7.08272 0.92655,7.870838 -0.13089,0.412378 0.23247,5.634638 0.55708,8.004162 0.0598,0.43656 0.18642,3.472663 0.28112,6.746875 0.20469,7.079576 -0.17747,12.901873 -0.96015,14.625981 -0.27888,0.614329 -0.51287,1.354855 -0.51987,1.645894 -0.007,0.29104 -0.42612,1.178354 -0.93172,1.971973 -1.52279,2.390278 -1.1149,4.45399 0.98598,4.987809 1.85749,0.47192 2.97718,0.596434 3.83026,0.425814 l 0.8046,-0.160714 0.31523,-3.612182 c 0.17348,-1.986828 0.36458,-4.148475 0.42478,-4.803325 0.0602,-0.654839 0.17863,-5.060163 0.26303,-9.789583 0.18345,-10.27599 0.27125,-11.027019 1.16014,-9.955981 0.2027,0.244278 0.24772,1.087241 0.13849,2.579687 -0.20989,2.867954 0.31503,5.37299 1.70274,8.125086 1.22484,2.429094 3.03757,5.393974 4.08502,6.681762 1.5195,1.868168 3.56942,4.879846 3.45199,5.071525 -0.067,0.1094 -0.56121,0.130519 -1.09813,0.04651 -0.53692,-0.084 -1.75007,-0.0153 -2.69596,0.152962 -0.94589,0.16825 -2.01745,0.335237 -2.38125,0.371037 -1.61342,0.1588 -2.91328,1.722396 -2.90628,3.495394 0.005,1.148229 0.15424,1.459383 0.92191,1.916162 0.68804,0.409397 3.51622,0.21782 5.42396,-0.367419 2.93312,-0.900089 4.6973,-1.132907 6.82439,-0.901237 1.12145,0.12214 3.40837,0.342682 5.08186,0.489892 1.67348,0.14721 4.16444,0.376233 5.53558,0.509013 3.03016,0.29345 4.03576,-0.01111 4.71134,-1.42782 0.30897,-0.647919 0.56556,-0.879755 0.85214,-0.768945 3.08816,1.194199 8.17799,0.336149 12.31656,-2.076359 2.44765,-1.426809 4.52946,-3.784634 6.60322,-7.47913 1.11073,-1.978845 1.27504,-2.495163 1.61023,-5.048788 0.36768,-2.801165 0.23172,-5.337597 -0.38809,-7.234183 -0.11889,-0.3638 -0.53757,-1.792554 -0.93069,-3.175 -1.86501,-6.558458 -2.42393,-8.243759 -3.07113,-9.260417 -0.13896,-0.21828 -0.37498,-0.681543 -0.52451,-1.029911 -0.25467,-0.59331 -1.55186,-2.371162 -2.30271,-3.15588 -0.18399,-0.19229 -0.33486,-0.469151 -0.33486,-0.61495 0,-0.145839 -0.19688,-0.226317 -0.4377,-0.179317 -0.27418,0.05357 -0.45904,0.381958 -0.49454,0.879016 -0.0547,0.76626 -0.54968,3.219118 -1.14774,5.688542 -0.72008,2.973214 -2.16783,10.398591 -2.42465,12.435417 -0.52692,4.179022 -1.12992,5.802986 -2.97657,8.018632 -1.32431,1.588926 -4.38707,4.209304 -4.77076,4.081404 -0.42756,-0.14252 -0.68841,-1.336129 -0.96842,-4.42712 -0.13841,-1.527966 -0.31331,-3.188337 -0.38861,-3.689697 -0.39513,-2.630164 -2.17537,-6.917454 -4.20698,-10.132198 -0.48365,-0.765328 -0.95614,-1.600784 -1.04954,-1.856734 -0.0934,-0.25594 -1.0729,-1.516602 -2.17713,-2.80138 -2.05267,-2.388274 -4.27264,-5.369151 -5.05499,-6.787699 -0.24077,-0.436559 -0.9301,-1.44859 -1.53169,-2.248958 -1.31759,-1.752932 -2.27109,-3.224752 -2.94711,-4.573881 -2.08241,-4.905434 -3.67056,-10.166889 -5.86734,-15.096753 l 0.0388,5.17e-4 c -0.005,-0.004 -0.009,-0.0086 -0.0103,-0.0124 -0.0729,-0.180991 4.53614,-5.221432 5.66322,-6.450252 0.9005,-0.981799 1.58516,-2.523021 1.30432,-2.934705 -0.0301,-0.04412 -0.18399,-0.06782 -0.42272,-0.07286 -0.39788,-0.0084 -1.03114,0.03602 -1.71617,0.128674 -1.95366,0.264277 -2.98139,0.506046 -6.39289,1.503784 -0.4105,0.120048 -0.83706,0.221461 -1.21595,0.294039 -0.0829,-0.05181 -0.15446,-0.100293 -0.19637,-0.14056 -0.70219,-0.674514 -1.26852,-1.174089 -1.79834,-1.551843 -1.01148,-0.721207 -1.88936,-0.999034 -3.32176,-1.203544 -1.74499,-0.24912 -5.21874,-0.08321 -5.67666,0.270784 -0.11607,0.08967 -2.73126,0.171239 -3.24579,0.101286 -2.19763,-0.298741 -6.30886,-3.179546 -14.12007,-8.011397 -0.33972,-0.210149 -0.53631,-0.331336 -0.71417,-0.336931 z m -0.41135,9.857797 c 0.46754,0.245578 0.7175,0.737787 1.13172,1.054199 0.42432,0.324124 0.51649,0.438353 0.67231,0.636137 -0.009,-0.0081 -0.0189,-0.01675 -0.0279,-0.02481 -0.34826,-0.312965 -0.66121,-0.602568 -0.88831,-0.820105 -0.3361,-0.322923 -0.6237,-0.595368 -0.88781,-0.845426 z"
       sodipodi:nodetypes="sccccccsssscssssssscccssssssscccsscsssscccscsssssssscscsssscsssssssssssssssscsssssccccsssssccsssssscscscc" /><path
       id="path1864"
       style="fill:#ffffff;stroke:none;stroke-width:0.245665;-inkscape-stroke:none;stop-color:#000000"
       d="m 165.23591,21.953699 c -0.0627,-0.0053 -0.19862,0.04606 -0.38499,0.14056 h -5.2e-4 c -0.35495,0.179961 -0.89194,0.517052 -1.45262,0.92139 -1.59899,1.153185 -2.39183,1.850433 -4.93148,4.337203 -0.33419,0.327222 -0.69632,0.644328 -1.01803,0.89917 l 0.0811,0.15658 c -0.27494,-0.0733 -0.48909,-0.147278 -0.59428,-0.212907 -0.8261,-0.515357 -1.48368,-0.88725 -2.07997,-1.147734 -1.1383,-0.497511 -2.05417,-0.588511 -3.49798,-0.49351 -1.75888,0.115763 -5.12425,0.993266 -5.49941,1.434021 -0.0951,0.111659 -2.63694,0.730876 -3.15484,0.768429 -2.21203,0.160475 -5.71242,-1.203965 -14.35158,-4.322734 -0.66797,-0.241135 -0.83564,-0.300915 -1.15549,0.113172 h 5.2e-4 c -0.10666,0.137994 -0.22969,0.328193 -0.39429,0.582393 -0.68456,1.057362 -1.16225,2.340574 -1.0604,2.849955 0.0324,0.162209 0.29228,0.541156 0.57671,0.842326 0.28459,0.300989 0.57641,0.854668 0.64905,1.230933 0.0885,0.460066 0.40759,0.905156 0.97152,1.35754 2.07562,0.994166 5.34606,3.07351 6.15931,3.952213 0.0646,0.06977 0.0518,0.162005 -0.005,0.258383 -0.10918,-0.04975 -0.29103,-0.034 -0.55345,0.0925 -0.45067,0.217229 -0.65359,0.333623 -1.11156,-0.01602 -0.33632,-0.256775 -0.7749,-0.320282 -1.17151,-0.465605 -0.34801,-0.203185 -0.69476,-0.413405 -1.00304,-0.605131 -0.54385,-0.339331 -1.18937,-0.738295 -1.43453,-0.886251 -0.13078,-0.07894 -0.29429,-0.114644 -0.46509,-0.117305 -0.12639,-0.03735 -0.26835,-0.05357 -0.43667,-0.03772 -0.60491,0.05695 -1.05575,0.304407 -1.49965,0.716752 -0.18249,0.169505 -0.57039,0.894027 -0.16278,0.697632 0.36428,-0.175518 0.73402,-0.427364 1.11983,-0.577226 0.22236,0.365179 0.92644,1.194446 1.7663,2.063957 1.87259,1.937697 3.41106,3.066392 5.62188,3.822505 0.58234,0.199175 1.53659,0.738518 2.12028,1.198377 0.5837,0.459857 1.39665,0.921408 1.80713,1.025777 0.41046,0.104396 1.33511,0.570588 2.05465,1.035596 0.71955,0.464998 1.9375,1.232109 2.71353,1.69292 0.89475,0.531306 2.5522,1.64425 3.75895,2.562634 1.53619,1.169102 3.30879,2.163397 4.41937,3.742407 0.24219,0.344355 0.47418,0.70193 0.66404,1.080038 h -0.006 c 0.0636,0.258189 0.12804,0.518023 0.18707,0.737422 0.60978,2.266628 1.1767,7.082719 0.92656,7.870838 -0.13089,0.412379 0.23246,5.634645 0.55707,8.004162 0.0598,0.43656 0.18642,3.472659 0.28112,6.746875 0.20469,7.079573 -0.17747,12.901873 -0.96015,14.625981 -0.27888,0.614329 -0.51286,1.354855 -0.51986,1.645894 -0.007,0.29104 -0.42613,1.178354 -0.93173,1.971973 -1.52279,2.390278 -1.1149,4.45399 0.98599,4.987809 1.85749,0.47192 2.97718,0.596434 3.83026,0.425814 l 0.8046,-0.160714 0.31523,-3.612182 c 0.17347,-1.986828 0.36458,-4.148475 0.42478,-4.803325 0.0602,-0.654839 0.17863,-5.060168 0.26303,-9.789583 0.18345,-10.27599 0.27125,-11.02701 1.16013,-9.955981 0.2027,0.244279 0.24773,1.087239 0.1385,2.579687 -0.20989,2.867957 0.31503,5.372988 1.70274,8.125086 1.22483,2.429087 3.03757,5.393974 4.08502,6.681762 1.5195,1.868168 3.56941,4.879846 3.45198,5.071525 -0.067,0.1094 -0.5612,0.130519 -1.09812,0.04651 -0.53692,-0.084 -1.75007,-0.0153 -2.69596,0.152962 -0.94589,0.16825 -2.01745,0.335237 -2.38125,0.371037 -1.61343,0.1588 -2.91328,1.722396 -2.90628,3.495394 0.005,1.148229 0.15424,1.459383 0.9219,1.916162 0.68804,0.409397 3.51622,0.21782 5.42396,-0.367419 2.93313,-0.900089 4.6973,-1.132907 6.82439,-0.901237 1.12145,0.12214 3.40837,0.342682 5.08186,0.489892 1.67348,0.14721 4.16444,0.376233 5.53558,0.509013 3.03017,0.29345 4.03576,-0.01111 4.71134,-1.42782 0.30897,-0.647919 0.56557,-0.879755 0.85215,-0.768945 3.08815,1.194199 8.17799,0.336149 12.31656,-2.076359 2.44766,-1.426809 4.52945,-3.784634 6.60321,-7.47913 1.11073,-1.978838 1.27505,-2.49517 1.61024,-5.048788 0.36768,-2.801167 0.23172,-5.337595 -0.38809,-7.234183 -0.11889,-0.3638 -0.53757,-1.792552 -0.93069,-3.175 -1.86501,-6.558454 -2.42393,-8.243758 -3.07113,-9.260417 -0.13896,-0.21828 -0.37499,-0.681542 -0.52452,-1.029911 -0.25467,-0.59331 -1.55185,-2.371171 -2.3027,-3.15588 -0.18399,-0.19229 -0.33486,-0.46915 -0.33486,-0.61495 0,-0.145839 -0.19688,-0.226317 -0.4377,-0.179317 -0.27418,0.0536 -0.45905,0.381957 -0.49455,0.879016 -0.0547,0.76626 -0.54967,3.219115 -1.14773,5.688542 -0.72008,2.973207 -2.16784,10.398599 -2.42466,12.435417 -0.52692,4.179026 -1.1299,5.802984 -2.97656,8.018632 -1.32431,1.588918 -4.38707,4.209304 -4.77077,4.081404 -0.42756,-0.14252 -0.68841,-1.336133 -0.96842,-4.42712 -0.13841,-1.527968 -0.3133,-3.188337 -0.3886,-3.689697 -0.39513,-2.630157 -2.17537,-6.917451 -4.20698,-10.132198 -0.48365,-0.765319 -0.95615,-1.600784 -1.04955,-1.856734 -0.0934,-0.25594 -1.0729,-1.516601 -2.17713,-2.80138 -2.05266,-2.388277 -4.27264,-5.36915 -5.05499,-6.787699 -0.24077,-0.43656 -0.9301,-1.448589 -1.53168,-2.248958 -1.31759,-1.752929 -2.27109,-3.224753 -2.94711,-4.573881 -2.72312,-6.414706 -4.59968,-13.43892 -8.09977,-19.533175 0.26205,-1.476506 1.56234,-6.562525 1.91978,-7.951453 0.33203,-1.290189 0.21063,-2.971991 -0.23099,-3.202905 -0.006,-0.0031 -0.0133,-0.0049 -0.0222,-0.0057 z"
       sodipodi:nodetypes="scccsccccsccscccccccscssccscsssccsscsssscccsscsssccccscsssssssscscsssscssssssssscsssssscsssssccsss" /><path
       id="path1856"
       style="fill:#ffffff;stroke:none;stroke-width:0.245665;-inkscape-stroke:none;stop-color:#000000"
       d="m 47.127873,16.345256 c -0.0532,-0.0048 -0.169415,0.09898 -0.325045,0.280086 -0.25937,0.301841 -0.627304,0.818871 -0.991154,1.406632 -1.037649,1.676274 -1.5042,2.623151 -2.902148,5.891114 -0.04644,0.108565 -0.09465,0.216966 -0.144178,0.324528 -0.423035,0.08107 -0.77213,0.121071 -0.936893,0.09715 -0.963579,-0.139837 -1.715048,-0.216142 -2.365747,-0.214974 -1.242269,0.0022 -2.117505,0.287119 -3.401343,0.954464 -1.563999,0.812998 -4.29281,2.969439 -4.45916,3.523816 -0.0422,0.140474 -2.121084,1.728888 -2.580204,1.971456 -1.960958,1.03608 -4.765768,1.453271 -13.929899,2.070158 -0.708559,0.04769 -0.885911,0.06022 -1.012341,0.567924 h 5.17e-4 c -0.0422,0.169236 -0.07859,0.393026 -0.127125,0.691947 -0.201809,1.243343 -0.123343,2.61 0.174667,3.035474 0.0949,0.135496 0.485114,0.378063 0.866614,0.539502 0.381569,0.161213 0.871579,0.55077 1.089339,0.866097 0.26596,0.385696 0.736845,0.665114 1.435054,0.852661 2.300168,0.07599 5.181841,0.405976 6.27972,0.883667 0.04685,0.02038 0.07473,0.05656 0.08992,0.101802 -0.118318,-0.0056 -0.281107,0.06944 -0.481624,0.2651 -0.35807,0.349405 -0.513401,0.523621 -1.05885,0.337964 -0.51349,-0.17478 -1.085002,0.0067 -1.611271,-0.105936 -0.49456,-0.105918 -0.979374,-0.200184 -1.483114,-0.22996 -0.739469,-0.04371 -0.988476,-0.09877 -1.703255,0.218591 -0.55531,0.246556 -0.904186,0.624832 -1.193726,1.157035 -0.11903,0.21878 -0.255666,1.029082 0.06821,0.713135 0.37783,-0.368568 0.722975,-0.863819 1.184424,-1.116211 0.574301,-0.314115 0.863737,-0.399357 1.365808,-0.426331 -0.52581,0.121368 -1.060676,0.685424 -0.904337,1.060401 0.0676,0.162033 1.233017,0.749207 2.589506,1.305347 2.493527,1.021556 3.407289,1.177654 5.735567,0.981335 0.613279,-0.05172 1.703798,0.05851 2.423108,0.244946 0.719309,0.186453 1.649247,0.282335 2.067057,0.212907 0.41781,-0.06944 1.451765,-0.01459 2.297534,0.121957 0.845769,0.13655 2.269373,0.349392 3.165182,0.459403 1.032849,0.12684 2.066497,1.349038 2.927986,2.219503 0.72245,0.729982 1.311355,1.591383 1.836064,2.474267 0.485222,0.816444 0.835478,1.547533 1.202511,2.564702 h -0.01964 c 0.0636,0.25819 0.128038,0.518021 0.187068,0.737422 0.60978,2.266626 1.176698,7.08272 0.926559,7.870838 -0.13089,0.412378 0.232462,5.634638 0.557072,8.004162 0.0598,0.43656 0.186419,3.472663 0.281119,6.746875 0.20469,7.079576 -0.177469,12.901873 -0.960148,14.625981 -0.278879,0.614329 -0.512865,1.354855 -0.519865,1.645894 -0.007,0.29104 -0.426126,1.178354 -0.931726,1.971973 -1.522788,2.390278 -1.114901,4.45399 0.985987,4.987809 1.857488,0.47192 2.977178,0.596434 3.830257,0.425814 l 0.804602,-0.160714 0.315226,-3.612182 c 0.17348,-1.986828 0.36458,-4.148475 0.42478,-4.803325 0.0602,-0.654839 0.178633,-5.060163 0.263033,-9.789583 0.18345,-10.27599 0.271247,-11.027019 1.160136,-9.955981 0.2027,0.244278 0.247723,1.087241 0.138493,2.579687 -0.20989,2.867954 0.31503,5.37299 1.702739,8.125086 1.224838,2.429094 3.037573,5.393974 4.085022,6.681762 1.519498,1.868168 3.569415,4.879846 3.451985,5.071525 -0.067,0.1094 -0.561205,0.130519 -1.098124,0.04651 -0.536919,-0.084 -1.75007,-0.0153 -2.695959,0.152962 -0.945889,0.16825 -2.017451,0.335237 -2.38125,0.371037 -1.613429,0.1588 -2.913283,1.722396 -2.906283,3.495394 0.005,1.148229 0.154238,1.459383 0.921908,1.916162 0.688039,0.409397 3.51622,0.21782 5.423958,-0.367419 2.933127,-0.900089 4.697302,-1.132907 6.82439,-0.901237 1.121448,0.12214 3.408372,0.342682 5.08186,0.489892 1.673478,0.14721 4.164441,0.376233 5.535579,0.509013 3.030167,0.29345 4.035761,-0.01111 4.711341,-1.42782 0.308969,-0.647919 0.565564,-0.879755 0.852144,-0.768945 3.088157,1.194199 8.177996,0.336149 12.316561,-2.076359 2.447657,-1.426809 4.529456,-3.784634 6.603214,-7.47913 1.110729,-1.978845 1.275048,-2.495163 1.610238,-5.048788 0.367684,-2.801165 0.231724,-5.337597 -0.38809,-7.234183 -0.11889,-0.3638 -0.537573,-1.792554 -0.930693,-3.175 -1.865008,-6.558458 -2.423931,-8.243759 -3.07113,-9.260417 -0.13896,-0.21828 -0.374986,-0.681543 -0.524516,-1.029911 -0.254669,-0.59331 -1.551852,-2.371162 -2.302701,-3.15588 -0.18399,-0.19229 -0.334864,-0.469151 -0.334864,-0.61495 0,-0.145839 -0.196879,-0.226317 -0.437699,-0.179317 -0.27418,0.05357 -0.459044,0.381958 -0.494544,0.879016 -0.0547,0.76626 -0.549674,3.219118 -1.147733,5.688542 -0.720078,2.973214 -2.167839,10.398591 -2.424658,12.435417 -0.52692,4.179022 -1.129906,5.802986 -2.976563,8.018632 -1.324309,1.588926 -4.387068,4.209304 -4.770768,4.081404 -0.42756,-0.14252 -0.688407,-1.336129 -0.968416,-4.42712 -0.13841,-1.527966 -0.313307,-3.188337 -0.388607,-3.689697 -0.39513,-2.630164 -2.175371,-6.917454 -4.206979,-10.132198 -0.483649,-0.765328 -0.956148,-1.600784 -1.049548,-1.856734 -0.0934,-0.25594 -1.072899,-1.516602 -2.177128,-2.80138 C 69.150221,63.86918 66.93025,60.888303 66.1479,59.469755 65.907131,59.033196 65.2178,58.021165 64.616211,57.220797 63.298622,55.467865 62.345123,53.996045 61.669104,52.646916 58.665177,45.570714 56.691934,37.752662 52.432458,31.259591 51.898379,30.445453 50.94916,29.886114 50.434131,29.128971 50.084505,28.614962 49.806566,28.138938 49.74115,27.949715 l 0.220142,-0.260449 c -0.006,9.22e-4 -0.01212,0.0012 -0.01602,0 -0.18605,-0.05877 -1.148425,-6.820685 -1.380794,-8.471834 -0.18566,-1.31923 -0.940276,-2.827344 -1.436605,-2.872176 z M 19.436023,40.99078 c 0.504512,0.0017 0.550301,0.0649 1.050582,0.155546 0.460843,0.08349 1.484414,0.01474 1.958537,0.177767 -0.402758,0.01326 -0.906579,-0.01923 -1.513603,-0.106454 -0.610632,-0.08869 -1.300906,-0.185444 -1.607137,-0.225826 0.0394,-4.82e-4 0.07687,-0.0011 0.111621,-0.001 z"
       sodipodi:nodetypes="sscsccccccscccscccscsscssssscccsccsssscccsscsssccccsccssssssccscsssscsssssssssccssssscssssscsccccsssscccs" /><path
       style="fill:#000000;stroke-width:0.264583"
       d="m 490.83836,99.781812 c -0.76766,-0.45678 -0.91746,-0.76814 -0.92199,-1.91637 -0.007,-1.77301 1.29294,-3.33623 2.90637,-3.49503 0.3638,-0.0358 1.43536,-0.20276 2.38125,-0.37101 0.94588,-0.16825 2.15909,-0.23719 2.69601,-0.1532 0.53692,0.084 1.03108,0.0631 1.09814,-0.0463 0.11743,-0.19168 -1.93261,-3.20349 -3.45212,-5.07167 -1.04744,-1.28779 -2.86003,-4.252726 -4.08486,-6.681826 -1.38771,-2.7521 -1.91265,-5.25689 -1.70276,-8.12485 0.10923,-1.49245 0.0638,-2.33541 -0.1389,-2.57969 -0.88889,-1.07104 -0.97637,-0.32011 -1.15981,9.9559 -0.0844,4.72943 -0.20277,9.134736 -0.26297,9.789576 -0.0602,0.65485 -0.25141,2.81621 -0.42489,4.80304 l -0.31543,3.61243 -0.80441,0.16088 c -0.85308,0.17062 -1.97263,0.0461 -3.83012,-0.42582 -2.1009,-0.53382 -2.5089,-2.59751 -0.98611,-4.98779 0.5056,-0.79362 0.92493,-1.68107 0.93185,-1.97211 0.007,-0.29104 0.24076,-1.03181 0.51964,-1.64614 0.78267,-1.72411 1.1649,-7.546146 0.9602,-14.625736 -0.0947,-3.27422 -0.22105,-6.31031 -0.28086,-6.74687 -0.32461,-2.36953 -0.68828,-7.59177 -0.55739,-8.00415 0.25013,-0.78812 -0.31689,-5.60422 -0.92667,-7.87085 -0.3132,-1.16417 -0.72063,-3.00964 -0.90542,-4.101053 -0.47137,-2.78406 -1.38388,-7.46468 -1.88274,-9.65729 -0.23177,-1.01864 -0.57973,-2.64687 -0.77326,-3.61829 -0.19353,-0.97141 -0.53588,-2.12202 -0.76076,-2.5569 -0.22489,-0.43488 -0.48921,-1.48555 -0.58739,-2.33483 -0.0982,-0.84928 -0.4098,-2.07993 -0.69249,-2.73477 -1.07318,-2.48605 -1.27395,-3.53869 -1.25995,-6.60613 0.008,-1.66884 0.11798,-3.13838 0.24525,-3.26565 0.34907,-0.34907 1.32107,0.27734 1.4737,0.94973 0.0734,0.32322 0.26012,1.18106 0.41499,1.90631 0.15487,0.72525 0.51296,1.84171 0.79576,2.48103 0.2828,0.63932 0.51797,1.29609 0.5226,1.45949 0.005,0.1634 0.18765,0.53426 0.40671,0.82414 0.36397,0.48161 0.38292,0.39039 0.21995,-1.05834 -0.0981,-0.87195 -0.29009,-1.80267 -0.42665,-2.06825 -0.22246,-0.43263 -0.53277,-2.47612 -0.91698,-6.03866 -0.0891,-0.82652 -0.005,-1.43394 0.25785,-1.85209 0.21477,-0.34221 0.39603,-1.00757 0.4028,-1.47857 0.007,-0.471 0.0874,-0.97786 0.17918,-1.126362 0.2882,-0.466323 1.54853,-1.001723 2.79973,-1.189353 1.20325,-0.180438 1.20458,-0.179752 1.62487,0.834287 4.0769,9.836398 5.53972,12.771558 7.26594,14.579178 0.40415,0.42322 2.69715,2.17841 2.84589,2.17841 0.587,0 3.66401,2.2805 5.02817,3.72658 1.70636,1.80883 2.21261,2.87031 2.89726,6.07484 0.0791,0.37031 0.65373,1.43023 1.27692,2.35538 2.27795,3.38172 2.90888,4.42054 3.92484,6.46223 0.56996,1.14542 0.97162,2.18722 0.89259,2.31511 -0.27649,0.447373 -1.99325,0.226903 -3.26963,-0.41989 -1.59752,-0.80952 -4.05139,-1.75224 -4.19284,-1.61079 -0.058,0.058 0.0441,0.79933 0.2269,1.64736 0.49293,2.286643 1.69178,4.555483 4.10013,7.759593 0.60159,0.80037 1.2908,1.8124 1.53157,2.24896 0.78234,1.41855 3.00209,4.39921 5.05476,6.78749 1.10423,1.28478 2.08411,2.54538 2.17751,2.80132 0.0934,0.25595 0.56555,1.09153 1.0492,1.85686 2.03161,3.21475 3.81171,7.50218 4.20684,10.13235 0.0753,0.50136 0.25021,2.16172 0.38862,3.68969 0.28001,3.090996 0.54112,4.284236 0.96869,4.426756 0.3837,0.1279 3.44666,-2.49214 4.77097,-4.081066 1.84666,-2.21565 2.44943,-3.83958 2.97635,-8.01861 0.25682,-2.03683 1.70465,-9.46219 2.42473,-12.43541 0.59806,-2.46943 1.0929,-4.92228 1.14761,-5.68854 0.0355,-0.49706 0.22033,-0.82573 0.49451,-0.8793 0.24082,-0.047 0.43785,0.0337 0.43785,0.17954 0,0.1458 0.15054,0.42242 0.33453,0.61471 0.75085,0.78472 2.04807,2.56251 2.30274,3.15582 0.14954,0.34837 0.38557,0.81199 0.52453,1.03027 0.6472,1.01666 1.20611,2.70194 3.07112,9.26041 0.39312,1.38245 0.81204,2.8112 0.93093,3.175 0.61981,1.89659 0.75594,4.433 0.38826,7.23417 -0.33519,2.55363 -0.49994,3.07007 -1.61068,5.048916 -2.07376,3.6945 -4.15523,6.05215 -6.60289,7.47896 -4.13858,2.41251 -9.22827,3.27055 -12.31643,2.07634 -0.28658,-0.11081 -0.54347,0.12087 -0.85244,0.76879 -0.67558,1.41672 -1.68089,1.72144 -4.71107,1.42799 -1.37114,-0.13278 -3.8622,-0.36186 -5.53569,-0.50907 -1.67349,-0.14721 -3.96026,-0.36758 -5.08171,-0.48972 -2.12709,-0.23168 -3.8914,0.001 -6.82454,0.90109 -1.90774,0.58524 -4.73592,0.776828 -5.42396,0.36743 z m 5.82084,-1.43816 c 2.76729,-0.82049 4.55421,-0.89918 9.525,-0.41947 1.89177,0.18257 4.33255,0.38302 5.42396,0.44543 1.09141,0.0624 2.59433,0.17511 3.33984,0.25043 1.83015,0.1849 2.74558,-0.4805 2.74558,-1.99567 0,-0.84015 0.0951,-1.03913 0.49677,-1.03913 0.27322,0 0.63956,0.17205 0.81408,0.38234 0.51333,0.61853 3.09355,1.02204 5.27268,0.82458 2.33248,-0.21137 4.56391,-0.93964 6.76293,-2.20721 2.08655,-1.20274 2.81002,-1.87924 4.67415,-4.37066 2.18751,-2.92363 3.00633,-4.827076 3.38041,-7.858206 0.3419,-2.77035 0.0558,-5.19898 -1.04422,-8.86355 -0.30578,-1.01864 -0.73231,-2.50692 -0.94787,-3.30729 -0.74094,-2.75115 -1.63613,-5.21408 -2.55778,-7.03716 -0.8792,-1.73911 -2.17511,-3.52894 -2.36777,-3.27021 -0.1819,0.24429 -1.29676,4.65906 -1.50047,5.94175 -0.11556,0.7276 -0.58426,2.94816 -1.04156,4.93457 -0.4573,1.98641 -0.89835,4.36766 -0.98011,5.29167 -0.26044,2.94339 -1.27282,6.77372 -2.11201,7.9908 -1.71262,2.483806 -7.01887,7.134776 -7.54255,6.611096 -0.12758,-0.12758 -0.41173,-2.25375 -0.63145,-4.724836 -0.56419,-6.34518 -1.49695,-9.32071 -4.47724,-14.28247 -0.87407,-1.45521 -1.68588,-2.68552 -1.80402,-2.73403 -0.11814,-0.0485 -0.21481,-0.23841 -0.21481,-0.42201 0,-0.18361 -0.78335,-1.21548 -1.74077,-2.29306 -0.95743,-1.07758 -2.14532,-2.55455 -2.63976,-3.28215 -0.49444,-0.7276 -1.12131,-1.62057 -1.39304,-1.98437 -0.27175,-0.36381 -0.95909,-1.35434 -1.52744,-2.20118 -0.56835,-0.84685 -1.4312,-2.09701 -1.91744,-2.77813 -1.34986,-1.89088 -2.90352,-5.36845 -3.10849,-6.957783 -0.10103,-0.7834 -0.28668,-1.70225 -0.41256,-2.04189 -0.37604,-1.01458 0.005,-1.14498 1.23605,-0.42335 1.33783,0.78401 5.3648,2.49608 5.87107,2.49608 0.18739,0 0.34071,-0.0795 0.34071,-0.1767 0,-0.40462 -2.50832,-4.79953 -3.2968,-5.77643 -1.47678,-1.82968 -2.19041,-3.15549 -2.4998,-4.64424 -0.64746,-3.11542 -2.4979,-5.63835 -5.58048,-7.60857 -6.32459,-4.04232 -6.73125,-4.57524 -10.33533,-13.54407 -0.66384,-1.65198 -1.01548,-2.27525 -1.0259,-1.81833 -0.018,0.78871 -0.62403,1.41699 -1.16617,1.20896 -0.20428,-0.0784 -0.42428,-0.68048 -0.50263,-1.37553 -0.22766,-2.01981 -0.77423,-2.14606 -2.15112,-0.49689 -0.56911,0.68165 -0.76338,1.19362 -0.76936,2.02758 -0.0115,1.60389 0.37541,5.0123 0.62426,5.4992 0.25922,0.50722 1.08261,4.9605 1.21969,6.59668 0.0549,0.65485 0.1259,1.48828 0.15784,1.85208 0.0433,0.49327 -0.0694,0.66146 -0.44325,0.66146 -0.3957,0 -0.63933,-0.44599 -1.15628,-2.11666 -0.36021,-1.16417 -1.05131,-3.24776 -1.53576,-4.63021 -0.48445,-1.38245 -0.95327,-3.07632 -1.04182,-3.76415 -0.25599,-1.98848 -0.65514,-1.77444 -0.69949,0.37509 -0.059,2.86034 0.008,3.27395 0.95287,5.88983 0.47565,1.31671 0.95139,3.09274 1.05721,3.94673 0.10582,0.85398 0.41975,1.92555 0.69762,2.38125 0.27787,0.45569 0.50567,1.14161 0.50621,1.52426 5.3e-4,0.38264 0.34341,2.10905 0.76193,3.83646 0.41852,1.7274 0.88232,3.85511 1.03066,4.72824 0.56583,3.33045 1.35538,7.171723 1.61299,7.847423 0.74281,1.94833 1.12229,5.09128 1.23805,10.25393 0.0672,2.99561 0.16435,5.80375 0.21594,6.24031 0.9577,8.10299 0.7447,20.766116 -0.38556,22.922486 -0.27735,0.52913 -0.50427,1.14432 -0.50427,1.36709 0,0.22276 -0.41672,1.19052 -0.92604,2.15058 -0.99626,1.87793 -1.1673,3.06045 -0.52034,3.59738 0.22314,0.18519 1.24401,0.41356 2.26861,0.50747 2.15287,0.19733 2.18042,0.17378 2.45849,-2.1023 0.0978,-0.80036 0.27526,-2.16958 0.39438,-3.0427 0.11913,-0.87313 0.23086,-4.6236 0.24828,-8.334376 0.0174,-3.71078 0.15279,-8.41375 0.30079,-10.45104 0.14801,-2.03729 0.27015,-4.09112 0.27142,-4.56406 0.003,-1.03366 0.58608,-1.14943 1.49394,-0.29654 l 0.59967,0.56337 0.76459,-0.64336 c 0.83887,-0.70586 3.45574,-1.45 4.15522,-1.18158 0.76401,0.29318 0.28933,0.7639 -1.13891,1.12941 -2.22856,0.57033 -2.55958,0.90762 -3.08643,3.14484 -0.79018,3.35535 -0.23638,6.00137 2.14546,10.25084 2.00185,3.571536 2.59391,4.483106 4.3407,6.683136 1.8151,2.28607 3.22987,4.59998 3.06894,5.01936 -0.0905,0.23581 -0.5802,0.25363 -1.93156,0.0703 -1.26673,-0.17188 -2.4062,-0.14752 -3.79471,0.0811 -3.16827,0.52171 -3.96875,1.12419 -3.96875,2.98708 0,1.67512 1.6435,1.82665 5.95313,0.54888 z m -3.97214,-59.912149 c -0.28618,-0.31623 -0.67032,-0.47322 -0.94478,-0.38611 -0.68482,0.21735 -0.87723,-0.33346 -0.25272,-0.72347 0.74365,-0.46443 0.67501,-0.73712 -0.18818,-0.74756 l -0.7276,-0.009 0.66146,-0.52027 c 1.35707,-1.0674 1.38056,-1.09781 1.0803,-1.39807 -0.54841,-0.54841 -0.33393,-1.04372 0.37491,-0.86582 0.38143,0.0957 0.66145,0.0519 0.66145,-0.10361 0,-0.14828 -0.11906,-0.26961 -0.26458,-0.26961 -0.14552,0 -0.26458,-0.11184 -0.26458,-0.24853 0,-0.13669 0.50601,-0.22599 1.12448,-0.19844 0.9897,0.0441 1.11419,-0.0133 1.03871,-0.47907 -0.0763,-0.4708 -0.007,-0.45195 0.62793,0.17092 0.75544,0.74104 0.68915,1.28428 -0.15673,1.28428 -0.28016,0 -0.89821,0.3477 -1.37345,0.77265 -0.81127,0.72544 -0.86376,0.87902 -0.85898,2.51354 0.003,0.9575 -0.008,1.7409 -0.0251,1.7409 -0.0166,0 -0.24725,-0.23981 -0.5125,-0.53291 z"
       id="path302"
       sodipodi:nodetypes="ssssscssscssscscssssssssssssscsssscssssccssssssssssssssssscssssssscsssssssssssssscssssssssssssssssssssssssssssssssssssssssscsssssssssssssscsssscssssssssssscsssssssccsscssccsscssssscsssscc" /><path
       id="path1853"
       style="fill:#000000;stroke:none;stroke-width:0.245665;-inkscape-stroke:none;stop-color:#000000"
       d="M 47.127873 16.345256 C 47.074673 16.340456 46.958458 16.444237 46.802828 16.625342 C 46.543458 16.927183 46.175524 17.444213 45.811674 18.031974 C 44.774025 19.708248 44.307474 20.655125 42.909526 23.923088 C 42.863082 24.031653 42.81488 24.140054 42.765348 24.247616 C 42.342313 24.328689 41.993218 24.368687 41.828455 24.344767 C 40.864876 24.20493 40.113407 24.128625 39.462708 24.129793 C 38.220439 24.131993 37.345203 24.416912 36.061365 25.084257 C 34.497366 25.897255 31.768555 28.053696 31.602205 28.608073 C 31.560005 28.748547 29.481121 30.336961 29.022001 30.579529 C 27.061043 31.615609 24.256233 32.0328 15.092102 32.649687 C 14.383543 32.697377 14.206191 32.709907 14.079761 33.217611 L 14.080278 33.217611 C 14.038078 33.386847 14.001683 33.610637 13.953153 33.909558 C 13.751344 35.152901 13.82981 36.519558 14.12782 36.945032 C 14.22272 37.080528 14.612934 37.323095 14.994434 37.484534 C 15.376003 37.645747 15.866013 38.035304 16.083773 38.350631 C 16.349733 38.736327 16.820618 39.015745 17.518827 39.203292 C 19.818995 39.279282 22.700668 39.609268 23.798547 40.086959 C 23.845394 40.107343 23.873278 40.143519 23.888464 40.188761 C 23.770146 40.183205 23.607357 40.258201 23.40684 40.453861 C 23.04877 40.803266 22.893439 40.977482 22.34799 40.791825 C 21.8345 40.617045 21.262988 40.798548 20.736719 40.685889 C 20.242159 40.579971 19.757345 40.485705 19.253605 40.455929 C 18.514136 40.412219 18.265129 40.35716 17.55035 40.67452 C 16.99504 40.921076 16.646164 41.299352 16.356624 41.831555 C 16.237594 42.050335 16.100958 42.860637 16.424837 42.54469 C 16.802667 42.176122 17.147812 41.680871 17.609261 41.428479 C 18.183562 41.114364 18.472998 41.029122 18.975069 41.002148 C 18.449259 41.123516 17.914393 41.687572 18.070732 42.062549 C 18.138332 42.224582 19.303749 42.811756 20.660238 43.367896 C 23.153765 44.389452 24.067527 44.54555 26.395805 44.349231 C 27.009084 44.297511 28.099603 44.407741 28.818913 44.594177 C 29.538222 44.78063 30.46816 44.876512 30.88597 44.807084 C 31.30378 44.737644 32.337735 44.792494 33.183504 44.929041 C 34.029273 45.065591 35.452877 45.278433 36.348686 45.388444 C 37.381535 45.515284 38.415183 46.737482 39.276672 47.607947 C 39.999122 48.337929 40.588027 49.19933 41.112736 50.082214 C 41.597958 50.898658 41.948214 51.629747 42.315247 52.646916 L 42.29561 52.646916 C 42.359209 52.905106 42.423648 53.164937 42.482678 53.384338 C 43.092458 55.650964 43.659376 60.467058 43.409237 61.255176 C 43.278347 61.667554 43.641699 66.889814 43.966309 69.259338 C 44.026109 69.695898 44.152728 72.732001 44.247428 76.006213 C 44.452118 83.085789 44.069959 88.908086 43.28728 90.632194 C 43.008401 91.246523 42.774415 91.987049 42.767415 92.278088 C 42.760415 92.569128 42.341289 93.456442 41.835689 94.250061 C 40.312901 96.640339 40.720788 98.704051 42.821676 99.23787 C 44.679164 99.70979 45.798854 99.834304 46.651933 99.663684 L 47.456535 99.50297 L 47.771761 95.890788 C 47.945241 93.90396 48.136341 91.742313 48.196541 91.087463 C 48.256741 90.432624 48.375174 86.0273 48.459574 81.29788 C 48.643024 71.02189 48.730821 70.270861 49.61971 71.341899 C 49.82241 71.586177 49.867433 72.42914 49.758203 73.921586 C 49.548313 76.78954 50.073233 79.294576 51.460942 82.046672 C 52.68578 84.475766 54.498515 87.440646 55.545964 88.728434 C 57.065462 90.596602 59.115379 93.60828 58.997949 93.799959 C 58.930949 93.909359 58.436744 93.930478 57.899825 93.846468 C 57.362906 93.762468 56.149755 93.831171 55.203866 93.99943 C 54.257977 94.16768 53.186415 94.334667 52.822616 94.370467 C 51.209187 94.529267 49.909333 96.092863 49.916333 97.865861 C 49.921333 99.01409 50.070571 99.325244 50.838241 99.782023 C 51.52628 100.19142 54.354461 99.999843 56.262199 99.414604 C 59.195326 98.514515 60.959501 98.281697 63.086589 98.513367 C 64.208037 98.635507 66.494961 98.856049 68.168449 99.003259 C 69.841927 99.150469 72.33289 99.379492 73.704028 99.512272 C 76.734195 99.805722 77.739789 99.501161 78.415369 98.084452 C 78.724338 97.436533 78.980933 97.204697 79.267513 97.315507 C 82.35567 98.509706 87.445509 97.651656 91.584074 95.239148 C 94.031731 93.812339 96.11353 91.454514 98.187288 87.760018 C 99.298017 85.781173 99.462336 85.264855 99.797526 82.71123 C 100.16521 79.910065 100.02925 77.373633 99.409436 75.477047 C 99.290546 75.113247 98.871863 73.684493 98.478743 72.302047 C 96.613735 65.743589 96.054812 64.058288 95.407613 63.04163 C 95.268653 62.82335 95.032627 62.360087 94.883097 62.011719 C 94.628428 61.418409 93.331245 59.640557 92.580396 58.855839 C 92.396406 58.663549 92.245532 58.386688 92.245532 58.240889 C 92.245532 58.09505 92.048653 58.014572 91.807833 58.061572 C 91.533653 58.115142 91.348789 58.44353 91.313289 58.940588 C 91.258589 59.706848 90.763615 62.159706 90.165556 64.62913 C 89.445478 67.602344 87.997717 75.027721 87.740898 77.064547 C 87.213978 81.243569 86.610992 82.867533 84.764335 85.083179 C 83.440026 86.672105 80.377267 89.292483 79.993567 89.164583 C 79.566007 89.022063 79.30516 87.828454 79.025151 84.737463 C 78.886741 83.209497 78.711844 81.549126 78.636544 81.047766 C 78.241414 78.417602 76.461173 74.130312 74.429565 70.915568 C 73.945916 70.15024 73.473417 69.314784 73.380017 69.058834 C 73.286617 68.802894 72.307118 67.542232 71.202889 66.257454 C 69.150221 63.86918 66.93025 60.888303 66.1479 59.469755 C 65.907131 59.033196 65.2178 58.021165 64.616211 57.220797 C 63.298622 55.467865 62.345123 53.996045 61.669104 52.646916 C 58.665177 45.570714 56.691934 37.752662 52.432458 31.259591 C 51.898379 30.445453 50.94916 29.886114 50.434131 29.128971 C 50.084505 28.614962 49.806566 28.138938 49.74115 27.949715 L 49.961292 27.689266 C 49.955292 27.690188 49.949172 27.690473 49.945272 27.689266 C 49.759222 27.630496 48.796847 20.868581 48.564478 19.217432 C 48.378818 17.898202 47.624202 16.390088 47.127873 16.345256 z M 47.012118 17.714681 C 47.091594 17.707995 47.213131 17.796344 47.301506 17.931722 C 47.525863 18.275509 48.384955 23.994171 48.745862 26.810767 L 48.714856 26.77666 C 48.009517 26.83696 47.926594 27.116407 48.435803 27.649475 C 48.548305 27.767276 48.724167 28.00986 48.912777 28.298531 C 48.933281 28.508031 48.959604 28.687662 48.992358 28.837 L 49.14067 28.6613 C 49.240046 28.824812 49.337812 28.991407 49.426957 29.154293 C 49.785977 29.810332 51.064945 30.692025 51.668164 31.626493 C 55.81168 38.045336 58.113437 45.765832 60.805074 52.646916 C 61.363073 53.85679 62.029587 55.071176 62.654057 55.945939 C 63.140296 56.627058 64.00342 57.877216 64.571769 58.724064 C 65.140119 59.570902 65.827585 60.561155 66.099325 60.924963 C 66.371054 61.288763 66.997565 62.18174 67.492004 62.909338 C 67.986434 63.636938 69.174724 65.114247 70.132153 66.191825 C 71.089572 67.269403 71.872616 68.301099 71.872616 68.484709 C 71.872616 68.668308 71.96941 68.858405 72.08759 68.906905 C 72.205729 68.955415 73.017545 70.185382 73.891614 71.640588 C 76.871901 76.602338 77.80467 79.577753 78.36886 85.922921 C 78.58858 88.394004 78.872766 90.520634 79.000346 90.648214 C 79.524025 91.171893 84.830421 86.520536 86.543038 84.036731 C 87.382217 82.819653 88.394097 78.989388 88.654537 76.046004 C 88.736337 75.121996 89.177539 72.740744 89.634839 70.754338 C 90.092137 68.767932 90.561076 66.547353 90.676636 65.819755 C 90.880346 64.537067 91.994903 60.122289 92.176803 59.877999 C 92.369462 59.619269 93.665428 61.408976 94.544617 63.148083 C 95.466266 64.97116 96.361661 67.434236 97.1026 70.18538 C 97.31816 70.985748 97.744566 72.474034 98.050346 73.492672 C 99.150365 77.157234 99.436626 79.585869 99.094727 82.356213 C 98.720647 85.387337 97.901562 87.291021 95.714054 90.214648 C 93.849926 92.706066 93.126469 93.382712 91.039921 94.585441 C 88.840904 95.85301 86.609503 96.581172 84.277026 96.792542 C 82.097909 96.989991 79.517809 96.586315 79.00448 95.967786 C 78.82996 95.757496 78.463796 95.58538 78.190576 95.58538 C 77.788907 95.58538 77.693449 95.784444 77.693449 96.624593 C 77.693449 98.139762 76.778028 98.805237 74.94788 98.620337 C 74.202371 98.545037 72.699441 98.432106 71.608032 98.369706 C 70.516623 98.307306 68.075842 98.106825 66.184074 97.924255 C 61.213299 97.444546 59.426361 97.523389 56.659074 98.343868 C 52.349468 99.621637 50.705949 99.470173 50.705949 97.795064 C 50.705949 95.932176 51.506432 95.329876 54.674699 94.808167 C 56.063208 94.579547 57.202581 94.555125 58.469299 94.727035 C 59.820668 94.910364 60.310464 94.892584 60.400964 94.656755 C 60.561894 94.237375 59.146999 91.922974 57.331901 89.636906 C 55.585123 87.436878 54.993445 86.525642 52.991597 82.95411 C 50.60977 78.704648 50.055813 76.058399 50.845992 72.703056 C 51.372841 70.46584 51.704078 70.128873 53.932625 69.558545 C 55.360864 69.193035 55.835066 68.722078 55.071057 68.428898 C 54.371588 68.160478 51.755141 68.90488 50.916272 69.610738 L 50.151461 70.25411 L 49.552014 69.69032 C 48.644155 68.837432 48.061048 68.953285 48.058049 69.986943 C 48.057049 70.459881 47.93424 72.513719 47.78623 74.551005 C 47.638231 76.588291 47.502874 81.291273 47.485474 85.002047 C 47.468074 88.712821 47.356547 92.463293 47.237427 93.336422 C 47.118297 94.209541 46.940935 95.578771 46.843136 96.37913 C 46.565056 98.655198 46.537249 98.678657 44.384371 98.481327 C 43.359772 98.387427 42.338915 98.159055 42.115776 97.973865 C 41.468816 97.436935 41.639908 96.254596 42.636157 94.376668 C 43.145477 93.416609 43.562199 92.448655 43.562199 92.225895 C 43.562199 92.003125 43.789211 91.388183 44.066561 90.859054 C 45.19682 88.702686 45.409756 76.039396 44.452067 67.936422 C 44.400467 67.499862 44.30326 64.69158 44.23606 61.695976 C 44.145037 57.635278 43.888519 54.833759 43.422673 52.870675 L 43.430941 52.871191 C 43.427241 52.862407 43.415597 52.832079 43.411304 52.821582 C 43.397716 52.765143 43.385974 52.701949 43.37203 52.646916 L 43.343091 52.646916 C 43.115424 52.06447 42.557622 50.578675 42.019657 49.701359 C 41.415788 48.716575 40.699611 47.777772 39.837362 47.009017 C 38.681403 45.978398 37.442226 44.687685 35.917187 44.515112 C 34.392129 44.342526 32.889556 44.098825 32.577856 43.973543 C 32.266157 43.848268 31.643224 43.837645 31.193445 43.950289 C 30.743665 44.062918 29.78243 44.007559 29.057141 43.826782 C 28.331832 43.645996 26.750529 43.511192 25.54366 43.527576 C 23.146053 43.560036 22.790494 43.487445 20.478337 42.491463 C 18.740778 41.742981 18.679818 41.295638 20.371366 41.707532 C 22.411284 41.997698 21.915312 41.78662 23.076111 41.8052 C 23.95928 41.412414 24.054344 41.374319 24.166484 41.000598 C 24.272433 40.647525 24.412822 39.778784 23.999052 39.657528 C 23.693792 39.568118 22.933926 39.365155 22.385197 39.201742 C 19.17352 38.569053 20.662309 39.323703 17.650602 38.306189 C 16.973293 38.02639 16.611851 37.674548 16.218132 36.912992 C 15.265592 35.070496 15.522985 34.595424 17.232023 35.044373 C 17.820133 35.198854 18.372758 35.18931 18.494478 35.022152 C 18.817508 34.578525 18.477781 33.799284 17.840771 33.523018 C 17.471702 33.362979 18.078554 33.235887 19.611723 33.151982 C 27.935474 32.696459 28.484909 32.488068 33.568494 27.843778 C 36.046231 25.580168 38.624706 24.66181 41.344763 25.074438 C 41.665686 25.123121 41.986176 25.144033 42.31473 25.137484 C 42.313701 25.139329 42.312657 25.141327 42.311629 25.143168 L 42.973604 25.70179 C 43.470164 24.979619 43.876187 24.066683 44.273267 22.814628 C 44.606806 21.762881 46.666972 17.889413 46.981112 17.723466 C 46.990537 17.718486 47.000764 17.715636 47.012118 17.714681 z M 34.57205 28.948621 C 34.362705 28.948803 34.126853 29.167439 33.907491 29.601294 C 33.728691 29.9549 33.640358 30.148409 33.644458 30.234847 L 33.643941 30.234847 C 33.647941 30.321277 33.745017 30.300545 33.936947 30.223995 C 34.316736 30.0725 34.401203 30.180322 34.641813 31.123165 C 34.792163 31.712354 35.011432 32.175047 35.129122 32.151526 C 35.246812 32.128006 35.309608 31.996558 35.268648 31.859037 C 35.227648 31.721542 35.299078 31.587933 35.426778 31.562415 C 35.560678 31.535655 35.676737 31.792685 35.701697 32.169613 C 35.747997 32.870081 36.234898 32.987436 36.552808 32.374768 C 36.726827 32.03935 36.759717 32.056334 38.060726 33.155082 L 38.694796 33.690967 L 38.497392 33.001603 C 38.263432 32.184089 38.479381 32.072323 39.08857 32.695162 C 39.60016 33.218206 40.020374 32.941626 39.640474 32.331877 C 39.488345 32.087421 39.51484 31.697109 39.70662 31.372245 C 39.88433 31.071144 40.026 30.81226 40.02133 30.79657 C 40.01633 30.78033 39.056557 29.684908 37.736198 29.49174 C 36.415839 29.298572 35.136152 29.793173 35.057292 29.52843 C 34.941977 29.141239 34.768707 28.948449 34.57205 28.948621 z M 19.436023 40.99078 C 19.940535 40.992433 19.986324 41.055679 20.486605 41.146326 C 20.947448 41.229821 21.971019 41.161069 22.445142 41.324093 C 22.042384 41.337349 21.538563 41.304859 20.931539 41.217639 C 20.320907 41.12895 19.630633 41.032195 19.324402 40.991813 C 19.363802 40.991331 19.401273 40.990666 19.436023 40.99078 z " /><path
       id="path596-5"
       style="fill:#000000;stroke:none;stroke-width:0.245665;-inkscape-stroke:none;stop-color:#000000"
       d="M 165.23591 21.953699 C 165.17316 21.948379 165.03729 21.99976 164.85092 22.094259 L 164.8504 22.094259 C 164.49545 22.27422 163.95846 22.611311 163.39778 23.015649 C 161.79879 24.168834 161.00595 24.866082 158.4663 27.352852 C 158.13211 27.680074 157.76998 27.99718 157.44827 28.252022 L 157.5294 28.408602 C 157.25446 28.335303 157.04031 28.261324 156.93512 28.195695 C 156.10902 27.680338 155.45144 27.308445 154.85515 27.047961 C 153.71685 26.55045 152.80098 26.45945 151.35717 26.554451 C 149.59829 26.670214 146.23292 27.547717 145.85776 27.988472 C 145.76266 28.100131 143.22082 28.719348 142.70292 28.756901 C 140.49089 28.917376 136.9905 27.552936 128.35134 24.434167 C 127.68337 24.193032 127.5157 24.133252 127.19585 24.547339 L 127.19637 24.547339 C 127.08971 24.685333 126.96668 24.875532 126.80208 25.129732 C 126.11752 26.187094 125.63983 27.470306 125.74168 27.979687 C 125.77408 28.141896 126.03396 28.520843 126.31839 28.822013 C 126.60298 29.123002 126.8948 29.676681 126.96744 30.052946 C 127.05594 30.513012 127.37503 30.958102 127.93896 31.410486 C 130.01458 32.404652 133.28502 34.483996 134.09827 35.362699 C 134.16284 35.432466 134.1501 35.524704 134.09362 35.621082 C 133.98444 35.571328 133.80259 35.587087 133.54017 35.713582 C 133.0895 35.930811 132.88658 36.047205 132.42861 35.697563 C 132.09229 35.440788 131.65371 35.377281 131.2571 35.231958 C 130.90909 35.028773 130.56234 34.818553 130.25406 34.626827 C 129.71021 34.287496 129.06469 33.888532 128.81953 33.740576 C 128.68875 33.661632 128.52524 33.625932 128.35444 33.623271 C 128.22805 33.585921 128.08609 33.569702 127.91777 33.585547 C 127.31286 33.642497 126.86202 33.889954 126.41812 34.302299 C 126.23563 34.471804 125.84773 35.196326 126.25534 34.999931 C 126.61962 34.824413 126.98936 34.572567 127.37517 34.422705 C 127.59753 34.787884 128.30161 35.617151 129.14147 36.486662 C 131.01406 38.424359 132.55253 39.553054 134.76335 40.309167 C 135.34569 40.508342 136.29994 41.047685 136.88363 41.507544 C 137.46733 41.967401 138.28028 42.428952 138.69076 42.533321 C 139.10122 42.637717 140.02587 43.103909 140.74541 43.568917 C 141.46496 44.033915 142.68291 44.801026 143.45894 45.261837 C 144.35369 45.793143 146.01114 46.906087 147.21789 47.824471 C 148.75408 48.993573 150.52668 49.987868 151.63726 51.566878 C 151.87945 51.911233 152.11144 52.268808 152.3013 52.646916 L 152.29561 52.646916 C 152.35921 52.905105 152.42365 53.164939 152.48268 53.384338 C 153.09246 55.650966 153.65938 60.467057 153.40924 61.255176 C 153.27835 61.667555 153.6417 66.889821 153.96631 69.259338 C 154.02611 69.695898 154.15273 72.731997 154.24743 76.006213 C 154.45212 83.085786 154.06996 88.908086 153.28728 90.632194 C 153.0084 91.246523 152.77442 91.987049 152.76742 92.278088 C 152.76042 92.569128 152.34129 93.456442 151.83569 94.250061 C 150.3129 96.640339 150.72079 98.704051 152.82168 99.23787 C 154.67917 99.70979 155.79886 99.834304 156.65194 99.663684 L 157.45654 99.50297 L 157.77177 95.890788 C 157.94524 93.90396 158.13635 91.742313 158.19655 91.087463 C 158.25675 90.432624 158.37518 86.027295 158.45958 81.29788 C 158.64303 71.02189 158.73083 70.27087 159.61971 71.341899 C 159.82241 71.586178 159.86744 72.429138 159.75821 73.921586 C 159.54832 76.789543 160.07324 79.294574 161.46095 82.046672 C 162.68578 84.475759 164.49852 87.440646 165.54597 88.728434 C 167.06547 90.596602 169.11538 93.60828 168.99795 93.799959 C 168.93095 93.909359 168.43675 93.930478 167.89983 93.846468 C 167.36291 93.762468 166.14976 93.831171 165.20387 93.99943 C 164.25798 94.16768 163.18642 94.334667 162.82262 94.370467 C 161.20919 94.529267 159.90934 96.092863 159.91634 97.865861 C 159.92134 99.01409 160.07058 99.325244 160.83824 99.782023 C 161.52628 100.19142 164.35446 99.999843 166.2622 99.414604 C 169.19533 98.514515 170.9595 98.281697 173.08659 98.513367 C 174.20804 98.635507 176.49496 98.856049 178.16845 99.003259 C 179.84193 99.150469 182.33289 99.379492 183.70403 99.512272 C 186.7342 99.805722 187.73979 99.501161 188.41537 98.084452 C 188.72434 97.436533 188.98094 97.204697 189.26752 97.315507 C 192.35567 98.509706 197.44551 97.651656 201.58408 95.239148 C 204.03174 93.812339 206.11353 91.454514 208.18729 87.760018 C 209.29802 85.78118 209.46234 85.264848 209.79753 82.71123 C 210.16521 79.910063 210.02925 77.373635 209.40944 75.477047 C 209.29055 75.113247 208.87187 73.684495 208.47875 72.302047 C 206.61374 65.743593 206.05482 64.058289 205.40762 63.04163 C 205.26866 62.82335 205.03263 62.360088 204.8831 62.011719 C 204.62843 61.418409 203.33125 59.640548 202.5804 58.855839 C 202.39641 58.663549 202.24554 58.386689 202.24554 58.240889 C 202.24554 58.09505 202.04866 58.014572 201.80784 58.061572 C 201.53366 58.115172 201.34879 58.443529 201.31329 58.940588 C 201.25859 59.706848 200.76362 62.159703 200.16556 64.62913 C 199.44548 67.602337 197.99772 75.027729 197.7409 77.064547 C 197.21398 81.243573 196.611 82.867531 194.76434 85.083179 C 193.44003 86.672097 190.37727 89.292483 189.99357 89.164583 C 189.56601 89.022063 189.30516 87.82845 189.02515 84.737463 C 188.88674 83.209495 188.71185 81.549126 188.63655 81.047766 C 188.24142 78.417609 186.46118 74.130315 184.42957 70.915568 C 183.94592 70.150249 183.47342 69.314784 183.38002 69.058834 C 183.28662 68.802894 182.30712 67.542233 181.20289 66.257454 C 179.15023 63.869177 176.93025 60.888304 176.1479 59.469755 C 175.90713 59.033195 175.2178 58.021166 174.61622 57.220797 C 173.29863 55.467868 172.34513 53.996044 171.66911 52.646916 C 168.94599 46.23221 167.06943 39.207996 163.56934 33.113741 C 163.83139 31.637235 165.13168 26.551216 165.48912 25.162288 C 165.82115 23.872099 165.69975 22.190297 165.25813 21.959383 C 165.25222 21.956267 165.24487 21.954459 165.23591 21.953699 z M 164.59615 23.17688 C 164.68105 23.16888 164.77893 23.310012 164.8132 23.491589 C 164.9058 23.982128 162.82876 32.187271 162.38802 33.54834 C 162.30302 33.810749 162.24565 34.03177 162.21284 34.216516 L 162.9823 33.817574 C 166.32502 39.755938 168.41298 46.531595 170.80508 52.646916 C 171.36308 53.856794 172.02959 55.07117 172.65406 55.945939 C 173.1403 56.627058 174.00342 57.877215 174.57177 58.724064 C 175.14012 59.570903 175.82759 60.561154 176.09933 60.924963 C 176.37106 61.288763 176.99757 62.181739 177.49201 62.909338 C 177.98644 63.636938 179.17473 65.114246 180.13216 66.191825 C 181.08958 67.269404 181.87262 68.301099 181.87262 68.484709 C 181.87262 68.668308 181.96941 68.858405 182.08759 68.906905 C 182.20573 68.955405 183.01755 70.18538 183.89162 71.640588 C 186.8719 76.602333 187.80467 79.577747 188.36886 85.922921 C 188.58858 88.393998 188.87277 90.520634 189.00035 90.648214 C 189.52403 91.171893 194.83042 86.520538 196.54304 84.036731 C 197.38222 82.819652 198.3941 78.989391 198.65454 76.046004 C 198.73634 75.121995 199.17754 72.740746 199.63484 70.754338 C 200.09214 68.76794 200.56108 66.547354 200.67664 65.819755 C 200.88035 64.537066 201.99491 60.122289 202.17681 59.877999 C 202.36947 59.619269 203.66543 61.408975 204.54462 63.148083 C 205.46627 64.971162 206.36166 67.434233 207.1026 70.18538 C 207.31816 70.985749 207.74457 72.474033 208.05035 73.492672 C 209.15037 77.157228 209.43663 79.585866 209.09473 82.356213 C 208.72065 85.38734 207.90157 87.291021 205.71406 90.214648 C 203.84993 92.706066 203.12647 93.382712 201.03993 94.585441 C 198.84091 95.85301 196.60951 96.581172 194.27703 96.792542 C 192.09791 96.989991 189.51781 96.586315 189.00448 95.967786 C 188.82996 95.757496 188.4638 95.58538 188.19058 95.58538 C 187.78891 95.58538 187.69345 95.784444 187.69345 96.624593 C 187.69345 98.139762 186.77803 98.805237 184.94788 98.620337 C 184.20237 98.545037 182.69945 98.432106 181.60804 98.369706 C 180.51663 98.307306 178.07585 98.106825 176.18408 97.924255 C 171.2133 97.444546 169.42637 97.523389 166.65908 98.343868 C 162.34947 99.621637 160.70595 99.470173 160.70595 97.795064 C 160.70595 95.932176 161.50644 95.329876 164.6747 94.808167 C 166.06321 94.579547 167.20258 94.555125 168.4693 94.727035 C 169.82067 94.910364 170.31047 94.892584 170.40097 94.656755 C 170.5619 94.237375 169.147 91.922974 167.33191 89.636906 C 165.58513 87.436878 164.99345 86.525646 162.9916 82.95411 C 160.60977 78.704644 160.05582 76.058392 160.846 72.703056 C 161.37285 70.465838 161.70408 70.128874 163.93263 69.558545 C 165.36087 69.193035 165.83507 68.722078 165.07106 68.428898 C 164.37159 68.160478 161.75515 68.904879 160.91628 69.610738 L 160.15146 70.25411 L 159.55202 69.69032 C 158.64416 68.837431 158.06105 68.953284 158.05805 69.986943 C 158.05705 70.459882 157.93424 72.513727 157.78623 74.551005 C 157.63823 76.588293 157.50288 81.29127 157.48548 85.002047 C 157.46808 88.712813 157.35655 92.463293 157.23743 93.336422 C 157.1183 94.209541 156.94094 95.578771 156.84314 96.37913 C 156.56506 98.655198 156.53725 98.678657 154.38437 98.481327 C 153.35978 98.387427 152.33892 98.159055 152.11578 97.973865 C 151.46882 97.436935 151.63991 96.254596 152.63616 94.376668 C 153.14548 93.416609 153.5622 92.448655 153.5622 92.225895 C 153.5622 92.003125 153.78922 91.388183 154.06656 90.859054 C 155.19682 88.702686 155.40976 76.039394 154.45207 67.936422 C 154.40047 67.499862 154.30326 64.691583 154.23606 61.695976 C 154.14166 57.48462 153.8715 54.618224 153.37203 52.646916 L 153.32191 52.646916 C 153.19882 52.236133 153.03418 51.81163 152.80411 51.490397 C 151.58143 49.783257 149.65501 48.658667 147.97185 47.377987 C 146.51131 46.266702 144.74206 45.059799 143.41502 44.28877 C 142.08796 43.517732 140.80994 42.690127 140.57488 42.450122 C 140.33983 42.210118 139.77371 41.950495 139.31656 41.872896 C 138.85945 41.795226 138.00166 41.35796 137.41022 40.900863 C 136.81876 40.443776 135.42491 39.684776 134.31325 39.214661 C 132.1048 38.280677 131.04378 37.452144 129.32699 35.610746 C 128.77708 35.020928 128.48673 34.605885 128.43867 34.403068 C 128.74298 34.538086 128.99639 34.768359 129.36936 34.883142 C 129.63466 34.964797 129.79558 35.02451 129.9192 35.081063 C 131.32023 35.945767 131.78126 36.203795 132.7459 36.645825 C 133.71247 36.641125 133.81489 36.644287 134.06779 36.347135 C 134.30673 36.066424 134.78446 35.3274 134.45433 35.050057 C 134.21075 34.845495 133.5966 34.354168 133.15983 33.983972 C 130.47335 32.113679 130.76876 32.784333 128.42007 30.642057 C 127.91235 30.113605 127.72308 29.646078 127.66869 28.790491 C 127.5371 26.720512 127.96374 26.389161 129.34818 27.487211 C 129.82459 27.865058 130.33432 28.078119 130.51296 27.974003 C 130.98707 27.697635 130.98935 26.847972 130.5171 26.338961 C 130.24349 26.044067 130.84995 26.171591 132.28753 26.711031 C 140.09233 29.63975 141.4435 30.288595 147.96513 28.079423 C 151.14378 27.002678 153.87395 27.198385 156.19873 28.669568 C 156.60353 28.925792 157.03044 29.126883 157.50822 29.28245 L 157.72577 28.78739 L 157.8467 29.020968 C 158.58134 28.543062 159.30492 27.854646 160.14991 26.849007 C 160.8597 26.004258 164.24246 23.210335 164.59615 23.17688 z M 148.27622 30.536121 C 148.06688 30.5363 147.83102 30.754948 147.61166 31.188794 C 147.43286 31.542404 147.34453 31.735907 147.34863 31.822347 L 147.34811 31.822347 C 147.35211 31.908747 147.44919 31.887995 147.64112 31.811495 C 148.02091 31.659995 148.10537 31.767846 148.34598 32.710665 C 148.49633 33.299854 148.7156 33.762546 148.83329 33.739026 C 148.95098 33.715526 149.01378 33.584057 148.97282 33.446537 C 148.93182 33.309037 149.00325 33.175425 149.13095 33.149915 C 149.26485 33.123115 149.38091 33.380183 149.40587 33.757113 C 149.45217 34.457582 149.93907 34.574937 150.25698 33.962268 C 150.431 33.626848 150.46389 33.643833 151.7649 34.742582 L 152.39897 35.278467 L 152.20156 34.589103 C 151.9676 33.771594 152.18355 33.659823 152.79274 34.282662 C 153.30433 34.805711 153.72454 34.529126 153.34465 33.919377 C 153.19252 33.674917 153.21901 33.284615 153.41079 32.959745 C 153.5885 32.658646 153.73017 32.39976 153.7255 32.38407 C 153.7205 32.36787 152.76073 31.27241 151.44037 31.07924 C 150.12001 30.88607 148.84032 31.38071 148.76146 31.11593 C 148.64615 30.728741 148.47288 30.535952 148.27622 30.536121 z " /><path
       id="path596-3"
       style="fill:#000000;stroke:none;stroke-width:0.245665;-inkscape-stroke:none;stop-color:#000000"
       d="M 243.97684 19.134749 C 243.8385 19.130398 243.71185 19.196122 243.53759 19.344556 C 243.40478 19.457617 243.24512 19.618579 243.03168 19.833415 C 242.14395 20.727037 241.41225 21.884368 241.40697 22.4038 C 241.40497 22.569215 241.58136 22.993584 241.79764 23.346895 C 242.0141 23.700065 242.18597 24.301643 242.17953 24.684798 C 242.17153 25.153231 242.39166 25.65452 242.85029 26.213387 C 244.67654 27.613873 248.4155 31.146848 249.03028 32.174264 C 249.04095 32.1921 249.04795 32.210223 249.05146 32.228524 C 249.05498 32.246824 249.05494 32.265283 249.05198 32.283818 C 249.04311 32.33942 249.00691 32.395619 248.95225 32.449182 C 248.94526 32.456032 248.93656 32.462577 248.92899 32.469336 C 248.89243 32.330861 248.70713 32.233513 248.32179 32.270382 C 247.82377 32.318032 247.59364 32.35705 247.28516 31.870406 C 246.99476 31.412275 246.43592 31.194686 246.09661 30.776933 C 245.77776 30.384313 245.45955 30.007017 245.08582 29.667957 C 244.5372 29.170227 244.22871 28.620102 243.62131 28.24117 C 243.10581 27.919577 242.52537 27.631946 241.96611 27.864966 C 241.7362 27.960756 241.12141 28.50641 241.57182 28.463379 C 241.72058 28.449169 241.87387 28.468057 242.02864 28.504203 C 241.82694 28.575617 241.67257 28.695881 241.63486 28.859737 C 241.59556 29.030844 242.20162 30.186853 242.98103 31.428573 C 244.4142 33.710519 246.65423 35.956847 248.66182 37.152254 C 249.19063 37.467122 250.01319 38.191215 250.48962 38.761458 C 250.96604 39.331716 251.66647 39.950896 252.04663 40.137602 C 252.42681 40.324298 253.23564 40.970416 253.84394 41.57369 C 254.45224 42.176967 257.07332 43.178757 257.73776 43.789575 C 258.50384 44.493835 259.71026 46.007175 260.41408 47.298922 C 260.93639 48.257526 261.17256 49.346368 261.52564 50.379354 C 261.78739 51.145128 262.10731 51.850659 262.32301 52.646916 L 262.29562 52.646916 C 262.35922 52.905106 262.42366 53.164937 262.48269 53.384338 C 263.09247 55.650964 263.65938 60.467058 263.40924 61.255176 C 263.27835 61.667554 263.64171 66.889814 263.96632 69.259338 C 264.02612 69.695898 264.15274 72.732001 264.24744 76.006213 C 264.45213 83.085789 264.06997 88.908086 263.28729 90.632194 C 263.00841 91.246523 262.77442 91.987049 262.76742 92.278088 C 262.76042 92.569128 262.3413 93.456442 261.8357 94.250061 C 260.31291 96.640339 260.7208 98.704051 262.82168 99.23787 C 264.67917 99.70979 265.79886 99.834304 266.65194 99.663684 L 267.45654 99.50297 L 267.77177 95.890788 C 267.94525 93.90396 268.13635 91.742313 268.19655 91.087463 C 268.25675 90.432624 268.37518 86.0273 268.45958 81.29788 C 268.64303 71.02189 268.73083 70.270861 269.61972 71.341899 C 269.82242 71.586177 269.86744 72.42914 269.75821 73.921586 C 269.54832 76.78954 270.07324 79.294576 271.46095 82.046672 C 272.68579 84.475766 274.49852 87.440646 275.54597 88.728434 C 277.06547 90.596602 279.11539 93.60828 278.99796 93.799959 C 278.93096 93.909359 278.43675 93.930478 277.89983 93.846468 C 277.36291 93.762468 276.14976 93.831171 275.20387 93.99943 C 274.25798 94.16768 273.18642 94.334667 272.82262 94.370467 C 271.2092 94.529267 269.90934 96.092863 269.91634 97.865861 C 269.92134 99.01409 270.07058 99.325244 270.83825 99.782023 C 271.52629 100.19142 274.35447 99.999843 276.26221 99.414604 C 279.19533 98.514515 280.95951 98.281697 283.0866 98.513367 C 284.20805 98.635507 286.49497 98.856049 288.16846 99.003259 C 289.84194 99.150469 292.3329 99.379492 293.70404 99.512272 C 296.7342 99.805722 297.7398 99.501161 298.41538 98.084452 C 298.72435 97.436533 298.98094 97.204697 299.26752 97.315507 C 302.35568 98.509706 307.44551 97.651656 311.58408 95.239148 C 314.03173 93.812339 316.11354 91.454514 318.1873 87.760018 C 319.29803 85.781173 319.46234 85.264855 319.79753 82.71123 C 320.16521 79.910065 320.02925 77.373633 319.40944 75.477047 C 319.29055 75.113247 318.87187 73.684493 318.47875 72.302047 C 316.61374 65.743589 316.05482 64.058288 315.40762 63.04163 C 315.26866 62.82335 315.03264 62.360087 314.88311 62.011719 C 314.62844 61.418409 313.33125 59.640557 312.5804 58.855839 C 312.39641 58.663549 312.24554 58.386688 312.24554 58.240889 C 312.24554 58.09505 312.04866 58.014572 311.80784 58.061572 C 311.53366 58.115142 311.3488 58.44353 311.3133 58.940588 C 311.2586 59.706848 310.76362 62.159706 310.16556 64.62913 C 309.44548 67.602344 307.99773 75.027721 307.74091 77.064547 C 307.21399 81.243569 306.61099 82.867533 304.76434 85.083179 C 303.44003 86.672105 300.37727 89.292483 299.99358 89.164583 C 299.56602 89.022063 299.30517 87.828454 299.02516 84.737463 C 298.88675 83.209497 298.71185 81.549126 298.63655 81.047766 C 298.24142 78.417602 296.46118 74.130312 294.42957 70.915568 C 293.94592 70.15024 293.47343 69.314784 293.38003 69.058834 C 293.28663 68.802894 292.30713 67.542232 291.2029 66.257454 C 289.15023 63.86918 286.93026 60.888303 286.14791 59.469755 C 285.90714 59.033196 285.21781 58.021165 284.61622 57.220797 C 283.29863 55.467865 282.34513 53.996045 281.66911 52.646916 C 279.5867 47.741482 277.99855 42.480027 275.80177 37.550163 L 275.84053 37.55068 C 275.83553 37.54668 275.83139 37.542077 275.83019 37.538277 C 275.75729 37.357286 280.36633 32.316845 281.49341 31.088025 C 282.39391 30.106226 283.07857 28.565004 282.79773 28.15332 C 282.76763 28.1092 282.61374 28.085497 282.37501 28.080457 C 281.97713 28.072057 281.34387 28.116472 280.65884 28.209131 C 278.70518 28.473408 277.67745 28.715177 274.26595 29.712915 C 273.85545 29.832963 273.42889 29.934376 273.05 30.006954 C 272.96709 29.955143 272.89554 29.906661 272.85363 29.866394 C 272.15144 29.19188 271.58511 28.692305 271.05529 28.314551 C 270.04381 27.593344 269.16593 27.315517 267.73353 27.111007 C 265.98854 26.861887 262.51479 27.027795 262.05687 27.381791 C 261.9408 27.471461 259.32561 27.55303 258.81108 27.483077 C 256.61345 27.184336 252.50222 24.303531 244.69101 19.47168 C 244.35129 19.261531 244.1547 19.140344 243.97684 19.134749 z M 246.44956 21.631755 C 246.63691 21.648798 247.18355 21.944227 248.07426 22.510771 C 255.10818 26.984743 257.26378 28.722302 264.10068 27.90424 C 267.43296 27.505528 270.06381 28.259392 272.03559 30.178003 C 272.3091 30.444134 272.60522 30.678273 272.93373 30.889587 L 272.93373 30.892688 C 272.9351 30.892569 272.93649 30.892291 272.93786 30.892171 C 273.02047 30.945213 273.10342 30.998054 273.19056 31.048234 L 273.33629 30.845146 C 274.10374 30.731324 274.95339 30.476542 275.98832 30.061214 C 277.0123 29.650264 281.31239 28.779006 281.64017 28.916064 C 281.71887 28.948954 281.73826 29.119576 281.68306 29.295886 C 281.5337 29.772214 275.83781 36.032508 274.80803 37.025647 C 274.60946 37.217097 274.45476 37.384551 274.33881 37.532076 L 274.88451 37.538794 C 277.18935 42.489645 278.90053 47.777997 280.80508 52.646916 C 281.36308 53.85679 282.0296 55.071176 282.65406 55.945939 C 283.1403 56.627058 284.00343 57.877216 284.57178 58.724064 C 285.14013 59.570902 285.82759 60.561155 286.09933 60.924963 C 286.37106 61.288763 286.99757 62.18174 287.49201 62.909338 C 287.98644 63.636938 289.17473 65.114247 290.13216 66.191825 C 291.08958 67.269403 291.87262 68.301099 291.87262 68.484709 C 291.87262 68.668308 291.96942 68.858405 292.0876 68.906905 C 292.20574 68.955415 293.01755 70.185382 293.89162 71.640588 C 296.87191 76.602338 297.80468 79.577753 298.36887 85.922921 C 298.58859 88.394004 298.87277 90.520634 299.00035 90.648214 C 299.52403 91.171893 304.83044 86.520536 306.54305 84.036731 C 307.38223 82.819653 308.39411 78.989388 308.65455 76.046004 C 308.73635 75.121996 309.17755 72.740744 309.63485 70.754338 C 310.09215 68.767932 310.56107 66.547353 310.67664 65.819755 C 310.88035 64.537067 311.99491 60.122289 312.17681 59.877999 C 312.36947 59.619269 313.66544 61.408976 314.54462 63.148083 C 315.46627 64.97116 316.36166 67.434236 317.10261 70.18538 C 317.31816 70.985748 317.74457 72.474034 318.05035 73.492672 C 319.15037 77.157234 319.43662 79.585869 319.09473 82.356213 C 318.72065 85.387337 317.90157 87.291021 315.71406 90.214648 C 313.84994 92.706066 313.12647 93.382715 311.03993 94.585441 C 308.8409 95.85301 306.6095 96.581172 304.27703 96.792542 C 302.09792 96.989991 299.51782 96.586315 299.00449 95.967786 C 298.82997 95.757496 298.4638 95.58538 298.19058 95.58538 C 297.78891 95.58538 297.69346 95.784444 297.69346 96.624593 C 297.69346 98.139762 296.77804 98.805237 294.94789 98.620337 C 294.20238 98.545037 292.69945 98.432106 291.60804 98.369706 C 290.51663 98.307306 288.07585 98.106825 286.18408 97.924255 C 281.21331 97.444546 279.42637 97.523389 276.65908 98.343868 C 272.34948 99.621637 270.70596 99.470173 270.70596 97.795064 C 270.70596 95.932176 271.50644 95.329876 274.67471 94.808167 C 276.06322 94.579547 277.20259 94.555125 278.46931 94.727035 C 279.82068 94.910364 280.31047 94.892584 280.40097 94.656755 C 280.5619 94.237375 279.14701 91.922974 277.33191 89.636906 C 275.58513 87.436878 274.99345 86.525642 272.99161 82.95411 C 270.60978 78.704648 270.05582 76.058399 270.846 72.703056 C 271.37285 70.46584 271.70409 70.128873 273.93263 69.558545 C 275.36087 69.193035 275.83507 68.722078 275.07107 68.428898 C 274.3716 68.160478 271.75515 68.90488 270.91628 69.610738 L 270.15147 70.25411 L 269.55202 69.69032 C 268.64416 68.837432 268.06106 68.953285 268.05806 69.986943 C 268.05706 70.459881 267.93425 72.513719 267.78624 74.551005 C 267.63824 76.588291 267.50288 81.291273 267.48548 85.002047 C 267.46808 88.712821 267.35655 92.463293 267.23743 93.336422 C 267.11831 94.209538 266.94094 95.578771 266.84314 96.37913 C 266.56506 98.655198 266.53726 98.678657 264.38438 98.481327 C 263.35978 98.387427 262.33892 98.159055 262.11578 97.973865 C 261.46882 97.436935 261.63992 96.254596 262.63617 94.376668 C 263.14548 93.416612 263.56221 92.448655 263.56221 92.225895 C 263.56221 92.003125 263.78922 91.388183 264.06657 90.859054 C 265.19683 88.702686 265.40976 76.039396 264.45208 67.936422 C 264.40048 67.499862 264.30327 64.69158 264.23607 61.695976 C 264.14866 57.796395 263.90827 55.060299 263.47694 53.109937 C 263.55917 52.725759 262.87829 51.430434 262.56537 50.597428 C 262.13021 49.439059 261.82952 48.213821 261.21868 47.137691 C 260.32014 45.554718 259.00511 43.856296 257.8654 42.828394 C 256.72568 41.800469 254.08806 40.727845 253.9075 40.44456 C 253.72694 40.161279 253.22674 39.789973 252.79542 39.619804 C 252.36411 39.449622 251.61448 38.845338 251.12989 38.276217 C 250.64529 37.707075 249.4378 36.677055 248.44685 35.987984 C 246.47824 34.61898 244.64385 32.765611 243.34329 30.610018 C 242.36594 28.990106 242.57694 28.590895 243.71277 29.910319 C 245.20274 31.333507 246.50964 32.460258 247.44278 33.150948 C 248.38956 33.34554 248.48903 33.36995 248.79773 33.131311 C 249.08938 32.905858 249.70907 32.281137 249.44317 31.94172 C 249.24697 31.691353 248.74733 31.083968 248.39621 30.631722 C 246.15272 28.248038 245.33662 28.140951 243.47971 25.560714 C 243.09177 24.938991 243.00268 24.442342 243.12573 23.593909 C 243.42346 21.541233 243.90927 21.305031 245.03776 22.664766 C 245.42609 23.132668 245.8807 23.446609 246.07697 23.381519 C 246.59784 23.208768 246.77525 22.377011 246.41803 21.781616 C 246.35335 21.673822 246.36439 21.624008 246.44956 21.631755 z M 243.56549 28.992546 C 244.03303 29.238124 244.28299 29.730333 244.69721 30.046745 C 245.12153 30.370869 245.2137 30.485098 245.36952 30.682882 C 245.3605 30.674791 245.35058 30.666137 245.34161 30.658077 C 244.99335 30.345112 244.6804 30.055509 244.4533 29.837972 C 244.1172 29.515049 243.8296 29.242604 243.56549 28.992546 z M 262.00365 29.051457 C 261.8329 29.053304 261.61159 29.116957 261.34736 29.24731 C 260.992 29.422602 260.80483 29.524042 260.75618 29.59561 C 260.70748 29.667109 260.79754 29.70843 260.99699 29.762524 C 261.39162 29.869549 261.39424 30.006779 261.02024 30.90509 C 260.78651 31.466447 260.68361 31.967859 260.79183 32.019751 C 260.90005 32.071641 261.02981 32.003915 261.07967 31.869373 C 261.12947 31.73482 261.26611 31.670953 261.38353 31.727262 C 261.50665 31.786302 261.44526 32.062049 261.23883 32.378385 C 260.85508 32.966203 261.17426 33.35212 261.79642 33.05328 C 262.13703 32.889657 262.15271 32.922964 262.53281 34.582902 L 262.71781 35.392155 L 262.97413 34.722945 C 263.27817 33.928825 263.51805 33.969131 263.63094 34.833016 C 263.72574 35.558489 264.22777 35.589523 264.29033 34.87384 C 264.31553 34.58702 264.57128 34.29127 264.91975 34.146753 C 265.2427 34.012782 265.51144 33.890801 265.51713 33.875452 C 265.52313 33.859462 265.01232 32.743568 264.07277 31.795992 C 263.13322 30.848415 262.21461 30.138339 262.3106 29.879313 C 262.50988 29.341636 262.37929 29.047392 262.00365 29.051457 z " /><path
       id="path521-7-9"
       style="fill:#000000;stroke-width:0.264583"
       d="M 363.28274 13.480831 C 363.19652 13.48396 363.09773 13.508643 362.97474 13.553178 L 362.97474 13.553695 C 362.81072 13.613035 362.60502 13.707388 362.32982 13.833781 C 361.18518 14.359529 360.09426 15.186773 359.90723 15.671395 C 359.84733 15.82561 359.86409 16.285299 359.94289 16.692004 C 360.02179 17.09864 359.97162 17.722417 359.83127 18.079 C 359.65958 18.514913 359.69006 19.061388 359.92377 19.745565 C 361.14324 21.697345 363.88669 27.097032 364.10232 28.27476 C 364.16222 28.601898 363.29619 28.661873 362.9949 28.508854 C 362.6058 28.311228 360.69999 24.835261 360.15424 23.701912 C 359.87699 23.123918 359.54553 22.441515 359.41785 22.185209 C 359.15232 21.651978 358.12334 21.396531 357.85774 21.798153 C 357.76094 21.94462 357.92322 23.239354 358.21793 24.675496 C 358.76028 27.315024 360.5508 30.984019 362.01201 32.8073 C 362.39689 33.287552 362.91343 34.254429 363.15975 34.955489 C 363.40605 35.656565 363.84531 36.481883 364.13591 36.790002 C 364.42652 37.09811 364.95744 37.987363 365.31569 38.765592 C 365.67392 39.54382 367.66961 41.400723 368.07779 42.205693 C 368.54839 43.133799 369.38088 45.009981 369.99137 46.430241 C 370.532 47.687977 371.06209 48.951304 371.54011 50.234143 C 371.84019 51.039444 371.9481 51.508014 372.35608 52.646916 L 372.29562 52.646916 C 372.35922 52.905105 372.42366 53.164939 372.48269 53.384338 C 373.09247 55.650966 373.65939 60.467057 373.40925 61.255176 C 373.27836 61.667555 373.64171 66.889821 373.96632 69.259338 C 374.02612 69.695898 374.15274 72.731997 374.24744 76.006213 C 374.45213 83.085786 374.06997 88.908086 373.28729 90.632194 C 373.00841 91.246523 372.77443 91.987049 372.76743 92.278088 C 372.76043 92.569128 372.3413 93.456442 371.8357 94.250061 C 370.31291 96.640339 370.7208 98.704051 372.82169 99.23787 C 374.67918 99.70979 375.79887 99.834304 376.65194 99.663684 L 377.45655 99.50297 L 377.77177 95.890788 C 377.94525 93.90396 378.13635 91.742323 378.19655 91.087463 C 378.25675 90.432634 378.37519 86.027295 378.45959 81.29788 C 378.64304 71.02189 378.73083 70.27086 379.61972 71.341899 C 379.82242 71.586178 379.86745 72.429148 379.75822 73.921586 C 379.54833 76.789543 380.07325 79.294574 381.46095 82.046672 C 382.68579 84.475769 384.49853 87.440646 385.54598 88.728434 C 387.06547 90.596602 389.11539 93.60828 388.99796 93.799959 C 388.93096 93.909359 388.43676 93.930478 387.89984 93.846468 C 387.36292 93.762468 386.14977 93.831171 385.20388 93.99943 C 384.25799 94.16768 383.18643 94.334667 382.82263 94.370467 C 381.2092 94.529267 379.90935 96.092863 379.91635 97.865861 C 379.92135 99.01409 380.07058 99.325244 380.83825 99.782023 C 381.52629 100.19142 384.35447 99.999843 386.26221 99.414604 C 389.19534 98.514515 390.95951 98.281697 393.0866 98.513367 C 394.20805 98.635507 396.49497 98.856049 398.16846 99.003259 C 399.84194 99.150469 402.3329 99.379492 403.70404 99.512272 C 406.73421 99.805722 407.7398 99.501161 408.41538 98.084452 C 408.72435 97.436533 408.98095 97.204697 409.26753 97.315507 C 412.35568 98.509706 417.44551 97.651656 421.58409 95.239148 C 424.03173 93.812339 426.11354 91.454514 428.1873 87.760018 C 429.29803 85.78117 429.46235 85.264858 429.79754 82.71123 C 430.16522 79.910063 430.02926 77.373625 429.40945 75.477047 C 429.29056 75.113247 428.87188 73.684485 428.47876 72.302047 C 426.61375 65.743583 426.05482 64.058289 425.40763 63.04163 C 425.26867 62.82335 425.03264 62.360088 424.88311 62.011719 C 424.62844 61.418409 423.33126 59.640558 422.58041 58.855839 C 422.39642 58.663549 422.24554 58.386689 422.24554 58.240889 C 422.24554 58.09505 422.04866 58.014572 421.80785 58.061572 C 421.53367 58.115172 421.3488 58.443529 421.3133 58.940588 C 421.2586 59.706848 420.76363 62.159703 420.16557 64.62913 C 419.44549 67.602347 417.99773 75.027719 417.74091 77.064547 C 417.21399 81.243563 416.611 82.867531 414.76435 85.083179 C 413.44004 86.672107 410.37728 89.292483 409.99358 89.164583 C 409.56602 89.022063 409.30517 87.82846 409.02516 84.737463 C 408.88675 83.209495 408.71186 81.549126 408.63656 81.047766 C 408.24143 78.417609 406.46119 74.130305 404.42958 70.915568 C 403.94593 70.150239 403.47343 69.314784 403.38003 69.058834 C 403.28663 68.802894 402.30713 67.542233 401.2029 66.257454 C 399.15023 63.869187 396.93026 60.888304 396.14791 59.469755 C 395.90714 59.033195 395.21781 58.021156 394.61622 57.220797 C 393.29863 55.467858 392.34514 53.996054 391.66912 52.646916 C 390.1392 49.042967 388.87487 45.24757 387.44147 41.531832 L 387.49418 41.583508 C 387.49332 41.577208 387.49391 41.570849 387.49521 41.567489 C 387.56751 41.386252 391.20681 41.453428 392.87059 41.343213 C 394.19991 41.255143 395.75971 40.613781 395.84095 40.122099 C 395.84995 40.069419 395.75432 39.945915 395.58516 39.777417 L 395.58567 39.7769 C 395.30346 39.496313 394.8154 39.091123 394.25604 38.684977 C 392.66067 37.526771 391.75059 36.992205 388.59437 35.357532 C 388.17906 35.142423 387.76396 34.897157 387.42131 34.671269 L 387.38876 34.704858 C 387.31325 34.610013 387.25277 34.525276 387.22339 34.464046 C 386.80218 33.586197 386.44617 32.919961 386.08238 32.380452 C 385.38787 31.350452 384.66348 30.782748 383.39365 30.089119 C 381.84669 29.24414 378.53505 28.18123 377.9821 28.352275 C 377.84195 28.395605 375.36419 27.55583 374.90683 27.309961 C 372.95335 26.259849 369.63277 21.340503 364.01086 14.077177 C 363.68485 13.65598 363.54139 13.471445 363.28274 13.480831 z M 362.37633 15.98042 C 362.6815 16.002007 362.94407 16.406256 363.21607 17.188615 C 363.41574 17.762946 363.73188 18.216374 363.93851 18.224211 C 364.48689 18.245041 364.94442 17.528312 364.81856 16.845483 C 364.74566 16.449879 365.18956 16.88305 366.11409 18.108972 C 371.13346 24.764661 373.02288 27.928044 379.71274 29.558403 C 382.97336 30.353045 385.17385 31.981693 386.34799 34.469731 C 386.48239 34.754505 386.63998 35.023118 386.82135 35.284668 L 386.81567 35.290352 C 386.82212 35.295527 386.82882 35.300694 386.8353 35.305855 C 386.92573 35.435036 387.02066 35.562781 387.12469 35.688778 L 387.24613 35.607129 C 387.86143 36.025636 388.6208 36.407224 389.59896 36.798787 C 390.62331 37.208827 394.33535 39.548548 394.47773 39.874052 C 394.51193 39.952202 394.40795 40.089048 394.24622 40.178426 C 393.80922 40.419737 388.54138 40.483573 387.11074 40.490552 C 386.83491 40.491852 386.60711 40.506326 386.42137 40.532926 L 386.43326 40.544812 L 386.21208 40.562382 C 387.88711 44.600839 389.28392 48.758092 390.80509 52.646916 C 391.36309 53.856794 392.0296 55.07117 392.65407 55.945939 C 393.14031 56.627058 394.00343 57.877215 394.57178 58.724064 C 395.14013 59.570903 395.8276 60.561154 396.09934 60.924963 C 396.37107 61.288763 396.99758 62.181739 397.49202 62.909338 C 397.98645 63.636938 399.17474 65.114246 400.13217 66.191825 C 401.08958 67.269404 401.87263 68.301099 401.87263 68.484709 C 401.87263 68.668308 401.96942 68.858405 402.0876 68.906905 C 402.20574 68.955405 403.01756 70.18538 403.89163 71.640588 C 406.87191 76.602333 407.80468 79.577747 408.36887 85.922921 C 408.58859 88.393998 408.87278 90.520634 409.00036 90.648214 C 409.52404 91.171893 414.83044 86.520538 416.54305 84.036731 C 417.38223 82.819652 418.39411 78.989391 418.65455 76.046004 C 418.73635 75.121995 419.17755 72.740736 419.63485 70.754338 C 420.09215 68.76793 420.56108 66.547354 420.67665 65.819755 C 420.88036 64.537066 421.99491 60.122289 422.17681 59.877999 C 422.36947 59.619269 423.66544 61.408975 424.54463 63.148083 C 425.46628 64.971162 426.36166 67.434233 427.10261 70.18538 C 427.31816 70.985749 427.74458 72.474033 428.05036 73.492672 C 429.15038 77.157238 429.43663 79.585866 429.09474 82.356213 C 428.72065 85.38734 427.90157 87.291021 425.71407 90.214648 C 423.84995 92.706066 423.12647 93.382712 421.03993 94.585441 C 418.84091 95.85301 416.60951 96.581172 414.27704 96.792542 C 412.09792 96.989991 409.51782 96.586315 409.00449 95.967786 C 408.82997 95.757496 408.46381 95.58538 408.19059 95.58538 C 407.78892 95.58538 407.69346 95.784444 407.69346 96.624593 C 407.69346 98.139762 406.77804 98.805237 404.94789 98.620337 C 404.20238 98.545037 402.69945 98.432106 401.60804 98.369706 C 400.51664 98.307306 398.07585 98.106825 396.18409 97.924255 C 391.21331 97.444546 389.42637 97.523389 386.65909 98.343868 C 382.34948 99.621637 380.70596 99.470173 380.70596 97.795064 C 380.70596 95.932176 381.50644 95.329876 384.67471 94.808167 C 386.06322 94.579547 387.20259 94.555125 388.46931 94.727035 C 389.82068 94.910364 390.31048 94.892584 390.40098 94.656755 C 390.56191 94.237375 389.14701 91.922974 387.33191 89.636906 C 385.58513 87.436878 384.99346 86.525646 382.99161 82.95411 C 380.60978 78.704644 380.05583 76.058392 380.846 72.703056 C 381.37285 70.465838 381.70409 70.128874 383.93264 69.558545 C 385.36088 69.193035 385.83508 68.722078 385.07107 68.428898 C 384.3716 68.160478 381.75515 68.904879 380.91628 69.610738 L 380.15147 70.25411 L 379.55203 69.69032 C 378.64417 68.837431 378.06106 68.953284 378.05806 69.986943 C 378.05706 70.459882 377.93425 72.513727 377.78624 74.551005 C 377.63824 76.588293 377.50289 81.29127 377.48549 85.002047 C 377.46809 88.712813 377.35656 92.463287 377.23744 93.336422 C 377.11831 94.209531 376.94095 95.578771 376.84315 96.37913 C 376.56507 98.655198 376.53726 98.678657 374.38438 98.481327 C 373.35978 98.387427 372.33893 98.159055 372.11579 97.973865 C 371.46883 97.436935 371.63992 96.254596 372.63617 94.376668 C 373.14549 93.416609 373.56221 92.448655 373.56221 92.225895 C 373.56221 92.003125 373.78922 91.388183 374.06657 90.859054 C 375.19683 88.702686 375.40977 76.039394 374.45208 67.936422 C 374.40048 67.499862 374.30327 64.691573 374.23607 61.695976 C 374.14167 57.48461 373.87151 54.618214 373.37204 52.646916 L 373.35809 52.646916 C 373.19918 51.929945 372.75671 50.59721 372.43463 49.67242 C 371.95514 48.295662 371.41386 46.938479 370.81199 45.610653 C 370.15393 44.158868 369.3492 42.71211 368.6421 41.349931 C 367.93501 39.987728 365.84077 38.058594 365.77096 37.729997 C 365.70116 37.401399 365.36285 36.878355 365.01855 36.567794 C 364.67425 36.257225 364.18406 35.428401 363.92972 34.725529 C 363.67536 34.022636 362.90577 32.6347 362.21923 31.641996 C 360.85541 29.669798 359.30671 26.510458 358.84425 24.035742 C 358.49674 22.176025 358.83412 21.87634 359.43542 23.510193 C 360.33199 25.365357 361.64115 27.659437 362.27298 28.633394 C 363.09148 29.147509 363.1761 29.204988 363.54887 29.089697 C 363.90104 28.980782 364.70057 28.612986 364.57051 28.201896 C 364.47451 27.898648 364.21942 27.154827 364.0491 26.608195 C 362.7835 23.589353 361.57645 22.422315 360.74181 19.354891 C 360.59641 18.636634 360.68673 18.140586 361.09941 17.389119 C 361.62979 16.423265 362.03047 15.955955 362.37633 15.98042 z M 377.07673 29.601294 C 377.00696 29.601356 376.95875 29.607091 376.92893 29.619897 C 376.84943 29.653947 376.90216 29.737161 377.04159 29.890165 C 377.3167 30.192672 377.24529 30.30975 376.44679 30.865816 C 375.94779 31.213303 375.59128 31.58086 375.65459 31.682821 C 375.71789 31.784788 375.86367 31.797327 375.97808 31.710726 C 376.09251 31.624106 376.24218 31.644011 376.31088 31.754651 C 376.38288 31.870638 376.18278 32.069819 375.83856 32.225423 C 375.19885 32.514511 375.26028 33.011328 375.94553 33.094104 C 376.32067 33.139404 376.31599 33.176524 375.74347 34.780306 L 375.46442 35.561654 L 376.04061 35.135323 C 376.72409 34.629444 376.90418 34.79232 376.53464 35.581291 C 376.22429 36.243856 376.63078 36.540076 377.06846 35.970414 C 377.24402 35.742195 377.61885 35.630386 377.99036 35.696012 C 378.33467 35.756792 378.62689 35.798913 378.63994 35.78903 C 378.65334 35.77867 378.64814 34.920765 378.36554 33.616553 C 378.08325 32.312342 377.86623 30.862006 378.08648 30.695284 C 378.75152 30.191924 378.55184 29.747411 377.61468 29.644185 C 377.36852 29.617067 377.193 29.601191 377.07673 29.601294 z " /></g></svg>
